<svg xmlns="http://www.w3.org/2000/svg" xmlns:xlink="http://www.w3.org/1999/xlink" width="45.986" height="81.526" viewBox="0 0 45.986 81.526"><defs><style>.a{fill:#fff;}.b,.c{stroke:rgba(255,255,255,0);stroke-linecap:round;stroke-linejoin:round;stroke-width:0.094px;opacity:0.034;}.b{fill:url(#a);}.c{fill:url(#b);}.d{fill:url(#c);}.e{fill:#ececec;}.f{fill:none;}.f,.g,.h,.i{stroke:#000;stroke-width:0.4px;}.g{fill:#f2f2f2;}.h{fill:url(#d);}.i{fill:url(#e);}.j{fill:#005288;}.k{fill:#00006d;}.k,.l{fill-rule:evenodd;}</style><linearGradient id="a" x1="0.675" y1="-2.249" x2="1.619" y2="-2.249" gradientUnits="objectBoundingBox"><stop offset="0"/><stop offset="1" stop-opacity="0"/></linearGradient><linearGradient id="b" x1="89.663" y1="3.25" x2="90.621" y2="3.25" xlink:href="#a"/><radialGradient id="c" cx="2096.138" cy="6974.995" r="10.725" gradientTransform="matrix(1.001, -0.123, 0.252, 2.055, -1587.82, -6429.338)" gradientUnits="userSpaceOnUse"><stop offset="0" stop-color="#f9f9f9"/><stop offset="1" stop-color="#f9f9f9"/></radialGradient><linearGradient id="d" x1="-43.329" y1="3.325" x2="-42.151" y2="3.325" gradientUnits="objectBoundingBox"><stop offset="0" stop-color="#fff"/><stop offset="1" stop-color="#f2f2f2"/></linearGradient><linearGradient id="e" x1="-43.329" y1="3.325" x2="-42.152" y2="3.325" gradientUnits="objectBoundingBox"><stop offset="0" stop-color="#ececec"/><stop offset="1" stop-color="#fff"/></linearGradient></defs><g transform="translate(0.2)"><g transform="translate(2.898 45.768)"><rect class="a" width="39.826" height="32.425" transform="translate(0 0)"/><g transform="translate(0.404 0.018)"><rect class="b" width="19.752" height="32.389" transform="translate(0 0.006)"/><rect class="c" width="19.462" height="32.378" transform="translate(38.919 32.378) rotate(180)"/></g></g><path class="d" d="M487.886,718.9l.026-.3.006-.3-.015-.3-.035-.295-.246-.957-.568-2.062-.568-2.062-.567-2.062-.568-2.062-.568-2.062-.568-2.062-.568-2.062-.568-2.062-.567-2.062-.568-2.062-.568-2.062-.568-2.062-.568-2.062-.568-2.062-.165-.517-.139-.382-.154-.4-.168-.42-.182-.435-.2-.447-.209-.457-.222-.463-.234-.466-.246-.466-.257-.464-.268-.458-.279-.45-.289-.438-.3-.424-.308-.408-.317-.393-.325-.377-.331-.361-.338-.346-.344-.33-.349-.315-.354-.3-.357-.285-.361-.27-.363-.255-.365-.241-.366-.226-.366-.212-.366-.2-.366-.183-.365-.169-.365-.155-.364-.142-.363-.129-.362-.115-.361-.1-.359-.09-.357-.077-.356-.065-.354-.053-.352-.041-.35-.029h-.348l-.35.029-.352.041-.354.053-.356.065-.358.077-.359.09-.36.1-.362.115-.363.129-.364.142-.365.155-.365.169-.366.183-.366.2-.366.212-.366.226-.365.241-.363.255-.36.27-.357.285-.354.3-.349.315-.344.33-.338.346-.332.361-.324.377-.317.393-.308.408-.3.424-.289.438-.279.45-.269.458-.257.464-.246.466-.234.466-.222.463-.209.457-.2.447-.182.435-.168.42-.154.4-.138.382-.165.517-.568,2.062-.568,2.062-.567,2.062-.568,2.062-.567,2.062-.568,2.062-.568,2.062-.568,2.062-.568,2.062-.568,2.062-.568,2.062-.568,2.062-.568,2.062L445,716.763l-.246.957-.035.295-.015.3.006.3.026.3" transform="translate(-443.519 -675.342)"/><path class="e" d="M448.385,698.829c0-.072-.1-.168-.309-.3a2.674,2.674,0,0,1-.5-.4,2.875,2.875,0,0,1-.521-1.212c-.074-.47-.135-.592-.357-.714a2.505,2.505,0,0,0-1.431-.28l-.564.027.015-.214.015-.214h42.94l.015.214.015.214-.564-.027a2.5,2.5,0,0,0-1.431.28c-.222.122-.283.244-.357.714a2.878,2.878,0,0,1-.521,1.212,2.668,2.668,0,0,1-.5.4c-.208.127-.309.224-.309.3,0,.1-.746.106-17.816.106s-17.816,0-17.816-.106Z" transform="translate(-443.526 -652.522)"/><path class="f" d="M487.886,719.1l.026-.3.006-.3-.015-.3-.035-.295-.246-.957-.568-2.062-.568-2.062-.567-2.062-.568-2.062-.568-2.062-.568-2.062-.568-2.062-.568-2.062-.567-2.062-.568-2.062-.568-2.062-.568-2.062-.568-2.062-.568-2.062-.165-.517-.139-.382-.154-.4-.168-.42-.182-.435-.2-.447-.209-.456-.222-.463-.234-.466-.246-.466-.257-.464-.268-.458-.279-.45-.289-.438-.3-.424-.308-.408-.317-.392-.325-.377-.331-.361-.338-.346-.344-.33-.349-.315-.354-.3-.357-.285-.361-.27-.363-.255-.365-.241-.366-.226-.366-.212-.366-.2-.366-.183-.365-.169-.365-.155-.364-.142-.363-.128-.362-.116-.361-.1-.359-.09-.357-.077-.356-.065-.354-.053-.352-.041-.35-.029h-.348l-.35.029-.352.041-.354.053-.356.065-.358.077-.359.09-.36.1-.362.116-.363.128-.364.142-.365.155-.365.169-.366.183-.366.2-.366.212-.366.226-.365.241-.363.255-.36.27-.357.285-.354.3-.349.315-.344.33-.338.346-.332.361-.324.377-.317.392-.308.408-.3.424-.289.438-.279.45-.269.458-.257.464-.246.466-.234.466-.222.463-.209.456-.2.447-.182.435-.168.42-.154.4-.138.382-.165.517-.568,2.062-.568,2.062-.567,2.062-.568,2.062-.567,2.062-.568,2.062-.568,2.062-.568,2.062-.568,2.062-.568,2.062-.568,2.062-.568,2.062-.568,2.062L445,716.964l-.246.957-.035.295-.015.3.006.3.026.3" transform="translate(-443.519 -675.115)"/><path class="f" d="M446.405,711.986h35.977" transform="translate(-441.6 -633.904)"/><path class="f" d="M446.405,697.006h35.977" transform="translate(-441.6 -650.843)"/><path class="g" d="M444.746,695.345h43.046" transform="translate(-443.476 -652.721)"/><path class="f" d="M448.6,681.343h26.622" transform="translate(-439.118 -668.555)"/><path class="f" d="M446.405,711.986h35.977" transform="translate(-441.6 -633.904)"/><path class="h" d="M463.289,697.968v33.385l.1,1.93.558-.378.527-.387.5-.393.463-.394.429-.392.395-.386.359-.376.323-.362.286-.344.248-.323.209-.3.169-.268.128-.235.087-.2.034-.805V698.258l-.044-1.134-.1-.141-.108-.138-.119-.133-.13-.127-.14-.119-.15-.111-.159-.1-.167-.091-.174-.08-.18-.067-.184-.055-.187-.041-.189-.028-.189-.015-.188,0-.186.011-.182.024-.178.035-.172.046-.165.056-.158.065-.048.118-.019.137-.028.137-.038.137-.048.135-.057.133-.066.13-.075.125-.084.12-.092.114-.1.107-.106.1-.111.091-.116.082-.12.073-.123.064-.124.055Z" transform="translate(-422.508 -652.123)"/><path class="i" d="M448.955,697.968v33.385l-.1,1.93-.558-.378-.527-.387-.5-.393-.463-.394-.429-.392-.395-.386-.359-.376-.323-.362-.286-.344-.248-.323-.209-.3-.169-.268-.128-.235-.086-.2-.034-.805V698.258l.044-1.134.1-.141.108-.138.119-.133.13-.127.14-.119.15-.111.159-.1.167-.091.174-.08.18-.067.184-.055.188-.041.189-.028.189-.015.188,0,.186.011.182.024.178.035.172.046.165.056.158.065.048.118.019.137.028.137.038.137.048.135.057.133.066.13.075.125.084.12.092.114.1.107.106.1.111.091.116.082.12.073.123.064.125.055Z" transform="translate(-444.15 -652.123)"/><g transform="translate(8.659 31.615)"><path class="j" d="M4.95.678H2.266l-.1.074V3.141h.743v-.9l.071-.064H4.95c.5,0,.731-.134.731-.477V1.156c0-.344-.233-.478-.731-.478m0,.883c0,.162-.107.2-.34.2H2.988L2.909,1.68V1.168L2.98,1.1H4.61c.233,0,.34.033.34.2Z" transform="translate(2.449 0.767)"/><path class="j" d="M5.073,1.146l.64.937-.035.091H4.263L3.9,2.618H6.007l.146.089.327.451h.851L5.466.664" transform="translate(4.412 0.751)"/><path class="j" d="M8.822,2.217V1.555L8.9,1.488h1.423V1.066H8.066V2.7h3.326v-.42H8.9" transform="translate(9.121 1.206)"/><rect class="j" width="3.362" height="0.464" transform="translate(17.187 1.445)"/><path class="j" d="M6.75,1.118H9.458c-.042-.344-.255-.44-.8-.44H6.721c-.612,0-.807.119-.807.582v1.3c0,.463.2.583.807.583h1.94c.55,0,.761-.1.775-.46H6.75l-.08-.075V1.168" transform="translate(6.688 0.767)"/><path class="j" d="M2.808,1.638H.838L.78,1.574V1.153l.058-.045H3.494l.036-.089C3.44.787,3.205.678,2.77.678H.925C.314.678.119.8.119,1.26v.272c0,.463.2.583.807.583H2.891l.062.054V2.61l-.05.069H.654v0H.065S0,2.71,0,2.726c.05.324.271.416.8.416H2.808c.611,0,.812-.119.812-.583V2.22c0-.463-.2-.582-.812-.582" transform="translate(0 0.767)"/><path class="j" d="M11.255.673H10.149l-.06.114,1.228.9c.233-.135.486-.271.761-.406" transform="translate(11.409 0.762)"/><path class="j" d="M11.1,1.729l1.079.787H13.3l.046-.1-1.612-1.18q-.321.236-.633.5" transform="translate(12.553 1.393)"/><path class="j" d="M11.135,3.907h-1l-.085-.132C10.73,3.117,13.773.3,20.387,0c0,0-5.551.187-9.252,3.907" transform="translate(11.364)"/></g><g transform="translate(8.177 54.381)"><g transform="translate(1.207)"><path class="k" d="M452.287,709.959c3.4-.4,7.672-.553,7.823,2.532,2.246-1.114,5.591-3.116,9.283-.1a3.925,3.925,0,0,1,1.688.065,4.377,4.377,0,0,1-.909-2.012c-2-.273-3.738-.806-5.583-1.233a42.253,42.253,0,0,1-5.648-.779c-2.114-1.3-3.575-3.2-5.648-4.609a28.785,28.785,0,0,1-4.739-2.726c2.9,2.561,8.871,6.861,3.733,8.861Z" transform="translate(-448.554 -700.597)"/><path class="k" d="M449.241,700.863a105.061,105.061,0,0,0,11.231,4.76,4.027,4.027,0,0,0,2.571,1.1c1.714,1.926,4.544,2.93,5.7,2.691.765.321,1.01.171,1.288.556a7.029,7.029,0,0,1,.774,2.628,1.994,1.994,0,0,1-.815-1.182c-.182-1.625-.57-1.48-.915-1.517-.538-.058-1.019-.009.389.487l-4.479-.909-4.707-1.656-.747.519,1.655.519-2.3-.325c-2.1-.994-3.432-2.821-5.583-4.187a19.272,19.272,0,0,0,4.642,1.3Z" transform="translate(-447.778 -700.863)"/></g><g transform="translate(0 13.122)"><path class="l" d="M514.673,876.364l.784-.027-.041-2.059a2.042,2.042,0,0,0-2.662,0l-.013,2.059h.8L513.5,875.1l.436-.013c.108-.052.2-.236.24-.308l-.693.013.013-.576a1.226,1.226,0,0,1,1.146.005s.024,1.587.027,2.141Z" transform="translate(-501.963 -873.724)"/><path class="l" d="M519.045,873.769c-.756.011-1.664.478-1.659,1.363.008,1.771,3.291,1.861,3.292,0A1.475,1.475,0,0,0,519.045,873.769Zm.008.225c.449-.005.886.344.889,1.138.008,1.521-1.8,1.553-1.816,0A1,1,0,0,1,519.053,873.994Z" transform="translate(-496.711 -873.744)"/><path class="l" d="M520.879,876.423l-.77-.008v-2.35c.2-.083.681-.256.764-.274v.07a2.7,2.7,0,0,1,1.925.373l.013,2.165-.768.005-.008-2.077c-.247-.227-.371-.261-1.173-.207,0,0,.011,1.578.016,2.3Z" transform="translate(-493.63 -873.717)"/><path class="l" d="M507.683,873.757v2.706l1.125.011c2.488-.019,2.38-2.676-.013-2.706Zm.723.237.541.01c1.268.081,1.021,2.2.018,2.232h-.539Z" transform="translate(-507.683 -873.757)"/><path class="l" d="M511.046,876.5l-.764-.008.013-2.688s.994-.057,1.788-.019a2.151,2.151,0,0,1,.718.162c.005.449-.005.948-.005.948-.029.18-.626.115-.655.19.029.1.691,0,.692.222l0,1.2a1.962,1.962,0,0,1-.753-.128c-.013-.35-.005-1.131-.005-1.131l-.4-.018a.775.775,0,0,1-.293-.3l.687.011.01-.915a2.652,2.652,0,0,0-1.064-.005Z" transform="translate(-504.744 -873.742)"/><path class="l" d="M516.289,874.975l1.34.013.013,1.319a7.072,7.072,0,0,1-2.52,0v-2.434a6.757,6.757,0,0,1,2.536.013l-.013.526h-.686v-.378a1.763,1.763,0,0,0-1.115-.027l-.027,2.179a2.139,2.139,0,0,0,1.155,0v-1.052h-.551a.25.25,0,0,1-.133-.16Z" transform="translate(-499.27 -873.757)"/></g></g></g></svg>