<svg xmlns="http://www.w3.org/2000/svg" width="42.185" height="24.309" viewBox="0 0 42.185 24.309"><defs><style>.a{fill:#f7f7f7;}.b{fill:#101010;}.c,.e{fill:#333;}.c{stroke:rgba(255,255,255,0);stroke-linecap:round;stroke-linejoin:round;stroke-width:0.4px;}.d{fill:none;}.d,.e{stroke:#000;stroke-width:0.4px;}</style></defs><g transform="translate(-3.763 -563.986)"><rect class="a" width="0.949" height="1.032" transform="translate(3.763 564.953)"/><rect class="a" width="1.248" height="1.271" transform="translate(44.7 564.846)"/><path class="a" d="M446.412,1008.949a1.7,1.7,0,0,1-.109-.317l-.019-.115h7.245l.039.194c.033.164.031.211-.015.3l-.053.106h-7l-.09-.2Z" transform="translate(-439.668 -434.578)"/><path class="a" d="M450.209,1008.949a1.7,1.7,0,0,1-.109-.316l-.019-.115H453.8a34.376,34.376,0,0,1,3.717.045,2.085,2.085,0,0,1-.184.511l-.05.077H450.3l-.09-.2Z" transform="translate(-435.374 -434.578)"/><path class="a" d="M453.874,1009.263a3.286,3.286,0,0,0,.169-.583l.023-.158h1.874c2.038,0,1.913-.021,1.915.177a2,2,0,0,0,.094.347l.093.275h-2.095c-1.981,0-2.094,0-2.072-.057Z" transform="translate(-431.087 -434.572)"/><path class="a" d="M456.272,1008.991a2.636,2.636,0,0,1-.112-.316l-.042-.158h3.726c2.538,0,3.726,0,3.726.034a2.475,2.475,0,0,1-.186.523l-.048.075h-6.994l-.07-.158Z" transform="translate(-428.546 -434.578)"/><path class="a" d="M460.021,1009.034a.4.4,0,0,1-.017-.316l.039-.2h3.625c2.468,0,3.625,0,3.625.034a2.469,2.469,0,0,1-.186.523l-.048.075h-6.983l-.055-.117Z" transform="translate(-424.178 -434.578)"/><path class="b" d="M445.54,1003.89l39.563.066.021,6.976-1.487,3.731-36.581-.113-1.486-3.735Z" transform="translate(-440.509 -439.81)"/><g transform="translate(12.257 574.973)"><path class="c" d="M454.515,1032.356c-.413-1.015-.959-2.2-1.5-3.253l-.212-.411.087-.162c.153-.282.5-.893.716-1.245l.075-.124h2.087l.082.134c.182.3.65,1.114.761,1.325l.038.073-.111.211c-.593,1.13-1.187,2.411-1.665,3.592l-.08.2h-.139l-.137-.337h0Z" transform="translate(-452.8 -1026.821)"/><path class="c" d="M464.412,1032.2c-.413-1.015-.959-2.2-1.5-3.252l-.211-.411.087-.162c.153-.282.5-.893.716-1.245l.075-.123h2.087l.082.134c.182.3.65,1.114.761,1.325l.038.073-.111.211c-.593,1.13-1.187,2.411-1.665,3.592l-.08.2h-.139l-.137-.337h0Z" transform="translate(-441.608 -1027.002)"/><path class="c" d="M458.831,1030.937c.171-.333.491-.925.711-1.315l.4-.709-.471-.826-.471-.826h-.809c-.69,0-.809-.023-.809-.087s-.067-.083-.349-.07c-.331.023-.356.028-.465.216l-.115.2.606,1.153c.333.634.781,1.538,1,2.01a7.332,7.332,0,0,0,.427.859,3.873,3.873,0,0,0,.348-.6Z" transform="translate(-448.668 -1026.893)"/><path class="c" d="M460.448,1030.917c-.171-.333-.491-.925-.711-1.315l-.4-.709.471-.826.471-.826h.809c.69,0,.809-.024.809-.087s.067-.083.349-.07c.331.023.356.028.465.216l.115.2-.606,1.153c-.333.634-.781,1.539-1,2.01a7.333,7.333,0,0,1-.427.859,3.854,3.854,0,0,1-.348-.6Z" transform="translate(-445.408 -1026.916)"/><path class="c" d="M456.316,1039.887c0-.028.178-.813.2-.9.373-4.793.76-3.8,2.288-6.706a31.712,31.712,0,0,1,1.618-3.242l.295-.515v-1.335h1.444v1.354l.309.541c.324.566,1.217,2.307,1.425,2.775l.121.272a45.238,45.238,0,0,1,2.422,7.231c.05.223.09.437.09.476,0,.07-.009.07-5.108.07-2.809,0-5.108,0-5.108-.023Z" transform="translate(-448.824 -1026.788)"/></g><path class="d" d="M459.529,1009.01H457.36" transform="translate(-427.143 -434.021)"/><path class="d" d="M447.471,1014.33h10.466" transform="translate(-438.325 -428.005)"/><path class="d" d="M449.418,1009.01h2.169" transform="translate(-436.124 -434.021)"/><path class="d" d="M451.374,1010.775q-.445-.894-.938-1.762" transform="translate(-434.973 -434.018)"/><path class="d" d="M449.916,1009.01q-.493.868-.938,1.762" transform="translate(-436.622 -434.021)"/><path class="d" d="M452.8,1009.01h1.628" transform="translate(-432.299 -434.021)"/><path class="d" d="M454.813,1010.9q-.451-.92-.952-1.813" transform="translate(-431.099 -433.931)"/><path class="d" d="M453.063,1009.01q-.254.447-.5.9" transform="translate(-432.563 -434.021)"/><path class="d" d="M467.778,1014.33H457.312" transform="translate(-427.197 -428.005)"/><path class="d" d="M461.428,1009.01h-2.169" transform="translate(-424.995 -434.021)"/><path class="d" d="M459.757,1009.01q-.493.868-.938,1.762" transform="translate(-425.493 -434.021)"/><path class="d" d="M461.215,1010.775q-.445-.894-.938-1.762" transform="translate(-423.844 -434.018)"/><path class="d" d="M457.759,1009.01h-1.628" transform="translate(-428.532 -434.021)"/><path class="d" d="M449.872,1008.33a2.215,2.215,0,0,0,.46,1.458" transform="translate(-435.612 -434.79)"/><path class="d" d="M453.564,1009.784a2.216,2.216,0,0,0,.46-1.458" transform="translate(-431.435 -434.795)"/><path class="d" d="M450.087,1009.01H457.5" transform="translate(-435.367 -434.021)"/><path class="d" d="M455.916,1008.33a2.215,2.215,0,0,0,.46,1.458" transform="translate(-428.778 -434.79)"/><path class="d" d="M459.608,1009.784a2.216,2.216,0,0,0,.46-1.458" transform="translate(-424.601 -434.795)"/><path class="d" d="M456.131,1009.01h7.409" transform="translate(-428.532 -434.021)"/><path class="d" d="M453.861,1009.09h4.2" transform="translate(-431.099 -433.931)"/><path class="d" d="M453.054,1009.01q.054.086.116.166" transform="translate(-432.012 -434.021)"/><path class="d" d="M456.586,1009.178q.062-.081.116-.166" transform="translate(-428.018 -434.019)"/><path class="d" d="M453.109,1009.09h7.409" transform="translate(-431.95 -433.931)"/><path class="d" d="M456.388,1009.09q-.5.893-.952,1.813" transform="translate(-429.318 -433.93)"/><path class="d" d="M456.388,1009.09q-.5.893-.952,1.813" transform="translate(-429.318 -433.93)"/><path class="d" d="M457.387,1009.816q-.216-.4-.443-.8" transform="translate(-427.613 -434.017)"/><path class="d" d="M452.793,1014.33q-.211.88-.377,1.77h10.465q-.167-.889-.378-1.77" transform="translate(-432.734 -428.005)"/><path class="d" d="M453.514,1014.334a36.561,36.561,0,0,1,1.809-3.641v-1.6" transform="translate(-431.492 -433.933)"/><path class="d" d="M455.381,1009.09v1.6a36.581,36.581,0,0,1,1.752,3.509" transform="translate(-429.38 -433.93)"/><path class="e" d="M454.851,1015.712a36.591,36.591,0,0,0-2.961-6.695h-2.169a36.584,36.584,0,0,0-4.148,11.328h10.466" transform="translate(-440.472 -434.012)"/><path class="d" d="M446.074,1008.33a2.215,2.215,0,0,0,.46,1.458h7.409a2.217,2.217,0,0,0,.341-.631" transform="translate(-439.907 -434.79)"/><path class="d" d="M459.768,1009.159a2.219,2.219,0,0,0,.341.631h7.409a2.215,2.215,0,0,0,.46-1.458" transform="translate(-424.419 -434.788)"/><path class="e" d="M459.211,1020.342h10.466a36.588,36.588,0,0,0-4.148-11.328h-2.169a36.586,36.586,0,0,0-2.961,6.695" transform="translate(-425.049 -434.017)"/><path class="e" d="M461.73,1009.01a36.588,36.588,0,0,1,4.148,11.328H455.413a36.586,36.586,0,0,1,4.148-11.328" transform="translate(-429.344 -434.021)"/><path class="e" d="M453.517,1009.01a36.586,36.586,0,0,0-4.148,11.328h10.466a36.588,36.588,0,0,0-4.148-11.328Z" transform="translate(-436.179 -434.021)"/><path class="d" d="M445.524,1003.94h39.732" transform="translate(-440.527 -439.754)"/></g></svg>