<svg xmlns="http://www.w3.org/2000/svg" xmlns:xlink="http://www.w3.org/1999/xlink" viewBox="0 0 28.27 143.29"><defs><style>.cls-1{fill:#f7f7f7;}.cls-2{fill:#4d4d4d;}.cls-3{fill:none;stroke:#000;stroke-width:0.4px;}.cls-4{fill:#f2f2f2;}.cls-5,.cls-6{opacity:0.03;isolation:isolate;}.cls-5{fill:url(#linear-gradient);}.cls-6{fill:url(#linear-gradient-2);}</style><linearGradient id="linear-gradient" x1="-873.87" y1="709.91" x2="-872.93" y2="709.91" gradientTransform="matrix(13.43, 0, 0, -79.49, 11745.17, 56535.22)" gradientUnits="userSpaceOnUse"><stop offset="0"/><stop offset="1" stop-opacity="0"/></linearGradient><linearGradient id="linear-gradient-2" x1="-926.67" y1="719.09" x2="-925.72" y2="719.09" gradientTransform="matrix(-13.23, 0, 0, 79.41, -13420.88, -57002.97)" xlink:href="#linear-gradient"/></defs><title>falcon1_upper</title><g id="Layer_2" data-name="Layer 2"><g id="Layer_1-2" data-name="Layer 1"><rect class="cls-1" x="0.2" y="62.97" width="27.71" height="79.96"/><polyline class="cls-2" points="0.3 143.15 0.3 90.37 28.07 90.37 28.07 143.15 0.3 143.15"/><path class="cls-3" d="M.28,143.09H28"/><path class="cls-3" d="M.28,90.27H28"/><path class="cls-3" d="M14.15.2V55.63"/><path class="cls-3" d="M1.91,55.63H26.38V30.5L23.94,18.44,16.65,1.89a2.69,2.69,0,0,0-5,0L4.36,18.44,1.91,30.5V55.63Z"/><path class="cls-3" d="M.3,143,.2,62.84l1.71-7.21"/><path class="cls-3" d="M26.38,55.63,28,63l.06,80.17"/><path class="cls-4" d="M14.85,28.06c0-14.79.07-26.89.16-26.89.55,0,1.3,1.48,4.6,8.93l3.69,8.35,1.19,5.72,1.19,5.73V55H14.85V28.06Z"/><path class="cls-4" d="M2.59,42.68V30.32L3.77,24.5,5,18.68,8.64,10.3c2-4.61,3.78-8.49,3.9-8.63a1.93,1.93,0,0,1,.88-.52c.08,0,.11,8.2.11,26.94V55H2.59Z"/><path class="cls-4" d="M1.13,62.18c0-.1.29-1.46.64-3l.63-2.86,11.73,0,11.73,0,.06.23c.2.85,1.28,5.75,1.28,5.82s-5.87.08-13,.08c-12.35,0-13,0-13-.18Z"/><rect class="cls-5" x="0.84" y="63.55" width="13.43" height="79.49"/><rect class="cls-6" x="14.07" y="63.51" width="13.23" height="79.41"/><path class="cls-3" d="M.28,63H28"/></g></g></svg>