<svg xmlns="http://www.w3.org/2000/svg" xmlns:xlink="http://www.w3.org/1999/xlink" viewBox="0 0 28.26 160.32"><defs><style>.cls-1{fill:#f7f7f7;}.cls-2{fill:#fff;}.cls-2,.cls-3,.cls-4{opacity:0.03;isolation:isolate;}.cls-3{fill:url(#linear-gradient);}.cls-4{fill:url(#linear-gradient-2);}.cls-5{fill:none;stroke:#000;stroke-width:0.4px;}.cls-6{fill:#005288;}</style><linearGradient id="linear-gradient" x1="-873.87" y1="569.7" x2="-872.93" y2="569.7" gradientTransform="matrix(13.43, 0, 0, -159.49, 11745.17, 90942.62)" gradientUnits="userSpaceOnUse"><stop offset="0"/><stop offset="1" stop-opacity="0"/></linearGradient><linearGradient id="linear-gradient-2" x1="-926.67" y1="574.28" x2="-925.72" y2="574.28" gradientTransform="matrix(-13.23, 0, 0, 159.41, -13420.88, -91468.51)" xlink:href="#linear-gradient"/></defs><title>falcon1_lower</title><g id="Layer_2" data-name="Layer 2"><g id="Layer_1-2" data-name="Layer 1"><rect class="cls-1" x="0.2" y="0.41" width="27.71" height="159.91"/><rect class="cls-2" x="1.08" y="0.04" width="13.31" height="159.52"/><rect class="cls-2" x="14.19" y="0.54" width="13.11" height="158.91"/><rect class="cls-3" x="0.84" y="0.04" width="13.43" height="159.49"/><rect class="cls-4" x="14.07" width="13.23" height="159.41"/><path class="cls-5" d="M.3,160.07.2.52"/><path class="cls-5" d="M28,.58l0,159.49"/><path class="cls-6" d="M15.76,50.65H9.22L9,50.83v5.82h1.81V54.47l.17-.16h4.8c1.21,0,1.78-.32,1.78-1.16V51.82c0-.84-.57-1.17-1.78-1.17m0,2.15c0,.4-.26.48-.83.48H11l-.19-.19V51.85l.17-.16h4c.57,0,.83.08.83.47v.64Z"/><path class="cls-6" d="M12,63.88l1.56,2.28-.08.22H10l-.88,1.08h5.12l.36.22.8,1.1h2.07L12.93,62.7"/><path class="cls-6" d="M11,94.18V92.56l.19-.16h3.46v-1H9.16v4h8.1v-1H11.2"/><rect class="cls-6" x="9.16" y="89.36" width="8.19" height="1.13"/><path class="cls-6" d="M11,76.86h6.59c-.1-.84-.62-1.08-1.94-1.08H10.91c-1.49,0-2,.3-2,1.42v3.16c0,1.13.48,1.42,2,1.42h4.72c1.33,0,1.85-.25,1.88-1.12H11l-.2-.18V77"/><path class="cls-6" d="M15.69,39.17h-4.8L10.75,39V38l.14-.11h6.47l.09-.21c-.22-.57-.79-.84-1.85-.84H11.1c-1.49,0-2,.3-2,1.42v.67c0,1.12.47,1.41,2,1.41h4.79l.15.14v1.07l-.12.17H9s-.17.08-.16.12c.12.79.66,1,1.94,1h4.9c1.48,0,2-.29,2-1.41v-.84c0-1.12-.49-1.41-2-1.41"/><path class="cls-6" d="M11.07,103.27H8.38l-.15.27,3,2.18c.57-.32,1.18-.66,1.85-1"/><path class="cls-6" d="M13.48,107.37l2.62,1.92h2.73l.11-.26L15,106.16c-.52.38-1,.79-1.54,1.21"/><path class="cls-6" d="M10.67,109.28H8.23L8,109c1.66-1.6,9.23-7.61,19.07-8.37a30.44,30.44,0,0,0-16.42,8.7"/><path class="cls-5" d="M.3.58H28"/></g></g></svg>