<svg xmlns="http://www.w3.org/2000/svg" xmlns:xlink="http://www.w3.org/1999/xlink" width="135.091" height="496.332" viewBox="0 0 135.091 496.332"><defs><style>.a,.ac,.af,.z{fill:#fff;}.b,.c,.d,.e,.f,.g,.l,.m,.n{stroke:rgba(255,255,255,0);}.aa,.ab,.ae,.af,.ag,.b,.c,.d,.e,.f,.g,.l,.m,.n,.r,.s,.w,.z{stroke-linecap:round;}.aa,.ab,.ad,.ae,.af,.ag,.b,.c,.d,.e,.f,.g,.l,.m,.n,.w,.z{stroke-linejoin:round;}.b,.c{stroke-width:0.398px;}.b,.c,.d,.e,.f,.g{opacity:0.034;}.b,.d,.f{fill:url(#a);}.c,.e,.g{fill:url(#b);}.d,.e{stroke-width:0.397px;}.f,.g{stroke-width:0.42px;}.ag,.h{fill:#101010;}.ab,.i,.w{fill:#f7f7f7;}.j{fill:url(#g);}.k{fill:url(#h);}.l,.m,.n,.p{fill:#333;}.l{stroke-width:0.4px;}.m{stroke-width:0.4px;}.n{stroke-width:0.4px;}.ad,.ae,.o,.s,.t,.u{fill:none;}.aa,.ab,.ad,.ae,.af,.ag,.o,.p,.q,.r,.s,.t,.u,.w,.z{stroke:#000;}.ag,.o,.p,.q,.r,.s{stroke-width:0.4px;}.q,.r,.v{fill:#f2f2f2;}.t{stroke-width:0.404px;}.u{stroke-width:0.404px;}.aa,.ad,.ae,.af,.w{stroke-width:0.3px;}.aa,.ac,.ad,.ae,.af,.ag,.w,.z{fill-rule:evenodd;}.x{fill:#005288;}.y{fill:#a7a9ac;}.z{stroke-width:0.6px;}.aa{fill:#f0f0f0;}.ab{stroke-width:0.301px;}.ad{stroke-linecap:square;}</style><linearGradient id="a" x1="0.675" y1="-2.249" x2="1.619" y2="-2.249" gradientUnits="objectBoundingBox"><stop offset="0"/><stop offset="1" stop-opacity="0"/></linearGradient><linearGradient id="b" x1="89.663" y1="3.25" x2="90.621" y2="3.25" xlink:href="#a"/><radialGradient id="g" cx="-551.826" cy="-8344.818" r="37.211" gradientTransform="translate(3730.152 -10511.812) rotate(-90) scale(1.211 0.537)" gradientUnits="userSpaceOnUse"><stop offset="0" stop-color="#fff"/><stop offset="1" stop-color="#f9f9f9"/></radialGradient><radialGradient id="h" cx="-342.179" cy="-8038.646" r="37.325" gradientTransform="translate(3803.13 -9903.317) rotate(-90) scale(1.213 0.536)" xlink:href="#g"/></defs><g transform="translate(-995.022 -907.455)"><g transform="translate(1000.112 952.803)"><rect class="a" width="38.188" height="427.474"/><g transform="translate(0.226 0.469)"><rect class="b" width="19.036" height="426.664" transform="translate(0 0.079)"/><rect class="c" width="18.758" height="426.524" transform="translate(37.509 426.524) rotate(180)"/></g></g><g transform="translate(1086.85 953.632)"><rect class="a" width="38.188" height="426.864"/><g transform="translate(0.419 0.468)"><rect class="d" width="18.94" height="426.054" transform="translate(0 0.079)"/><rect class="e" width="18.663" height="425.915" transform="translate(37.319 425.915) rotate(180)"/></g></g><g transform="translate(1043.483 953.793)"><rect class="a" width="38.187" height="426.641" transform="translate(0)"/><g transform="translate(0.444 0.362)"><rect class="f" width="18.917" height="425.878" transform="translate(0 0.111)"/><rect class="g" width="18.64" height="425.684" transform="translate(37.274 425.684) rotate(180)"/></g></g><path class="h" d="M668.621,1005.391v-1.015h.371a1.025,1.025,0,0,1,.547.115.686.686,0,0,0,.742,0,2.478,2.478,0,0,1,1.522,0,1.43,1.43,0,0,0,.419.115.724.724,0,0,0,.323-.115.969.969,0,0,1,.547-.115h.371v2.029h-4.842Z" transform="translate(413.204 377.024)"/><path class="i" d="M629.524,1008.933a1.511,1.511,0,0,1-.1-.305l-.014-.112h6.959l.037.186a.63.63,0,0,1-.008.305l-.045.119h-6.742l-.084-.192Z" transform="translate(372.203 381.358)"/><path class="i" d="M633.322,1008.942a1.394,1.394,0,0,1-.1-.305l-.012-.108,3.56-.021a23.457,23.457,0,0,1,3.56.055,1.617,1.617,0,0,1-.094.317l-.094.25h-6.734l-.087-.2Z" transform="translate(376.177 381.349)"/><path class="i" d="M636.986,1009.268c.012-.031.058-.168.1-.305s.094-.294.115-.351l.039-.1,1.774.021,1.774.021.033.112c.069.238.161.523.194.6s-.081.08-2.009.08a10.367,10.367,0,0,1-2.019-.057Z" transform="translate(380.124 381.351)"/><path class="i" d="M639.35,1008.92a1.185,1.185,0,0,1-.1-.317v-.094l3.56.021,3.56.02-.014.113a1.533,1.533,0,0,1-.1.305l-.084.192h-6.729l-.1-.223Z" transform="translate(382.497 381.351)"/><path class="i" d="M643.131,1009.014a.491.491,0,0,1-.01-.305l.041-.192h6.961l-.015.107a1.587,1.587,0,0,1-.1.305l-.085.2h-6.74l-.051-.113Z" transform="translate(386.521 381.359)"/><path class="i" d="M650.736,1008.981c-.2-.518-.385-.491,3.383-.491h3.471l.059.234c.123.49.132.489-3.488.489h-3.336l-.088-.232Z" transform="translate(394.412 381.331)"/><path class="i" d="M654.9,1009.153a.533.533,0,0,1-.47-.568A33.3,33.3,0,0,1,658,1008.5c3.385,0,3.571,0,3.571.164a.634.634,0,0,1-.113.317c-.1.137-.424.156-3.187.178-1.691.02-3.208,0-3.372,0Z" transform="translate(398.366 381.343)"/><path class="i" d="M658.232,1009.241a3.288,3.288,0,0,1,.095-.407l.094-.339h3.586l.134.407.134.407h-2.022a15.311,15.311,0,0,1-2.021-.068Z" transform="translate(402.341 381.336)"/><path class="i" d="M661.389,1009.153c-.707-.027-.9-.133-.9-.489,0-.156.186-.164,3.571-.164s3.571,0,3.571.164a.7.7,0,0,1-.128.339c-.122.168-.259.176-2.78.176-1.458,0-2.957-.02-3.33-.025Z" transform="translate(404.697 381.342)"/><path class="i" d="M664.668,1009.128c-.281-.041-.316-.076-.316-.317v-.271l3.5-.025c3.757-.025,3.625-.043,3.386.43l-.114.226h-3.071c-1.689,0-3.213-.021-3.387-.045Z" transform="translate(408.741 381.347)"/><path class="h" d="M649.88,1003.92l37.982.063.021,6.7-1.427,3.582-35.119-.108-1.426-3.585Z" transform="translate(393.607 376.552)"/><path class="i" d="M671.97,1008.974c-.191-.5-.368-.478,3.387-.478,3.447,0,3.47,0,3.519.19.075.288-.022.442-.287.454-.131,0-1.656.021-3.388.033l-3.149.02-.083-.218Z" transform="translate(416.62 381.337)"/><path class="i" d="M676.126,1009.153c-.322-.029-.433-.166-.437-.539,0-.088.773-.112,3.57-.112a31.526,31.526,0,0,1,3.571.086,1.19,1.19,0,0,1-.1.316c-.1.217-.145.23-.791.234-.377,0-1.764.021-3.082.025-1.318.02-2.544,0-2.726,0Z" transform="translate(420.595 381.343)"/><path class="i" d="M679.47,1009.155a3.179,3.179,0,0,0,.111-.407l.05-.249h3.661l.05.249a3.166,3.166,0,0,0,.111.407c.057.147-.073.157-1.992.157s-2.049-.021-1.992-.157Z" transform="translate(424.538 381.341)"/><path class="i" d="M682.633,1009.154c-.736-.027-.739-.027-.836-.307a3.192,3.192,0,0,1-.1-.313c0-.021,1.627-.033,3.616-.033s3.616.021,3.616.033a2.9,2.9,0,0,1-.1.316c-.085.244-.147.287-.429.3-.555.029-4.984.031-5.769,0Z" transform="translate(426.879 381.342)"/><path class="i" d="M685.923,1009.151c-.321-.037-.395-.129-.338-.427l.042-.22h7.018l-.082.283a1.254,1.254,0,0,1-.137.339c-.057.057-6.019.08-6.5.025Z" transform="translate(430.925 381.345)"/><path class="h" d="M671.161,1003.92l37.982.063.021,6.7-1.427,3.582-35.119-.108-1.426-3.585Z" transform="translate(415.86 376.552)"/><path class="h" d="M647.287,1005.244v-.948h.46a1.953,1.953,0,0,1,.654.092.844.844,0,0,0,.591,0,6.351,6.351,0,0,1,1.989.035c.253.035.382.025.382-.033s.2-.084.51-.084h.51v1.9h-5.1v-.948Z" transform="translate(390.896 376.946)"/><path class="h" d="M628.659,1003.97l37.982.063.021,6.7-1.427,3.582-35.119-.108-1.426-3.585Z" transform="translate(371.418 376.604)"/><g transform="translate(999.986 907.455)"><path class="j" d="M615.41,836.156c0-.328.148-2.349.329-4.493,1.217-14.435,1.53-19.6,5.331-27.4,3.768-7.728,8.3-12.025,11.677-13.195,3.659-1.267,8.23,1.466,12.639,9.127a69.487,69.487,0,0,1,5.538,11.9c.962,3.051,1.425,8,2.03,13.641.268,2.5.407,10.006.407,10.652v.355H615.41Z" transform="translate(-528.363 -790.604)"/><path class="k" d="M572.964,836.24a33.224,33.224,0,0,1-.033-4.6c1.217-14.493,1.935-19.476,5.736-27.3,3.769-7.759,8.252-12.187,11.633-13.361,3.659-1.272,8.4,1.676,12.814,9.368A66.982,66.982,0,0,1,608.4,812.22c.962,3.063,1.538,7.778,2.142,13.438.268,2.512.376,10.174.376,10.823v.357H572.964Z" transform="translate(-572.858 -790.69)"/></g><g transform="translate(1006.953 1390.865)"><g transform="translate(86.941 0)"><g transform="translate(0 0)"><path class="l" d="M458.165,1042.315c-.4-.984-.928-2.128-1.455-3.153l-.2-.4.085-.157c.148-.273.488-.866.693-1.207l.073-.12h2.02l.079.13c.176.291.629,1.08.737,1.284l.037.07-.107.2c-.574,1.1-1.149,2.338-1.612,3.482l-.078.192H458.3l-.133-.327h0Z" transform="translate(-456.506 -1036.949)"/><path class="l" d="M468.143,1042.154c-.4-.984-.928-2.128-1.455-3.153l-.2-.4.085-.157c.148-.273.488-.866.693-1.207l.073-.12h2.02l.079.13c.176.292.629,1.081.737,1.285l.037.07-.107.2c-.574,1.1-1.149,2.338-1.612,3.482l-.078.192h-.135l-.133-.327h0Z" transform="translate(-446.072 -1037.118)"/></g><path class="l" d="M462.49,1040.937c.166-.323.475-.9.688-1.275l.387-.688-.456-.8-.456-.8h-.783c-.668,0-.783-.023-.783-.084s-.065-.08-.338-.068c-.32.023-.344.027-.45.209l-.112.192.586,1.118c.322.615.756,1.492.964,1.948a7.129,7.129,0,0,0,.414.833,3.743,3.743,0,0,0,.337-.585Z" transform="translate(-452.654 -1037.017)"/><path class="l" d="M464.171,1040.917c-.166-.323-.476-.9-.688-1.275l-.387-.687.456-.8.456-.8h.783c.668,0,.783-.023.783-.085s.065-.08.338-.068c.32.022.344.027.45.209l.112.192-.586,1.118c-.322.615-.756,1.492-.964,1.948a7.115,7.115,0,0,1-.414.833,3.773,3.773,0,0,1-.337-.585Z" transform="translate(-449.614 -1037.037)"/><path class="l" d="M460.05,1049.618c0-.027.172-.787.2-.87.361-4.647.735-3.682,2.214-6.5a30.806,30.806,0,0,1,1.566-3.143l.285-.5v-1.295h1.4v1.312l.3.524c.313.549,1.178,2.236,1.379,2.69l.117.264a43.914,43.914,0,0,1,2.344,7.01c.048.216.087.423.087.461,0,.068-.008.068-4.944.068-2.719,0-4.944,0-4.944-.023Z" transform="translate(-452.8 -1036.918)"/></g><g transform="translate(43.466 0.004)"><path class="m" d="M456.972,1032.149c-.4-.974-.926-2.107-1.451-3.123l-.2-.394.084-.156c.148-.27.487-.857.691-1.2l.073-.119h2.015l.079.129c.176.288.627,1.07.735,1.272l.037.07-.107.2c-.573,1.085-1.146,2.315-1.607,3.448l-.077.19H457.1l-.132-.323h0Z" transform="translate(-455.317 -1026.835)"/><path class="m" d="M466.924,1031.988c-.4-.974-.926-2.107-1.451-3.122l-.2-.395.085-.156c.148-.271.487-.857.691-1.2l.073-.119h2.015l.079.129c.176.288.627,1.07.735,1.272l.037.07-.107.2c-.573,1.085-1.146,2.315-1.607,3.448l-.077.19h-.135l-.133-.323h0Z" transform="translate(-444.91 -1027.002)"/><path class="m" d="M461.286,1030.783c.165-.319.474-.888.686-1.263l.386-.681-.454-.793-.454-.793h-.781c-.666,0-.781-.022-.781-.084s-.064-.08-.337-.067c-.319.022-.343.027-.449.207l-.111.19.585,1.107c.322.609.754,1.477.962,1.929a7.033,7.033,0,0,0,.413.825,3.716,3.716,0,0,0,.336-.579Z" transform="translate(-451.475 -1026.901)"/><path class="m" d="M462.962,1030.763c-.165-.319-.474-.888-.686-1.263l-.386-.681.454-.793.454-.793h.781c.666,0,.781-.023.781-.084s.064-.08.337-.068c.319.023.343.027.449.207l.111.19-.585,1.107c-.321.609-.754,1.477-.962,1.93a7,7,0,0,1-.413.825,3.723,3.723,0,0,1-.336-.579Z" transform="translate(-448.443 -1026.922)"/><path class="m" d="M458.852,1039.38c0-.027.172-.78.2-.862.36-4.6.733-3.646,2.208-6.438a30.382,30.382,0,0,1,1.562-3.112l.284-.494v-1.282H464.5v1.3l.3.519c.312.543,1.175,2.214,1.375,2.664l.116.261a43.277,43.277,0,0,1,2.338,6.942c.048.214.087.419.087.457,0,.067-.008.067-4.931.067-2.712,0-4.931,0-4.931-.022Z" transform="translate(-451.62 -1026.804)"/></g><g transform="translate(0 0.004)"><path class="n" d="M459.507,1032.149c-.4-.974-.931-2.107-1.459-3.123l-.205-.394.085-.156c.148-.27.489-.857.7-1.2l.073-.119h2.026l.079.129c.176.288.63,1.07.739,1.272l.037.07-.107.2c-.576,1.085-1.153,2.315-1.616,3.448l-.078.19h-.135l-.133-.323h0Z" transform="translate(-457.843 -1026.835)"/><path class="n" d="M469.514,1031.988c-.4-.974-.931-2.107-1.459-3.122l-.205-.395.085-.156c.148-.271.489-.857.7-1.2l.073-.119h2.026l.079.129c.177.288.631,1.07.739,1.272l.037.07-.107.2c-.576,1.085-1.153,2.315-1.616,3.448l-.078.19h-.135l-.133-.323h0Z" transform="translate(-447.378 -1027.002)"/><path class="n" d="M463.845,1030.783c.166-.319.477-.888.69-1.263l.388-.681-.457-.793-.457-.793h-.785c-.67,0-.785-.022-.785-.084s-.065-.08-.339-.067c-.321.022-.345.027-.451.207l-.112.19.588,1.107c.323.609.759,1.477.967,1.929a7.02,7.02,0,0,0,.415.825,3.717,3.717,0,0,0,.338-.579Z" transform="translate(-453.98 -1026.901)"/><path class="n" d="M465.531,1030.763c-.166-.319-.477-.888-.69-1.263l-.388-.681.457-.793.457-.793h.785c.67,0,.785-.023.785-.084s.065-.08.339-.068c.321.023.345.027.451.207l.112.19-.588,1.107c-.323.609-.759,1.477-.967,1.93a7.027,7.027,0,0,1-.415.825,3.707,3.707,0,0,1-.338-.579Z" transform="translate(-450.931 -1026.922)"/><path class="n" d="M461.4,1039.38c0-.027.173-.78.2-.862.362-4.6.737-3.646,2.221-6.438a30.332,30.332,0,0,1,1.571-3.112l.286-.494v-1.282h1.4v1.3l.3.519c.314.543,1.182,2.214,1.383,2.664l.117.261a43.1,43.1,0,0,1,2.351,6.942c.048.214.088.419.088.457,0,.067-.008.067-4.958.067-2.727,0-4.958,0-4.958-.022Z" transform="translate(-454.126 -1026.804)"/></g></g><path class="o" d="M628.648,795.3h38.144" transform="translate(371.406 158.409)"/><path class="o" d="M649.884,1003.94h38.143" transform="translate(393.611 376.573)"/><path class="o" d="M628.648,1003.94h38.144" transform="translate(371.406 376.573)"/><path class="o" d="M709.262,795.3H671.119" transform="translate(415.816 158.409)"/><path class="o" d="M671.119,795.3h38.144" transform="translate(415.816 158.409)"/><path class="o" d="M671.119,1003.94h38.144" transform="translate(415.816 376.573)"/><path class="o" d="M663.8,1009.01H661.72" transform="translate(405.988 381.874)"/><path class="o" d="M651.831,1014.33h10.046" transform="translate(395.648 387.437)"/><path class="o" d="M653.777,1009.01h2.082" transform="translate(397.682 381.874)"/><path class="o" d="M655.7,1010.7q-.427-.858-.9-1.692" transform="translate(398.748 381.878)"/><path class="o" d="M654.237,1009.01q-.474.833-.9,1.691" transform="translate(397.222 381.875)"/><path class="o" d="M657.159,1009.01h1.563" transform="translate(401.219 381.874)"/><path class="o" d="M659.135,1010.829q-.433-.883-.914-1.74" transform="translate(402.33 381.958)"/><path class="o" d="M657.4,1009.01q-.244.43-.476.866" transform="translate(400.975 381.875)"/><path class="o" d="M671.718,1014.33H661.671" transform="translate(405.938 387.437)"/><path class="o" d="M665.7,1009.01h-2.082" transform="translate(407.973 381.874)"/><path class="o" d="M664.079,1009.01q-.474.833-.9,1.692" transform="translate(407.513 381.875)"/><path class="o" d="M665.537,1010.7q-.427-.858-.9-1.691" transform="translate(409.038 381.878)"/><path class="o" d="M662.053,1009.01H660.49" transform="translate(404.702 381.874)"/><path class="o" d="M654.231,1008.33a2.126,2.126,0,0,0,.442,1.4" transform="translate(398.155 381.164)"/><path class="o" d="M657.923,1009.725a2.127,2.127,0,0,0,.442-1.4" transform="translate(402.018 381.159)"/><path class="o" d="M654.446,1009.01h7.113" transform="translate(398.382 381.874)"/><path class="o" d="M660.275,1008.33a2.125,2.125,0,0,0,.442,1.4" transform="translate(404.475 381.164)"/><path class="o" d="M663.967,1009.725a2.128,2.128,0,0,0,.442-1.4" transform="translate(408.337 381.159)"/><path class="o" d="M660.49,1009.01H667.6" transform="translate(404.702 381.874)"/><path class="o" d="M658.221,1009.09h4.034" transform="translate(402.329 381.958)"/><path class="o" d="M657.414,1009.01c.035.055.072.108.112.16" transform="translate(401.485 381.875)"/><path class="o" d="M660.945,1009.171c.039-.051.077-.1.112-.16" transform="translate(405.178 381.877)"/><path class="o" d="M657.468,1009.09h7.113" transform="translate(401.542 381.958)"/><path class="o" d="M660.71,1009.09q-.481.857-.914,1.74" transform="translate(403.977 381.958)"/><path class="o" d="M660.71,1009.09q-.481.857-.914,1.74" transform="translate(403.977 381.958)"/><path class="o" d="M661.729,1009.784q-.208-.388-.425-.771" transform="translate(405.553 381.878)"/><path class="o" d="M668.53,713.118v324.541" transform="translate(413.109 240.675)"/><path class="o" d="M657.138,1014.33q-.2.845-.362,1.7h10.047q-.16-.854-.362-1.7" transform="translate(400.818 387.438)"/><path class="o" d="M657.874,1014.124a35.121,35.121,0,0,1,1.737-3.5v-1.541" transform="translate(401.967 381.956)"/><path class="o" d="M659.741,1009.09v1.54a35.041,35.041,0,0,1,1.682,3.369" transform="translate(403.919 381.958)"/><path class="p" d="M658.839,1015.445a35.137,35.137,0,0,0-2.843-6.427h-2.082a35.122,35.122,0,0,0-3.983,10.876h10.047" transform="translate(393.662 381.883)"/><path class="o" d="M650.434,1008.33a2.125,2.125,0,0,0,.442,1.4h7.113a2.133,2.133,0,0,0,.328-.606" transform="translate(394.184 381.164)"/><path class="o" d="M664.127,1009.126a2.131,2.131,0,0,0,.328.606h7.113a2.126,2.126,0,0,0,.442-1.4" transform="translate(408.505 381.165)"/><path class="p" d="M663.57,1019.889h10.047a35.127,35.127,0,0,0-3.983-10.875h-2.082a35.116,35.116,0,0,0-2.843,6.427" transform="translate(407.923 381.878)"/><path class="p" d="M665.838,1009.01a35.133,35.133,0,0,1,3.983,10.875H659.773a35.127,35.127,0,0,1,3.982-10.876" transform="translate(403.953 381.875)"/><path class="p" d="M657.712,1009.01a35.131,35.131,0,0,0-3.983,10.875h10.047a35.126,35.126,0,0,0-3.983-10.875Z" transform="translate(397.632 381.875)"/><path class="o" d="M642.566,1009.01h-2.082" transform="translate(383.782 381.874)"/><path class="o" d="M630.595,1014.33h10.047" transform="translate(373.442 387.437)"/><path class="o" d="M632.542,1009.01h2.082" transform="translate(375.478 381.874)"/><path class="o" d="M634.46,1010.7q-.427-.858-.9-1.691" transform="translate(376.542 381.878)"/><path class="o" d="M633,1009.01q-.473.833-.9,1.692" transform="translate(375.017 381.875)"/><path class="o" d="M635.924,1009.01h1.563" transform="translate(379.014 381.874)"/><path class="o" d="M637.9,1010.829q-.433-.883-.914-1.74" transform="translate(380.124 381.958)"/><path class="o" d="M636.167,1009.01q-.244.43-.476.866" transform="translate(378.771 381.875)"/><path class="o" d="M650.484,1014.33H640.436" transform="translate(383.733 387.437)"/><path class="o" d="M644.465,1009.01h-2.082" transform="translate(385.768 381.874)"/><path class="o" d="M642.843,1009.01q-.473.833-.9,1.691" transform="translate(385.308 381.875)"/><path class="o" d="M644.3,1010.7q-.427-.858-.9-1.692" transform="translate(386.832 381.878)"/><path class="o" d="M640.818,1009.01h-1.563" transform="translate(382.497 381.874)"/><path class="o" d="M633,1008.33a2.125,2.125,0,0,0,.442,1.4" transform="translate(375.951 381.164)"/><path class="o" d="M636.688,1009.725a2.128,2.128,0,0,0,.442-1.4" transform="translate(379.813 381.159)"/><path class="o" d="M633.211,1009.01h7.113" transform="translate(376.177 381.874)"/><path class="o" d="M639.04,1008.33a2.126,2.126,0,0,0,.442,1.4" transform="translate(382.27 381.164)"/><path class="o" d="M642.732,1009.725a2.126,2.126,0,0,0,.442-1.4" transform="translate(386.133 381.159)"/><path class="o" d="M639.255,1009.01h7.113" transform="translate(382.497 381.874)"/><path class="o" d="M636.986,1009.09h4.034" transform="translate(380.125 381.958)"/><path class="o" d="M636.178,1009.01c.035.055.072.108.112.16" transform="translate(379.28 381.875)"/><path class="o" d="M639.71,1009.171c.04-.052.077-.1.112-.16" transform="translate(382.973 381.877)"/><path class="o" d="M636.233,1009.09h7.113" transform="translate(379.338 381.958)"/><path class="o" d="M639.474,1009.09q-.481.857-.914,1.74" transform="translate(381.771 381.958)"/><path class="o" d="M639.474,1009.09q-.481.857-.914,1.74" transform="translate(381.771 381.958)"/><path class="o" d="M640.494,1009.784q-.208-.388-.425-.771" transform="translate(383.349 381.878)"/><path class="o" d="M635.9,1014.33q-.2.845-.362,1.7h10.047q-.16-.854-.362-1.7" transform="translate(378.614 387.438)"/><path class="o" d="M636.639,1014.124a35.173,35.173,0,0,1,1.737-3.5v-1.541" transform="translate(379.762 381.956)"/><path class="o" d="M638.5,1009.09v1.54a35.085,35.085,0,0,1,1.682,3.369" transform="translate(381.713 381.958)"/><path class="p" d="M637.6,1015.445a35.137,35.137,0,0,0-2.843-6.427h-2.082a35.121,35.121,0,0,0-3.982,10.876h10.047" transform="translate(371.457 381.883)"/><path class="o" d="M629.2,1008.33a2.127,2.127,0,0,0,.442,1.4h7.113a2.135,2.135,0,0,0,.328-.606" transform="translate(371.98 381.164)"/><path class="o" d="M642.892,1009.126a2.128,2.128,0,0,0,.327.606h7.113a2.125,2.125,0,0,0,.442-1.4" transform="translate(386.3 381.165)"/><path class="p" d="M642.335,1019.889h10.047a35.128,35.128,0,0,0-3.983-10.875h-2.082a35.119,35.119,0,0,0-2.843,6.427" transform="translate(385.718 381.878)"/><path class="p" d="M644.6,1009.01a35.128,35.128,0,0,1,3.983,10.875H638.537a35.127,35.127,0,0,1,3.982-10.876" transform="translate(381.747 381.875)"/><path class="p" d="M636.477,1009.01a35.126,35.126,0,0,0-3.983,10.875h10.047a35.134,35.134,0,0,0-3.982-10.875Z" transform="translate(375.428 381.875)"/><path class="o" d="M685.037,1009.01h-2.082" transform="translate(428.193 381.874)"/><path class="o" d="M673.066,1014.33h10.047" transform="translate(417.852 387.437)"/><path class="o" d="M675.013,1009.01h2.082" transform="translate(419.888 381.874)"/><path class="o" d="M676.931,1010.7q-.427-.858-.9-1.691" transform="translate(420.952 381.878)"/><path class="o" d="M675.473,1009.01q-.473.833-.9,1.692" transform="translate(419.428 381.875)"/><path class="o" d="M678.395,1009.01h1.563" transform="translate(423.425 381.874)"/><path class="o" d="M680.37,1010.829q-.432-.883-.914-1.74" transform="translate(424.534 381.958)"/><path class="o" d="M678.638,1009.01q-.244.43-.476.866" transform="translate(423.181 381.875)"/><path class="o" d="M692.955,1014.33H682.907" transform="translate(428.143 387.437)"/><path class="o" d="M686.936,1009.01h-2.082" transform="translate(430.178 381.874)"/><path class="o" d="M685.314,1009.01q-.474.833-.9,1.691" transform="translate(429.718 381.875)"/><path class="o" d="M686.772,1010.7q-.427-.858-.9-1.691" transform="translate(431.242 381.878)"/><path class="o" d="M683.289,1009.01h-1.563" transform="translate(426.907 381.874)"/><path class="o" d="M675.467,1008.33a2.126,2.126,0,0,0,.442,1.4" transform="translate(420.36 381.164)"/><path class="o" d="M679.159,1009.725a2.126,2.126,0,0,0,.442-1.4" transform="translate(424.223 381.159)"/><path class="o" d="M675.682,1009.01h7.113" transform="translate(420.588 381.874)"/><path class="o" d="M681.511,1008.33a2.125,2.125,0,0,0,.442,1.4" transform="translate(426.681 381.164)"/><path class="o" d="M685.2,1009.725a2.127,2.127,0,0,0,.442-1.4" transform="translate(430.543 381.159)"/><path class="o" d="M681.726,1009.01h7.113" transform="translate(426.908 381.874)"/><path class="o" d="M679.456,1009.09h4.034" transform="translate(424.534 381.958)"/><path class="o" d="M678.649,1009.01q.052.082.112.159" transform="translate(423.69 381.875)"/><path class="o" d="M682.181,1009.171c.04-.051.077-.1.112-.16" transform="translate(427.384 381.877)"/><path class="o" d="M678.7,1009.09h7.113" transform="translate(423.748 381.958)"/><path class="o" d="M681.945,1009.09q-.481.857-.914,1.74" transform="translate(426.181 381.958)"/><path class="o" d="M681.945,1009.09q-.481.857-.914,1.74" transform="translate(426.181 381.958)"/><path class="o" d="M682.964,1009.784q-.208-.388-.425-.771" transform="translate(427.758 381.878)"/><path class="o" d="M678.373,1014.33q-.2.845-.362,1.7h10.047q-.16-.854-.362-1.7" transform="translate(423.022 387.438)"/><path class="o" d="M679.109,1014.124a35.071,35.071,0,0,1,1.737-3.5v-1.54" transform="translate(424.171 381.956)"/><path class="o" d="M680.976,1009.09v1.54a35.053,35.053,0,0,1,1.682,3.369" transform="translate(426.123 381.958)"/><path class="p" d="M680.075,1015.445a35.126,35.126,0,0,0-2.843-6.427H675.15a35.117,35.117,0,0,0-3.983,10.876h10.047" transform="translate(415.867 381.883)"/><path class="o" d="M671.669,1008.33a2.126,2.126,0,0,0,.442,1.4h7.113a2.131,2.131,0,0,0,.328-.606" transform="translate(416.389 381.164)"/><path class="o" d="M685.363,1009.126a2.131,2.131,0,0,0,.328.606H692.8a2.127,2.127,0,0,0,.442-1.4" transform="translate(430.711 381.165)"/><path class="p" d="M684.806,1019.889h10.047a35.119,35.119,0,0,0-3.982-10.875h-2.082a35.108,35.108,0,0,0-2.843,6.427" transform="translate(430.128 381.878)"/><path class="p" d="M687.073,1009.01a35.128,35.128,0,0,1,3.983,10.875H681.008a35.127,35.127,0,0,1,3.983-10.876" transform="translate(426.157 381.875)"/><path class="p" d="M678.947,1009.01a35.126,35.126,0,0,0-3.983,10.875h10.047a35.135,35.135,0,0,0-3.983-10.875Z" transform="translate(419.837 381.875)"/><path class="o" d="M668.53,1005.38h5.3" transform="translate(413.109 378.079)"/><path class="o" d="M628.648,998.514v17h0v.026l.006.108.045.43.076.428.107.423.136.416.165.4.193.39.219.373.029.045.014.023.008.02h36.134l.023-.02.114-.182.21-.379.184-.395.156-.408.127-.419.1-.425.065-.429.035-.43v-17" transform="translate(371.406 370.896)"/><path class="q" d="M630.584,1035.592l.094-.289.161-.317.223-.33.278-.329.327-.312.37-.28.406-.232.437-.17.461-.092h.479l.491.106.5.23.825,2.158.865,2.386.865,2.386.865,2.385.865,2.386.865,2.386.865,2.386.865,2.386.865,2.386.865,2.386.865,2.386.865,2.386.218.58.041.072.045.068.048.062.051.057.054.053.056.049.059.043.061.039.062.035.064.031.065.026.066.023.067.02.067.021h.26l.061,0h.3l.108-.049.106-.1.1-.151.1-.192.1-.231.09-.262.084-.287.077-.308.068-.322.059-.331.049-.335-.4-3.73-.918-7.805-.918-7.805-.918-7.805-.918-7.805-.918-7.805-.918-7.805-.918-7.8-.918-7.805-.918-7.8-.918-7.805L637.239,971l-.6-5.286,0-.513,0-.513,0-.513,0-.513,0-.513,0-.513,0-.513,0-.513,0-.513,0-.513,0-.513-.021-.642-.073-1-.075-.9-.077-.817-.079-.736-.08-.662-.082-.594-.084-.532-.085-.477-.087-.428-.089-.385-.09-.349-.091-.319-.093-.3-.094-.271-.1-.25-.1-.228-.1-.208-.1-.189-.1-.17-.1-.153-.1-.136-.106-.12-.108-.106-.109-.092-.11-.079-.112-.066-.113-.054-.115-.041-.116-.029-.118-.016-.119,0-.12.008-.122.021-.123.033-.125.045-.126.057-.127.069-.128.082-.13.1-.131.109-.133.124-.135.139-.137.154-.139.171-.141.188-.143.205-.146.224-.148.243-.151.262-.153.28-.155.3-.156.31-.156.322-.155.332-.154.34-.151.347-.148.351-.145.353-.141.353-.135.352-.13.348-.123.344-.117.342-.11.34-.1.339-.1.339-.088.341-.079.343-.07.346-.061.35" transform="translate(371.293 319.873)"/><path class="o" d="M647.295,1005.39h5.3" transform="translate(390.904 378.089)"/><path class="q" d="M651.818,1035.592l.094-.289.161-.317.223-.33.278-.329.327-.312.37-.28.406-.232.437-.17.461-.092h.479l.491.106.5.23.825,2.158.865,2.386.865,2.386.865,2.385.865,2.386.865,2.386.865,2.386.865,2.386.865,2.386.865,2.386.865,2.386.865,2.386.218.58.041.072.045.068.048.062.051.057.054.053.056.049.059.043.061.039.062.035.064.031.065.026.066.023.067.02.067.021h.26l.061,0h.3l.108-.049.106-.1.1-.151.1-.192.1-.231.09-.262.084-.287.077-.308.068-.322.059-.331.049-.335-.4-3.73-.918-7.805-.918-7.805-.918-7.805-.918-7.805-.918-7.805-.918-7.805-.918-7.8-.918-7.805-.918-7.8-.918-7.805L658.474,971l-.6-5.286,0-.513,0-.513,0-.513,0-.513,0-.513,0-.513,0-.513,0-.513,0-.513,0-.513,0-.513-.021-.642-.073-1-.075-.9-.077-.817-.079-.736-.08-.662-.082-.594-.084-.532-.085-.477-.087-.428-.089-.385-.09-.349-.091-.319-.093-.3-.094-.271-.1-.25-.1-.228-.1-.208-.1-.189-.1-.17-.1-.153-.1-.136-.106-.12-.107-.106-.109-.092-.11-.079-.112-.066-.113-.054-.115-.041-.116-.029-.118-.016-.119,0-.12.008-.122.021-.123.033-.124.045-.126.057-.127.069-.128.082-.13.1-.131.109-.133.124-.135.139-.137.154-.139.171-.141.188-.143.205-.146.224-.148.243-.151.262-.153.28-.155.3-.156.31-.156.322-.155.332-.153.34-.151.347-.148.351-.145.353-.141.353-.135.352-.13.348-.124.344-.117.342-.11.34-.1.339-.1.339-.088.341-.079.343-.07.346-.062.35" transform="translate(393.498 319.873)"/><path class="o" d="M688.028,998.512v17a6.133,6.133,0,0,1-1,3.086H650.884a6.132,6.132,0,0,1-1-3.086v-17" transform="translate(393.611 370.897)"/><path class="o" d="M671.119,998.514v17h0v.026l.006.108.045.43.076.428.107.423.136.416.165.4.193.39.218.373.029.045.014.023.008.02h36.134l.023-.02.114-.182.21-.379.184-.395.156-.408.127-.419.1-.425.065-.429.035-.43v-17" transform="translate(415.816 370.896)"/><path class="o" d="M633.77,955.938l-2.524-2.674" transform="translate(374.121 323.583)"/><path class="o" d="M633.6,953.264h-4.6" transform="translate(371.768 323.583)"/><path class="r" d="M632.941,1031.89l-.077.44-.076.449-.075.458-.074.466-.073.474-.073.481-.072.488-.071.5-.07.5-.07.509-.069.515-.069.521-.068.526-.068.532-.067.536-.066.541-.066.546-.065.55-.065.554-.065.557-.064.561-.064.563-.126,1.134-.125,1.142-.124,1.148-.244,2.3-.121,1.151-.12,1.147-.12,1.141-.12,1.133-.06.563-.06.56-.06.557-.06.553-.06.549-.06.545-.06.54-.06.536-.06.53-.061.526-.03.26-.008.066,0,.033,0,.021h0l-.015.035-.016.029-.016.025-.016.021-.016.02-.016.02h-.134l-.068-.033-.133-.076-.129-.078-.125-.078-.121-.078-.117-.08-.113-.08-.11-.082-.106-.082-.1-.082-.1-.084-.1-.084-.092-.086-.089-.086-.086-.086-.082-.086-.079-.088-.076-.088-.144-.178-.133-.18-.122-.182-.112-.184-.1-.186-.094-.186-.086-.188-.078-.188-.071-.19-.065-.19-.059-.19-.054-.192-.049-.192-.045-.192-.041-.19-.038-.19-.018-.1-.008-.047,0-.025h0v-.021l0-.115.008-.23.493-14.755.985-29.51.985-29.51.493-14.755.123-3.689.031-.922,0-.058v-.012h0v-.006l0-.012,0-.024.014-.1.03-.19.03-.186.03-.181.03-.177.03-.173.03-.169.03-.165.03-.162.03-.159.031-.156.063-.3.064-.295.066-.288.068-.283.07-.279.073-.278.076-.278.079-.281.083-.284.087-.288.094-.293.1-.3.108-.305.057-.156.06-.157.062-.159.065-.161.068-.164.071-.166.073-.168.076-.171.08-.174.083-.176.086-.179.09-.182.094-.185.1-.188" transform="translate(368.936 323.575)"/><path class="o" d="M628.725,1008.849l.357-49.34" transform="translate(371.487 330.114)"/><path class="o" d="M628.9,962.569l4.42-5.984" transform="translate(371.67 327.056)"/><path class="o" d="M629.979,962.306l-2.112-5.47" transform="translate(370.59 327.318)"/><path class="s" d="M631.06,960.056l.377-6.792" transform="translate(373.928 323.583)"/><path class="o" d="M628.035,1004.26h1.255" transform="translate(370.765 376.907)"/><path class="o" d="M627.959,1004.91h1.409" transform="translate(370.686 377.587)"/><path class="q" d="M655.17,1035.592l-.094-.289-.161-.317-.223-.33-.278-.329-.327-.312-.369-.28-.406-.232-.437-.17-.461-.092h-.479l-.491.106-.5.23-.825,2.158-.865,2.386-.865,2.386-.865,2.385-.865,2.386-.865,2.386-.865,2.386-.865,2.386-.865,2.386-.865,2.386-.865,2.386-.865,2.386-.218.58-.041.072-.045.068-.048.062-.051.057-.054.053-.056.049-.059.043-.061.039-.062.035-.064.031-.065.026-.066.023-.067.02-.067.021h-.26l-.061,0h-.3l-.108-.049-.106-.1-.1-.151-.1-.192-.1-.231-.09-.262-.084-.287-.076-.308-.068-.322-.059-.331-.049-.335.4-3.73.918-7.805.918-7.805.918-7.805.918-7.805.918-7.805.918-7.805.918-7.8.918-7.805.918-7.8.918-7.805.918-7.805.6-5.286,0-.513,0-.513,0-.513,0-.513,0-.513,0-.513,0-.513,0-.513,0-.513,0-.513,0-.513.02-.642.073-1,.075-.9.076-.817.078-.736.08-.662.082-.594.084-.532.085-.477.087-.428.089-.385.09-.349.091-.319.093-.3.094-.271.1-.25.1-.228.1-.208.1-.189.1-.17.1-.153.1-.136.106-.12.107-.106.109-.092.11-.079.112-.066.113-.054.115-.041.116-.029.118-.016.119,0,.12.008.122.021.123.033.124.045.126.057.127.069.128.082.13.1.131.109.133.124.135.139.137.154.139.171.141.188.143.205.146.224.148.243.151.262.153.28.155.3.156.31.156.322.155.332.153.34.151.347.148.351.145.353.141.353.135.352.13.348.124.344.117.342.11.34.1.339.1.339.087.341.079.343.07.346.062.35" transform="translate(381.208 319.873)"/><path class="o" d="M637.666,1004.91h1.252" transform="translate(380.836 377.587)"/><path class="o" d="M626.716,1025.636l.242-3.072.242-3.072.242-3.072.242-3.072.242-3.072.242-3.072.242-3.072.242-3.072.242-3.072.242-3.072.242-3.072.242-3.072.242-3.072.1-.975.068-.244.08-.209.092-.176.1-.145.11-.117.118-.088.124-.063.129-.039.132-.021h.134l.134.021.134.037.132.051.129.066.126.078.123.088.119.1.116.106.113.112.109.119.105.123.1.127.1.129.093.131.089.131.362.9,1.192,3.21,1.192,3.21,1.192,3.21,1.192,3.211,1.192,3.21,1.192,3.21,1.192,3.21,1.192,3.21,1.192,3.21,1.192,3.21,1.192,3.21,1.192,3.21,1.192,3.21" transform="translate(369.386 355.327)"/><path class="o" d="M643.464,955.938l2.525-2.674" transform="translate(386.898 323.583)"/><path class="o" d="M644.7,953.264h4.6" transform="translate(388.189 323.583)"/><path class="o" d="M647.4,1008.849l-.357-49.34" transform="translate(390.642 330.114)"/><path class="q" d="M650.3,989.447l-.292-8.748-.493-14.755-.123-3.689-.031-.922,0-.058v-.012h0v-.006l0-.012,0-.024-.014-.1-.03-.19-.03-.186-.03-.181-.03-.177-.03-.173-.03-.169-.03-.165-.03-.162-.031-.159-.031-.156-.062-.3-.064-.3-.066-.288-.068-.283-.07-.279-.073-.278-.076-.278-.079-.281-.083-.284-.088-.288-.094-.293-.1-.3-.108-.305-.057-.155-.06-.157-.062-.16-.065-.161-.067-.164-.07-.166-.073-.168-.077-.171-.079-.174-.083-.176-.086-.179-.09-.182-.094-.185-.1-.188" transform="translate(390.543 323.582)"/><path class="o" d="M649.3,962.569l-4.42-5.984" transform="translate(388.382 327.056)"/><path class="o" d="M647.043,962.306l2.112-5.47" transform="translate(390.641 327.318)"/><path class="s" d="M645.076,960.056l-.377-6.792" transform="translate(388.189 323.583)"/><path class="o" d="M648.55,1004.26h-1.255" transform="translate(390.904 376.907)"/><path class="o" d="M648.7,1004.91H647.3" transform="translate(390.904 377.587)"/><path class="s" d="M646.405,991.7l.076.44.076.449.075.458.074.466.073.474.073.481.072.488.071.5.071.5.07.509.069.515.069.521.068.526.068.531.067.537.066.541.066.546.065.55.065.554.064.557.064.56.064.563.126,1.134.125,1.142.124,1.148.244,2.3.121,1.151.121,1.147.016.158" transform="translate(389.974 363.77)"/><path class="o" d="M655,955.938l-2.524-2.674" transform="translate(396.326 323.583)"/><path class="o" d="M654.833,953.264h-4.6" transform="translate(393.973 323.583)"/><path class="r" d="M654.175,1031.89l-.077.44-.076.449-.075.458-.074.466-.073.474-.073.481-.072.488-.071.5-.07.5-.07.509-.069.515-.069.521-.068.526-.068.532-.067.536-.066.541-.066.546-.065.55-.065.554-.064.557-.064.561-.064.563-.126,1.134-.125,1.142-.124,1.148-.244,2.3-.121,1.151-.12,1.147-.12,1.141-.12,1.133-.06.563-.06.56-.06.557-.06.553-.06.549-.06.545-.06.54-.06.536-.061.53-.061.526-.03.26-.008.066,0,.033,0,.021h0l-.014.035-.016.029-.016.025-.016.021-.016.02-.016.02h-.133l-.068-.033-.133-.076-.129-.078-.125-.078-.121-.078-.117-.08-.113-.08-.11-.082-.106-.082-.1-.082-.1-.084-.1-.084-.092-.086-.089-.086-.086-.086-.082-.086-.079-.088-.076-.088-.144-.178-.133-.18-.122-.182-.112-.184-.1-.186-.094-.186-.086-.188-.078-.188-.071-.19-.065-.19-.059-.19-.054-.192-.049-.192-.045-.192-.041-.19-.038-.19-.018-.1-.008-.047,0-.025h0v-.021l0-.115.008-.23.493-14.755.985-29.51.985-29.51.493-14.755.123-3.689.031-.922,0-.058v-.012h0v-.006l0-.012,0-.024.014-.1.03-.19.03-.186.03-.181.03-.177.03-.173.03-.169.03-.165.03-.162.031-.159.031-.156.063-.3.064-.295.066-.288.068-.283.07-.279.073-.278.076-.278.079-.281.083-.284.088-.288.094-.293.1-.3.108-.305.057-.156.06-.157.062-.159.065-.161.068-.164.07-.166.073-.168.077-.171.08-.174.083-.176.087-.179.09-.182.094-.185.1-.188" transform="translate(391.141 323.575)"/><path class="o" d="M649.961,1008.849l.357-49.34" transform="translate(393.692 330.114)"/><path class="o" d="M650.135,962.569l4.42-5.984" transform="translate(393.874 327.056)"/><path class="o" d="M651.214,962.306l-2.112-5.47" transform="translate(392.795 327.318)"/><path class="s" d="M652.3,960.056l.377-6.792" transform="translate(396.134 323.583)"/><path class="o" d="M649.27,1004.26h1.255" transform="translate(392.969 376.907)"/><path class="o" d="M649.195,1004.91H650.6" transform="translate(392.891 377.587)"/><path class="q" d="M676.405,1035.592l-.094-.289-.161-.317-.223-.33-.278-.329-.327-.312-.37-.28-.406-.232-.437-.17-.461-.092h-.479l-.491.106-.5.23-.825,2.158-.865,2.386-.865,2.386-.865,2.385-.865,2.386-.865,2.386-.865,2.386-.865,2.386-.865,2.386-.865,2.386-.865,2.386-.865,2.386-.218.58-.041.072-.045.068-.048.062-.051.057-.054.053-.057.049-.059.043-.061.039-.062.035-.064.031-.065.026-.066.023-.067.02-.067.021h-.26l-.061,0h-.3l-.108-.049-.106-.1-.1-.151-.1-.192-.1-.231-.09-.262-.084-.287-.076-.308-.068-.322-.059-.331-.049-.335.4-3.73.918-7.805.918-7.805.918-7.805.918-7.805.918-7.805.918-7.805.918-7.8.918-7.805.918-7.8.918-7.805L669.75,971l.6-5.286,0-.513,0-.513,0-.513,0-.513,0-.513,0-.513,0-.513,0-.513,0-.513,0-.513,0-.513.021-.642.073-1,.075-.9.077-.817.078-.736.08-.662.082-.594.084-.532.085-.477.087-.428.088-.385.09-.349.091-.319.093-.3.094-.271.1-.25.1-.228.1-.208.1-.189.1-.17.1-.153.1-.136.106-.12.107-.106.109-.092.11-.079.112-.066.113-.054.115-.041.116-.029.117-.016.119,0,.12.008.122.021.123.033.124.045.125.057.127.069.128.082.13.1.131.109.133.124.135.139.137.154.139.171.141.188.143.205.146.224.148.243.151.262.153.28.155.3.156.31.156.322.155.332.153.34.151.347.148.351.145.353.14.353.136.352.13.348.124.344.117.342.11.34.1.339.1.339.087.341.079.343.07.346.062.35" transform="translate(403.413 319.873)"/><path class="o" d="M658.9,1004.91h1.252" transform="translate(403.041 377.587)"/><path class="o" d="M647.952,1025.636l.242-3.072.242-3.072.242-3.072.242-3.072.242-3.072.242-3.072.242-3.072.242-3.072.242-3.072.242-3.072.242-3.072.242-3.072.242-3.072.1-.975.068-.244.08-.209.092-.176.1-.145.111-.117.118-.088.124-.063.129-.039.132-.021h.134l.135.021.134.037.132.051.129.066.126.078.123.088.119.1.116.106.113.112.109.119.105.123.1.127.1.129.093.131.089.131.362.9,1.192,3.21,1.192,3.21,1.192,3.21,1.192,3.211,1.192,3.21,1.192,3.21,1.192,3.21,1.192,3.21,1.192,3.21,1.192,3.21,1.192,3.21,1.192,3.21,1.192,3.21" transform="translate(391.591 355.327)"/><path class="o" d="M664.7,955.938l2.524-2.674" transform="translate(409.104 323.583)"/><path class="o" d="M665.934,953.264h4.6" transform="translate(410.395 323.583)"/><path class="r" d="M667.64,1031.89l.076.44.076.449.075.458.074.466.073.474.073.481.072.488.071.5.071.5.07.509.069.515.069.521.068.526.068.532.067.536.066.541.066.546.065.55.065.554.065.557.064.561.064.563.126,1.134.125,1.142.124,1.148.244,2.3.121,1.151.121,1.147.12,1.141.12,1.133.06.563.06.56.06.557.06.553.06.549.06.545.06.54.06.536.061.53.061.526.031.26.008.066,0,.033,0,.021h0l.015.035.016.029.016.025.016.021.016.02.016.02h.133l.068-.033.133-.076.129-.078.125-.078.121-.078.117-.08.113-.08.11-.082.106-.082.1-.082.1-.084.1-.084.092-.086.089-.086.085-.086.082-.086.079-.088.076-.088.144-.178.133-.18.122-.182.112-.184.1-.186.094-.186.086-.188.078-.188.071-.19.065-.19.059-.19.054-.192.049-.192.045-.192.041-.19.039-.19.018-.1.008-.047,0-.025h0v-.021l0-.115-.008-.23-.493-14.755-.985-29.51-.985-29.51-.493-14.755-.123-3.689-.031-.922,0-.058v-.012h0v-.006l0-.012,0-.024-.015-.1-.03-.19-.03-.186-.03-.181-.03-.177-.03-.173-.03-.169-.03-.165-.03-.162-.03-.159-.031-.156-.063-.3-.064-.295-.066-.288-.068-.283-.07-.279-.073-.278-.076-.278-.079-.281-.083-.284-.088-.288-.093-.293-.1-.3-.108-.305-.057-.156-.06-.157-.062-.159-.065-.161-.068-.164-.07-.166-.073-.168-.077-.171-.079-.174-.083-.176-.087-.179-.09-.182-.094-.185-.1-.188" transform="translate(412.178 323.575)"/><path class="o" d="M668.635,1008.849l-.357-49.34" transform="translate(412.846 330.114)"/><path class="o" d="M670.538,962.569l-4.42-5.984" transform="translate(410.588 327.056)"/><path class="o" d="M668.279,962.306l2.112-5.47" transform="translate(412.847 327.318)"/><path class="s" d="M666.311,960.056l-.377-6.792" transform="translate(410.394 323.583)"/><path class="o" d="M669.786,1004.26H668.53" transform="translate(413.109 376.907)"/><path class="o" d="M669.939,1004.91h-1.41" transform="translate(413.109 377.587)"/><path class="o" d="M681.667,1025.636l-.242-3.072-.242-3.072-.242-3.072-.242-3.072-.242-3.072-.242-3.072-.242-3.072-.242-3.072-.242-3.072-.242-3.072L679,991.842l-.242-3.072-.242-3.072-.1-.975-.068-.244-.08-.209-.092-.176-.1-.145-.11-.117-.118-.088-.124-.063-.129-.039-.132-.021h-.134l-.135.021-.134.037-.132.051-.129.066-.126.078-.123.088-.12.1-.116.106-.113.112-.109.119-.105.123-.1.127-.1.129-.093.131-.089.131-.362.9-1.192,3.21-1.192,3.21-1.192,3.21-1.192,3.211-1.192,3.21-1.192,3.21-1.192,3.21-1.192,3.21-1.192,3.21-1.192,3.21-1.192,3.21-1.192,3.21-1.192,3.21" transform="translate(403.924 355.327)"/><path class="q" d="M673.053,1035.592l.094-.289.161-.317.223-.33.278-.329.327-.312.37-.28.406-.232.437-.17.461-.092h.479l.491.106.5.23.825,2.158.865,2.386.865,2.386.865,2.385.865,2.386.865,2.386.865,2.386.865,2.386.865,2.386.865,2.386.865,2.386.865,2.386.218.58.041.072.045.068.048.062.051.057.054.053.056.049.059.043.061.039.062.035.064.031.065.026.066.023.067.02.067.021h.26l.061,0h.3l.108-.049.106-.1.1-.151.1-.192.1-.231.091-.262.084-.287.077-.308.068-.322.059-.331.049-.335-.4-3.73-.918-7.805-.918-7.805-.918-7.805-.918-7.805-.918-7.805-.918-7.805-.918-7.8-.918-7.805-.918-7.8-.918-7.805L679.709,971l-.6-5.286,0-.513,0-.513,0-.513,0-.513,0-.513,0-.513,0-.513,0-.513,0-.513,0-.513,0-.513-.021-.642-.073-1-.075-.9-.076-.817-.079-.736-.08-.662-.082-.594-.084-.532-.085-.477-.087-.428-.089-.385-.09-.349-.091-.319-.093-.3-.094-.271-.1-.25-.1-.228-.1-.208-.1-.189-.1-.17-.1-.153-.1-.136-.106-.12-.107-.106-.109-.092-.11-.079-.112-.066-.113-.054-.115-.041-.116-.029-.118-.016-.119,0-.12.008-.122.021-.123.033-.125.045-.126.057-.127.069-.128.082-.13.1-.131.109-.133.124-.135.139-.137.154-.139.171-.141.188-.143.205-.146.224-.148.243-.151.262-.153.28-.155.3-.156.31-.156.322-.155.332-.154.34-.151.347-.148.351-.145.353-.141.353-.135.352-.13.348-.124.344-.117.342-.11.34-.1.339-.1.339-.087.341-.079.343-.07.346-.062.35" transform="translate(415.702 319.873)"/><path class="o" d="M676.239,955.938l-2.524-2.674" transform="translate(418.531 323.583)"/><path class="o" d="M676.068,953.264h-4.6" transform="translate(416.177 323.583)"/><path class="o" d="M671.2,1008.849l.357-49.34" transform="translate(415.897 330.114)"/><path class="o" d="M671.37,962.569l4.42-5.984" transform="translate(416.078 327.056)"/><path class="o" d="M672.449,962.306l-2.112-5.47" transform="translate(414.999 327.318)"/><path class="s" d="M673.531,960.056l.377-6.792" transform="translate(418.338 323.583)"/><path class="o" d="M670.5,1004.26h1.255" transform="translate(415.174 376.907)"/><path class="o" d="M670.43,1004.91h1.409" transform="translate(415.096 377.587)"/><path class="o" d="M680.135,1004.91h1.252" transform="translate(425.245 377.587)"/><path class="s" d="M673.237,991.7l-.077.44-.076.449-.075.458-.074.466-.073.474-.073.481-.072.488-.071.5-.071.5-.07.509-.069.515-.068.521-.068.526-.068.531-.067.537-.066.541-.066.546-.065.55-.065.554-.064.557-.064.56-.064.563-.126,1.134-.125,1.142-.124,1.148-.244,2.3-.121,1.151-.12,1.147-.016.158" transform="translate(415.519 363.77)"/><path class="o" d="M670.405,993.247h0l.173-1.4.242-3.072.242-3.072.1-.975.068-.244.08-.209.092-.176.1-.145.11-.117.118-.088.124-.063.129-.039.132-.021h.134l.135.021.134.037.132.051.129.065.126.078.123.088.12.1.116.106.113.113.109.119.105.123.1.127.1.129.093.131.089.131.362.9,1.192,3.21,1.192,3.21,1.192,3.21,1.192,3.21,1.192,3.21,1.192,3.21,1.192,3.21,1.192,3.21,1.192,3.21,1.192,3.21,1.192,3.21,1.192,3.21,1.192,3.21" transform="translate(415.07 355.33)"/><path class="q" d="M697.641,1035.592l-.094-.289-.161-.317-.223-.33-.278-.329-.327-.312-.37-.28-.406-.232-.437-.17-.461-.092H694.4l-.491.106-.5.23-.825,2.158-.865,2.386-.865,2.386-.865,2.385-.865,2.386-.865,2.386-.865,2.386-.865,2.386-.865,2.386-.865,2.386-.865,2.386-.865,2.386-.218.58-.041.072-.045.068-.048.062-.051.057-.054.053-.056.049-.059.043-.061.039-.062.035-.064.031-.065.026-.066.023-.067.02-.067.021h-.26l-.061,0h-.3l-.108-.049-.106-.1-.1-.151-.1-.192-.1-.231-.09-.262-.084-.287-.076-.308-.068-.322-.059-.331-.049-.335.4-3.73.918-7.805.918-7.805.918-7.805.918-7.805.918-7.805.918-7.805.918-7.8.918-7.805.918-7.8.918-7.805.918-7.805.6-5.286,0-.513,0-.513,0-.513,0-.513,0-.513,0-.513,0-.513,0-.513,0-.513,0-.513,0-.513.021-.642.073-1,.075-.9.076-.817.079-.736.08-.662.082-.594.084-.532.085-.477.087-.428.088-.385.09-.349.091-.319.093-.3.094-.271.1-.25.1-.228.1-.208.1-.189.1-.17.1-.153.1-.136.106-.12.107-.106.109-.092.11-.079.112-.066.113-.054.115-.041.116-.029.117-.016.119,0,.12.008.122.021.123.033.124.045.125.057.127.069.128.082.13.1.131.109.133.124.135.139.137.154.139.171.141.188.143.205.146.224.148.243.151.262.153.28.155.3.156.31.156.322.155.332.153.34.151.347.148.351.145.353.141.353.135.352.13.348.124.344.117.342.11.34.1.339.1.339.087.341.079.343.07.346.062.35" transform="translate(425.617 319.873)"/><path class="o" d="M685.935,955.938l2.524-2.674" transform="translate(431.309 323.583)"/><path class="o" d="M687.169,953.264h4.6" transform="translate(432.599 323.583)"/><path class="r" d="M688.875,1031.89l.076.44.076.449.075.458.074.466.073.474.073.481.072.488.071.5.071.5.07.509.069.515.068.521.068.526.068.532.067.536.067.541.066.546.065.55.065.554.064.557.064.561.064.563.126,1.134.125,1.142.124,1.148.244,2.3.121,1.151.12,1.147.12,1.141.12,1.133.06.563.06.56.06.557.06.553.06.549.06.545.06.54.06.536.061.53.061.526.031.26.008.066,0,.033,0,.021h0l.014.035.016.029.016.025.016.021.016.02.016.02h.134l.068-.033.133-.076.129-.078.125-.078.121-.078.117-.08.113-.08.109-.082.106-.082.1-.082.1-.084.1-.084.092-.086.089-.086.085-.086.083-.086.079-.088.076-.088.144-.178.133-.18.122-.182.112-.184.1-.186.094-.186.086-.188.078-.188.071-.19.065-.19.059-.19.054-.192.049-.192.045-.192.042-.19.038-.19.018-.1.008-.047,0-.025h0v-.021l0-.115-.008-.23-.493-14.755-.985-29.51-.985-29.51-.493-14.755-.123-3.689-.031-.922,0-.058v-.012h0v-.006l0-.012,0-.024-.015-.1-.03-.19-.03-.186-.03-.181-.03-.177-.03-.173-.03-.169-.03-.165-.03-.162-.031-.159-.031-.156-.063-.3-.064-.295-.066-.288-.068-.283-.07-.279-.073-.278-.076-.278-.079-.281-.083-.284-.088-.288-.093-.293-.1-.3-.108-.305-.058-.156-.06-.157-.062-.159-.065-.161-.068-.164-.07-.166-.073-.168-.077-.171-.079-.174-.083-.176-.086-.179-.09-.182-.094-.185-.1-.188" transform="translate(434.383 323.575)"/><path class="o" d="M689.871,1008.849l-.357-49.34" transform="translate(435.052 330.114)"/><path class="o" d="M691.773,962.569l-4.42-5.984" transform="translate(432.792 327.056)"/><path class="o" d="M689.514,962.306l2.112-5.47" transform="translate(435.051 327.318)"/><path class="s" d="M687.547,960.055l-.378-6.792" transform="translate(432.599 323.583)"/><path class="o" d="M691.021,1004.26h-1.256" transform="translate(435.314 376.907)"/><path class="o" d="M691.174,1004.91h-1.409" transform="translate(435.314 377.587)"/><path class="o" d="M702.9,1025.636l-.242-3.072-.242-3.072-.242-3.072-.242-3.072-.242-3.072-.242-3.072-.242-3.072-.242-3.072-.242-3.072-.242-3.072-.242-3.072L700,988.771l-.242-3.072-.1-.975-.068-.244-.08-.209-.092-.176-.1-.145-.11-.117-.118-.088-.124-.063-.129-.039-.132-.021h-.134l-.134.021-.134.037-.132.051-.129.066-.126.078-.123.088-.119.1-.116.106-.113.112-.109.119-.105.123-.1.127-.1.129-.093.131-.089.131-.362.9-1.192,3.21-1.192,3.21-1.192,3.21-1.192,3.211-1.192,3.21-1.192,3.21-1.192,3.21-1.192,3.21-1.192,3.21-1.192,3.21-1.192,3.21-1.192,3.21-1.192,3.21" transform="translate(426.13 355.327)"/><path class="t" d="M666.788,1143.455v-330.8l0-.028-.036-.44-.071-.862-.143-1.657-.143-1.568-.144-1.485-.146-1.4-.147-1.328-.15-1.255-.153-1.186-.156-1.121-.16-1.06-.165-1-.169-.948-.174-.9-.181-.852-.187-.81-.194-.771-.2-.737-.21-.706-.218-.679-.227-.655-.484-1.256-.526-1.208-.572-1.191-.623-1.2-.677-1.244-.73-1.279-.779-1.294-.826-1.29-.869-1.267-.909-1.224-.946-1.162-.486-.552-.494-.529-.5-.5-.508-.476-.515-.446-.521-.413-.527-.378-.533-.341-.538-.3-.543-.259-.547-.214L649.2,773l-.555-.118-.557-.066-.56-.01-.559.047-.556.1-.552.151-.548.2-.544.244-.54.287-.535.328-.529.366-.523.4-.517.435-.511.466-.5.495-.5.521-.968,1.11-.934,1.185-.9,1.241-.855,1.277-.811,1.294-.763,1.291-.712,1.269-.659,1.229-.605,1.2-.557,1.193-.511,1.221-.471,1.279-.221.67-.212.7-.2.726-.2.759-.19.8-.183.838-.177.883-.171.931-.166.984-.161,1.04-.157,1.1-.154,1.164-.151,1.231-.148,1.3-.146,1.378-.144,1.457-.144,1.54-.143,1.626-.143,1.717-.008.111,0,.055,0,.028v330.788" transform="translate(371.408 134.883)"/><path class="o" d="M649.884,1037.659V713.118" transform="translate(393.612 240.675)"/><path class="u" d="M709.257,1143.454V812.649l0-.028-.036-.44-.072-.862L709,809.662l-.143-1.569-.144-1.484-.146-1.4-.148-1.328-.15-1.255-.153-1.186-.156-1.121-.16-1.06-.164-1-.169-.948-.175-.9-.181-.852-.187-.81-.194-.772-.2-.737-.21-.706-.218-.679-.227-.655-.484-1.256-.526-1.208-.572-1.191-.622-1.2L703,785.093l-.729-1.279-.779-1.294-.826-1.29-.869-1.267-.909-1.224-.946-1.162-.486-.552-.494-.529-.5-.5-.508-.476-.515-.446-.521-.413-.527-.378-.533-.341-.538-.3-.543-.259-.547-.214-.551-.167-.555-.118-.557-.066-.56-.01-.559.047-.556.1-.552.151-.548.2-.544.244-.54.287-.535.328-.529.366-.523.4-.517.435-.51.466-.5.495-.5.521-.968,1.11-.934,1.185-.9,1.241-.855,1.277-.811,1.294-.763,1.291-.712,1.269-.659,1.229-.605,1.2-.556,1.193-.511,1.221-.471,1.278-.221.671-.213.7-.2.726-.2.76-.189.8-.183.838-.177.883-.171.931-.166.984-.161,1.04-.157,1.1-.154,1.164L672,803.447l-.148,1.3-.146,1.378-.144,1.457-.144,1.54-.143,1.627-.143,1.717-.008.11,0,.055,0,.028v330.79" transform="translate(415.818 134.88)"/><path class="o" d="M657.922,993.8l-.154-1.96-.242-3.072-.242-3.072-.1-.975-.068-.244-.08-.209-.092-.176-.1-.145-.11-.117-.118-.088-.124-.063-.129-.039-.132-.021h-.134l-.135.021-.134.037-.132.051-.129.066-.126.078-.123.088-.12.1-.116.106-.113.113-.109.119-.105.123-.1.127-.1.129-.093.131-.089.131-.362.9-1.192,3.21-1.192,3.21-1.192,3.21-1.192,3.21-1.192,3.21-1.192,3.21-1.192,3.21-1.192,3.21-1.192,3.21-1.192,3.21-1.192,3.21-1.192,3.21-1.192,3.21" transform="translate(381.719 355.33)"/><path class="o" d="M649.294,1007.026l.028-.049.094-.186.086-.188.078-.188.071-.19.065-.19.059-.19.054-.192.049-.192.045-.192.041-.19.039-.19.018-.1.008-.047,0-.025h0v-.021l0-.115-.008-.23-.105-3.146" transform="translate(392.995 373.712)"/><path class="o" d="M647.885,1004.05l.018.164.06.536.06.531.061.526.03.26.008.065,0,.033,0,.021h0l.014.035.016.029.016.025.016.021.016.021.016.021h.134l.068-.033.133-.076.129-.078.125-.078.121-.078.117-.08.113-.08.109-.082.052-.041" transform="translate(391.521 376.688)"/><path class="o" d="M669.825,989.447l.292-8.748.493-14.755.123-3.689.031-.922,0-.058v-.012h0v-.006l0-.012,0-.024.014-.1.03-.19.03-.186.03-.181.03-.177.03-.173.03-.169.03-.165.03-.162.03-.159.031-.156.063-.3.064-.3.066-.288.068-.283.07-.279.073-.278.076-.278.079-.281.083-.284.088-.288.094-.293.1-.3.108-.305.057-.155.06-.157.062-.16.065-.161.067-.164.071-.166.073-.168.076-.171.079-.174.083-.176.086-.179.09-.182.094-.185.1-.188" transform="translate(414.463 323.582)"/><path class="o" d="M671.267,1004.05l-.018.164-.06.536-.061.531-.061.526-.031.26-.008.065,0,.033,0,.021h0l-.014.035-.016.029-.016.025-.016.021-.016.021-.016.021h-.133l-.068-.033-.133-.076-.129-.078-.125-.078-.121-.078-.117-.08-.113-.08-.109-.082-.052-.041" transform="translate(414.461 376.688)"/><path class="o" d="M669.5,1007.026l-.028-.049-.094-.186-.086-.188-.078-.188-.072-.19-.065-.19-.059-.19-.054-.192-.049-.192-.045-.192-.041-.19-.038-.19-.018-.1-.008-.047,0-.025h0v-.021l0-.115.008-.23.105-3.146" transform="translate(413.347 373.712)"/><path class="v" d="M647.42,986.427c-.016-1.262-.062-7.41-.1-13.663l-.075-11.369.717-1.847c.394-1.016.722-1.829.729-1.808s.215,6.131.463,13.577l.45,13.538-.064,1.763c-.035.97-.065,1.839-.066,1.932v.17h-2.02Z" transform="translate(390.849 328.265)"/><path class="v" d="M647.018,959.485l-1.447-1.959v-.676h2.338c1.545,0,2.337,0,2.335.008-.024.073-1.77,4.586-1.774,4.587s-.657-.882-1.452-1.959h0Z" transform="translate(389.101 327.332)"/><path class="v" d="M648.625,1013.045c-.187-1.858-.3-2.252-.752-2.724l-.274-.283-.078-9.571c-.043-5.264-.127-16.284-.186-24.488l-.108-14.917.587-1.492c.484-1.229.621-1.5.781-1.521.179-.027.194.01.194.5,0,.289.187,6,.414,12.686.31,9.078.4,12.732.367,14.42-.043,2.053-.826,25.6-.9,26.986-.016.323-.038.506-.048.407Z" transform="translate(390.834 328.58)"/><path class="v" d="M645.239,991.629c.012-.035.506-1.359,1.095-2.944a33.457,33.457,0,0,1,1.478-3.794,5.354,5.354,0,0,1,.536-.639c.356-.339.712-.489.964-.405a.745.745,0,0,1,.318.334c.161.317.174.437.49,4.482.124,1.585.228,2.915.232,2.955l.008.074h-5.143l.024-.061h0Z" transform="translate(388.73 355.539)"/><path class="v" d="M640.718,992.518v-5.295l.542-4.609c.3-2.535.542-4.617.542-4.627s2.639-.018,5.865-.018h5.865v.164c0,.09.016,2.6.038,5.584.033,4.571.034,5.424.008,5.44-.016,0-.067.025-.111.033a2.658,2.658,0,0,0-.688.354,4.721,4.721,0,0,0-.933,1.014,28.589,28.589,0,0,0-1.637,4.159l-1.146,3.085h-8.345v-5.3Z" transform="translate(384.027 349.416)"/><path class="v" d="M651,1013.066c-.036-.174-.211-1.6-.388-3.164-.376-3.321-.738-6.063-1.123-8.5a7.058,7.058,0,0,0-.524-2.2,4.5,4.5,0,0,0-1.819-1.709,2.241,2.241,0,0,0-1.278-.286c-.875,0-1.474.252-1.663.685-.072.164-.133.254-.137.2-.006-.092,1.194-3.369,3.668-10.007a21.7,21.7,0,0,1,1.442-3.451c.608-.8,1.249-1.034,1.588-.588.251.331.322,1.009.877,8.4.068.9-.118,7.73-.551,20.206-.021.575-.039.658-.091.407Z" transform="translate(387.527 355.543)"/><path class="v" d="M671.429,962.653l-.888-2.313.082-.515a24.341,24.341,0,0,1,1.729-5.709l.308-.655h3.968l-.035.5c-.018.272-.1,1.678-.179,3.123l-.144,2.628-1.932,2.614c-1.063,1.438-1.952,2.62-1.976,2.629s-.444-1.026-.933-2.3Z" transform="translate(415.212 323.79)"/><path class="v" d="M670.38,995.323c-.018-.184-.108-2.651-.2-5.482l-.165-5.146.451-13.457c.248-7.4.458-13.477.466-13.5s.341.8.739,1.833l.724,1.879-.1,14.661c-.056,8.063-.118,15.761-.14,17.106l-.039,2.445h-1.7l-.034-.336Z" transform="translate(414.663 328.259)"/><path class="v" d="M670.944,1005.01c-.026-.51-.161-4.393-.3-8.63s-.309-9.2-.378-11.027a130.766,130.766,0,0,1-.107-13.521c.093-2.76.186-5.428.209-5.929l.041-.911h1.9v1.454c0,.8-.057,8.114-.127,16.253s-.126,15.981-.127,17.425v2.626l-.31.314a2.536,2.536,0,0,0-.646,1.817c-.042.439-.083.857-.091.927a5.549,5.549,0,0,1-.062-.8h0Z" transform="translate(414.678 335.847)"/><path class="v" d="M670.83,999.761c-.008-.1-.061-1.649-.12-3.449l-.107-3.275.084-.681c.057-.462.164-1.69.332-3.811a32.982,32.982,0,0,1,.4-4.155.925.925,0,0,1,.348-.517c.37-.192.959.182,1.522.969a2.677,2.677,0,0,1,.288.584c.328.819,5.4,14.5,5.376,14.507a.191.191,0,0,1-.035,0c-.006,0-.21-.528-.451-1.159s-.442-1.15-.446-1.154-.159-.078-.344-.161a2.493,2.493,0,0,0-1.2-.274,3.363,3.363,0,0,0-2.3.982,3.763,3.763,0,0,0-1.059,1.589l-.051.186h-2.221l-.012-.176h0Z" transform="translate(415.277 355.539)"/><path class="v" d="M676.132,998.036c-.006,0-.558-1.488-1.224-3.283-1.3-3.5-1.561-4.177-1.667-4.337a3.329,3.329,0,0,0-1.752-1.492l-.1-.027.014-.908c.008-.5.025-2.729.037-4.954s.029-4.221.036-4.436l.012-.39h11.768l.014.1c.018.131,2.317,19.7,2.317,19.727s-9.44.028-9.457,0h0Z" transform="translate(416.099 349.669)"/><path class="v" d="M684.912,1009.99c-.018-.045-.7-1.916-3.828-10.549-1.79-4.934-2.721-7.456-3.117-8.437a1.916,1.916,0,0,0-.5-.259,2.343,2.343,0,0,0-1.039-.2,2.79,2.79,0,0,0-1.049.182,4.1,4.1,0,0,0-2.3,2.333c-.12.369-.493,2.73-.846,5.355-.263,1.959-.647,5.18-.92,7.713-.04.37-.076.669-.08.665s-.109-3.047-.234-6.764c-.28-8.335-.311-9.243-.328-9.576l-.014-.266h7.111l.189.514c.1.283,1.759,4.742,3.679,9.91s3.489,9.4,3.489,9.408a.264.264,0,0,1-.1.021c-.073,0-.1,0-.115-.039Z" transform="translate(415.335 362.191)"/><path class="i" d="M689.964,1004.729v-.272h.5l.02.2c.039.374.059.347-.251.347h-.272v-.272Z" transform="translate(435.522 377.114)"/><path class="i" d="M670.173,1004.959l-.026-.02.1-.1.1-.1-.008.09c-.012.145-.01.141-.084.141-.043,0-.072,0-.09-.021Z" transform="translate(414.8 377.415)"/><path class="i" d="M648.189,1004.973a2.1,2.1,0,0,1-.023-.221s.194.184.194.192a.043.043,0,0,1-.027.023c-.021.02-.04.02-.084.02h-.061Z" transform="translate(391.815 377.422)"/><path class="i" d="M628.185,1004.919c0-.041.01-.164.021-.271l.02-.2h.5v.543h-.272c-.264,0-.272,0-.272-.076Z" transform="translate(370.922 377.107)"/><path class="w" d="M659.248,786.955c-1.17,1.877-1.526,5.494-1.526,5.494s-.03,8.132,0,10.125c.012.827,1.079,1.538,1.079,1.538h4.035s1.031-.771,1.023-1.538c-.024-2.175,0-10.125,0-10.125s-.356-3.616-1.526-5.494Z" transform="translate(401.793 149.681)"/><path class="o" d="M647.295,791.587a5.986,5.986,0,0,0,5.3-1.4" transform="translate(390.904 153.061)"/><path class="o" d="M652.591,792.986a13.239,13.239,0,0,0-5.3-.688" transform="translate(390.905 155.23)"/><path class="o" d="M668.53,790.187a5.985,5.985,0,0,0,5.3,1.4" transform="translate(413.109 153.06)"/><path class="o" d="M673.826,792.3a13.237,13.237,0,0,0-5.3.687" transform="translate(413.109 155.23)"/><path class="i" d="M650.834,794.048a11.059,11.059,0,0,0-2.125-.25l-1.22-.016V791.66l1.316-.085a5.494,5.494,0,0,0,2.26-.559l.944-.474v1.891a6.46,6.46,0,0,1-.136,1.87c-.075-.012-.542-.126-1.04-.254Z" transform="translate(391.107 153.431)"/><path class="i" d="M668.7,792.445v-1.932l.407.263a6.945,6.945,0,0,0,3.251.864h1.062l-.054,1.04-.054,1.04-1.537.107a14.893,14.893,0,0,0-1.989.24c-1.181.348-1.085.491-1.085-1.622Z" transform="translate(413.288 153.402)"/><g transform="translate(1056.085 1236.864)"><path class="x" d="M187.756,941.9h-7.913l-.293.219v7.04h2.191v-2.64l.209-.187h5.807c1.466,0,2.154-.395,2.154-1.407V943.3c0-1.014-.687-1.409-2.154-1.409m0,2.6c0,.477-.316.576-1,.576h-4.78l-.233-.227v-1.508l.209-.191h4.8c.687,0,1,.1,1,.577v.773Z" transform="translate(-178.396 -925.168)"/><path class="x" d="M15.432,3.46l1.885,2.762-.1.268H13.044L11.98,7.8h6.205l.43.262.963,1.329h2.507L16.59,2.038" transform="translate(-10.655 29.278)"/><g transform="translate(1.378 63.585)"><path class="x" d="M26.991,6.666V4.713l.225-.195H31.41V3.274H24.764V8.1h9.8V6.858H27.226" transform="translate(-24.764 -0.836)"/><rect class="x" width="9.908" height="1.368" transform="translate(0 0)"/></g><path class="x" d="M181.992,958.064h7.983c-.123-1.015-.753-1.3-2.351-1.3h-5.717c-1.8,0-2.378.352-2.378,1.716v3.828c0,1.366.575,1.718,2.378,1.718h5.717c1.621,0,2.242-.3,2.284-1.357h-7.916l-.235-.221v-4.239" transform="translate(-178.417 -909.617)"/><path class="x" d="M187.75,936.548h-5.807l-.171-.188v-1.242l.17-.132h7.828l.107-.261c-.267-.686-.957-1.006-2.239-1.006H182.2c-1.8,0-2.378.352-2.378,1.716v.8c0,1.366.576,1.717,2.378,1.717h5.794l.182.16v1.3l-.148.2H181.4v-.006h-1.736s-.2.1-.191.146c.148.954.8,1.225,2.355,1.225h5.922c1.8,0,2.395-.352,2.395-1.718v-1c0-1.364-.593-1.715-2.395-1.715" transform="translate(-178.476 -933.719)"/><path class="x" d="M182.544,973.03h-3.26l-.177.337,3.62,2.639c.686-.4,1.432-.8,2.243-1.2" transform="translate(-178.858 -892.612)"/><path class="x" d="M182.214,976.209l3.182,2.32h3.3l.137-.307-4.751-3.477q-.947.695-1.867,1.464" transform="translate(-175.61 -890.82)"/><path class="y" d="M182.184,981.973h-2.949l-.249-.39c2.005-1.936,11.161-9.212,23.079-10.138,0,0-10.425,1.157-19.881,10.528" transform="translate(-178.985 -894.269)"/></g><path class="z" d="M677.99,785.905H660.762" transform="translate(404.986 148.582)"/><path class="aa" d="M672.741,788,669.17,785.7V788Z" transform="translate(413.778 148.364)"/><path class="z" d="M649.187,785.905h17.228" transform="translate(392.883 148.582)"/><path class="aa" d="M647.455,788l3.571-2.305V788Z" transform="translate(391.072 148.364)"/><rect class="ab" width="87.195" height="1.917" transform="translate(1019.017 936.373)"/><path class="w" d="M680.03,804.677s-1.065-.71-1.078-1.537c-.03-1.992,0-10.126,0-10.126s.642-6.6,3.068-6.6,3.068,6.6,3.068,6.6-.024,7.949,0,10.124c.008.768-1.023,1.538-1.023,1.538Z" transform="translate(423.993 149.115)"/><path class="w" d="M637.559,804.677s-1.065-.71-1.078-1.537c-.03-1.992,0-10.126,0-10.126s.642-6.6,3.068-6.6,3.068,6.6,3.068,6.6-.025,7.949,0,10.124c.008.768-1.023,1.538-1.023,1.538Z" transform="translate(379.584 149.115)"/><path class="o" d="M666.793,795.3H628.648" transform="translate(371.406 158.409)"/><g transform="translate(999.39 938.989)"><g transform="translate(0)"><path class="ac" d="M439.357,821.11l-.064-13.1,2.174-3.2-.064-3.452,1.726-3.26.575-1.854,1.406-.511,1.406.128.831.256.767,2.046.447,2.238.064,1.918v2.046l-.192,1.47,1.662,1.854v13.233l-1.279.256Z" transform="translate(-439.293 -795.731)"/><path class="ad" d="M448.779,803.4V816.55H439.32v-13.1l1.909-3.307h4.52Z" transform="translate(-439.264 -791.119)"/><path class="ad" d="M440.32,819.812V800.419l1.582-3.164a4.109,4.109,0,0,1,4.792.633l-.226,5.922" transform="translate(-438.219 -794.651)"/><path class="ad" d="M442.364,800.185v16.047" transform="translate(-436.081 -791.073)"/><path class="ad" d="M442.441,800.186l1.537-.045,2.8,3.029V816.4l-1.286.126" transform="translate(-436.001 -791.119)"/><path class="ad" d="M442.507,802.938l.045-3.255,1.763-2.26" transform="translate(-435.932 -793.961)"/><path class="ad" d="M441.071,798.264l.814-1.989a4.618,4.618,0,0,1,3.616-.226,17.7,17.7,0,0,1,1.04,9.674" transform="translate(-437.433 -795.662)"/><path class="ae" d="M440.364,798.659a5.551,5.551,0,0,1,4.385-.045" transform="translate(-438.173 -793.164)"/><path class="ac" d="M442.356,809.771l3.2-3.2" transform="translate(-436.09 -784.392)"/><path class="af" d="M442.356,809.9l3.132-3.452" transform="translate(-436.09 -784.522)"/><path class="af" d="M440.949,811.993l5.945-7.543" transform="translate(-437.561 -786.614)"/><path class="af" d="M448.429,802.574l-8.886,11.315" transform="translate(-439.031 -788.575)"/><path class="af" d="M447.73,801.324l-8.374,10.74" transform="translate(-439.228 -789.882)"/><path class="af" d="M446.1,800.387l-6.712,8.822" transform="translate(-439.195 -790.862)"/><path class="af" d="M443.407,800.23l-4.075,5.226" transform="translate(-439.252 -791.026)"/><path class="af" d="M444.055,811.505l-4.731-6.712" transform="translate(-439.26 -786.255)"/><path class="af" d="M439.387,806.6l1.982,3.132" transform="translate(-439.194 -784.36)"/><path class="af" d="M447.189,813.329l-7.833-10.255" transform="translate(-439.227 -788.052)"/><path class="af" d="M448.431,812.922l-8.95-11.379" transform="translate(-439.096 -789.654)"/><path class="af" d="M447.97,809.97l-7.927-9.333" transform="translate(-438.508 -790.601)"/><path class="af" d="M446.89,806.72l-5.753-6.521" transform="translate(-437.365 -791.058)"/></g><g transform="translate(39.475 25.443) rotate(180)"><path class="ac" d="M.064.064,0,13.169l2.174,3.2L2.11,19.817l1.726,3.26.575,1.854,1.406.511,1.406-.128.831-.256.767-2.046.447-2.237.064-1.918V16.813l-.192-1.47L10.8,13.489V.256L9.525,0Z"/><path class="ad" d="M9.458,13.154V0H0V13.1l1.91,3.307H6.43Z" transform="translate(0.056 0.012)"/><path class="ad" d="M0,0V19.392l1.582,3.164a4.109,4.109,0,0,0,4.792-.633L6.148,16" transform="translate(2.101 0.283)"/><path class="ad" d="M0,16.047V0" transform="translate(6.283 0.284)"/><path class="ad" d="M0,16.343l1.537.045,2.8-3.029V.126L3.054,0" transform="translate(6.44 0.033)"/><path class="ad" d="M0,0,.045,3.255l1.763,2.26" transform="translate(6.575 16.466)"/><path class="ad" d="M0,7.459.814,9.447a4.618,4.618,0,0,0,3.616.226A17.7,17.7,0,0,0,5.47,0" transform="translate(3.638 15.382)"/><path class="ae" d="M0,0A5.551,5.551,0,0,0,4.385.045" transform="translate(2.191 19.948)"/><path class="ac" d="M0,0,3.2,3.2" transform="translate(6.266 0.064)"/><path class="af" d="M0,0,3.132,3.452" transform="translate(6.266 0.064)"/><path class="af" d="M0,0,5.945,7.543" transform="translate(3.388 0.064)"/><path class="af" d="M8.886,11.315,0,0" transform="translate(0.512 0.129)"/><path class="af" d="M8.374,10.74,0,0" transform="translate(0.128 3.261)"/><path class="af" d="M6.712,8.822,0,0" transform="translate(0.192 7.096)"/><path class="af" d="M4.075,5.226,0,0" transform="translate(0.08 11.013)"/><path class="af" d="M4.731,0,0,6.712" transform="translate(0.065 0.193)"/><path class="af" d="M0,3.132,1.982,0" transform="translate(0.193 0.066)"/><path class="af" d="M7.833,0,0,10.255" transform="translate(0.129 0.166)"/><path class="af" d="M8.95,0,0,11.379" transform="translate(0.385 2.175)"/><path class="af" d="M7.927,0,0,9.333" transform="translate(1.535 6.074)"/><path class="af" d="M5.753,0,0,6.521" transform="translate(3.772 9.781)"/></g></g><path class="o" d="M649.884,795.307h38.143" transform="translate(393.611 158.414)"/><path class="o" d="M709.262,795.3H671.119" transform="translate(415.816 158.409)"/><g transform="translate(1086.194 938.989)"><g transform="translate(0)"><path class="ac" d="M439.357,821.11l-.064-13.1,2.174-3.2-.064-3.452,1.726-3.26.575-1.854,1.406-.511,1.406.128.831.256.767,2.046.447,2.238.064,1.918v2.046l-.192,1.47,1.662,1.854v13.233l-1.279.256Z" transform="translate(-439.293 -795.731)"/><path class="ad" d="M448.779,803.4V816.55H439.32v-13.1l1.909-3.307h4.52Z" transform="translate(-439.264 -791.119)"/><path class="ad" d="M440.32,819.812V800.419l1.582-3.164a4.109,4.109,0,0,1,4.792.633l-.226,5.922" transform="translate(-438.219 -794.651)"/><path class="ad" d="M442.364,800.185v16.047" transform="translate(-436.081 -791.073)"/><path class="ad" d="M442.441,800.186l1.537-.045,2.8,3.029V816.4l-1.286.126" transform="translate(-436.001 -791.119)"/><path class="ad" d="M442.507,802.938l.045-3.255,1.763-2.26" transform="translate(-435.932 -793.961)"/><path class="ad" d="M441.071,798.264l.814-1.989a4.618,4.618,0,0,1,3.616-.226,17.7,17.7,0,0,1,1.04,9.674" transform="translate(-437.433 -795.662)"/><path class="ae" d="M440.364,798.659a5.551,5.551,0,0,1,4.385-.045" transform="translate(-438.173 -793.164)"/><path class="ac" d="M442.356,809.771l3.2-3.2" transform="translate(-436.09 -784.392)"/><path class="af" d="M442.356,809.9l3.132-3.452" transform="translate(-436.09 -784.522)"/><path class="af" d="M440.949,811.993l5.945-7.543" transform="translate(-437.561 -786.614)"/><path class="af" d="M448.429,802.574l-8.886,11.315" transform="translate(-439.031 -788.575)"/><path class="af" d="M447.73,801.324l-8.374,10.74" transform="translate(-439.228 -789.882)"/><path class="af" d="M446.1,800.387l-6.712,8.822" transform="translate(-439.195 -790.862)"/><path class="af" d="M443.407,800.23l-4.075,5.226" transform="translate(-439.252 -791.026)"/><path class="af" d="M444.055,811.505l-4.731-6.712" transform="translate(-439.26 -786.255)"/><path class="af" d="M439.387,806.6l1.982,3.132" transform="translate(-439.194 -784.36)"/><path class="af" d="M447.189,813.329l-7.833-10.255" transform="translate(-439.227 -788.052)"/><path class="af" d="M448.431,812.922l-8.95-11.379" transform="translate(-439.096 -789.654)"/><path class="af" d="M447.97,809.97l-7.927-9.333" transform="translate(-438.508 -790.601)"/><path class="af" d="M446.89,806.72l-5.753-6.521" transform="translate(-437.365 -791.058)"/></g><g transform="translate(39.475 25.443) rotate(180)"><path class="ac" d="M.064.064,0,13.169l2.174,3.2L2.11,19.817l1.726,3.26.575,1.854,1.406.511,1.406-.128.831-.256.767-2.046.447-2.237.064-1.918V16.813l-.192-1.47L10.8,13.489V.256L9.525,0Z"/><path class="ad" d="M9.458,13.154V0H0V13.1l1.91,3.307H6.43Z" transform="translate(0.056 0.012)"/><path class="ad" d="M0,0V19.392l1.582,3.164a4.109,4.109,0,0,0,4.792-.633L6.148,16" transform="translate(2.101 0.283)"/><path class="ad" d="M0,16.047V0" transform="translate(6.283 0.284)"/><path class="ad" d="M0,16.343l1.537.045,2.8-3.029V.126L3.054,0" transform="translate(6.44 0.033)"/><path class="ad" d="M0,0,.045,3.255l1.763,2.26" transform="translate(6.575 16.466)"/><path class="ad" d="M0,7.459.814,9.447a4.618,4.618,0,0,0,3.616.226A17.7,17.7,0,0,0,5.47,0" transform="translate(3.638 15.382)"/><path class="ae" d="M0,0A5.551,5.551,0,0,0,4.385.045" transform="translate(2.191 19.948)"/><path class="ac" d="M0,0,3.2,3.2" transform="translate(6.266 0.064)"/><path class="af" d="M0,0,3.132,3.452" transform="translate(6.266 0.064)"/><path class="af" d="M0,0,5.945,7.543" transform="translate(3.388 0.064)"/><path class="af" d="M8.886,11.315,0,0" transform="translate(0.512 0.129)"/><path class="af" d="M8.374,10.74,0,0" transform="translate(0.128 3.261)"/><path class="af" d="M6.712,8.822,0,0" transform="translate(0.192 7.096)"/><path class="af" d="M4.075,5.226,0,0" transform="translate(0.08 11.013)"/><path class="af" d="M4.731,0,0,6.712" transform="translate(0.065 0.193)"/><path class="af" d="M0,3.132,1.982,0" transform="translate(0.193 0.066)"/><path class="af" d="M7.833,0,0,10.255" transform="translate(0.129 0.166)"/><path class="af" d="M8.95,0,0,11.379" transform="translate(0.385 2.175)"/><path class="af" d="M7.927,0,0,9.333" transform="translate(1.535 6.074)"/><path class="af" d="M5.753,0,0,6.521" transform="translate(3.772 9.781)"/></g></g><path class="ae" d="M667.247,789.857l-2.269-4.123h-6.131l-2.269,4.123" transform="translate(400.611 148.403)"/><path class="aa" d="M657.106,787.938l1.189-2.205h6.131l1.183,2.173Z" transform="translate(401.163 148.402)"/><path class="ag" d="M645.528,1006.2h6.634l1.151.511h3.644l.991-1.087h1.684c.5,0,.9.979.9,1.479v1.266c0,.5-.437,1.755-.9,1.575h-1.621l-1.055-1.342H653.28l-1.151.671h-6.6a.9.9,0,0,1-.9-.9v-1.266A.9.9,0,0,1,645.528,1006.2Z" transform="translate(388.112 378.339)"/><path class="ag" d="M681.013,1006.2H674.38l-1.151.511h-3.644l-.991-1.087H666.91c-.5,0-.9.979-.9,1.479v1.266c0,.5.437,1.755.9,1.575h1.62l1.055-1.342h3.676l1.151.671h6.6a.9.9,0,0,0,.9-.9v-1.266A.9.9,0,0,0,681.013,1006.2Z" transform="translate(410.47 378.339)"/></g></svg>