<svg xmlns="http://www.w3.org/2000/svg" viewBox="0 0 28.1 45.49"><defs><style>.cls-1{fill:#333;}.cls-1,.cls-2{stroke:#000;stroke-width:0.4px;}.cls-2{fill:none;}.cls-3{fill:#efefef;}</style></defs><title>falcon1_engine</title><g id="Layer_2" data-name="Layer 2"><g id="Layer_1-2" data-name="Layer 1"><path class="cls-1" d="M22.08,45.29h-16L6.49,43l.63-2.46.74-2.44.85-2.4,1-2.36,1.06-2.31.32-1.12-.23-.32-.22-.33-.21-.35-.2-.35L10,28.21l-.18-.38-.17-.39L9.49,27l-.14-.41-.14-.43-.13-.43L9,25.32l-.11-.47-.1-.47-.09-.49-.09-.5-.07-.51-.06-.53-.06-.54,0-.55,0-.56.24-.29h11l.29.24,0,.56-.05.56-.05.54-.06.52-.08.52-.08.5-.09.49-.1.47-.11.47-.12.45-.13.44-.14.42-.14.42-.16.4-.17.39-.18.38-.19.37-.2.35-.21.35-.22.33-.23.32.21,1,1.07,2.3,1,2.36.86,2.4.75,2.43.63,2.46.53,2.49Z"/><path class="cls-2" d="M27.92.2,16.84,9.94a4.87,4.87,0,0,1-5.58,0L.18.2"/><path class="cls-2" d="M27.92.2H.18"/><path class="cls-2" d="M14.05,10.83v9.59"/><path class="cls-2" d="M.18.2,8.54,20.4"/><path class="cls-2" d="M27.92.2,19.56,20.4"/><path class="cls-3" d="M12.47,10.31c-.9-.33-.82-.27-6.23-5.19L1.12.47l6.41,0c3.53,0,9.28,0,12.79,0l6.37,0L21.48,5.21c-3.57,3.24-5.44,4.83-5.93,5a5.06,5.06,0,0,1-3.08.08Z"/></g></g></svg>