<svg xmlns="http://www.w3.org/2000/svg" xmlns:xlink="http://www.w3.org/1999/xlink" width="40.132" height="454.113" viewBox="0 0 40.132 454.113"><defs><style>.a{fill:#fff;}.b,.c{stroke:rgba(255,255,255,0);stroke-linecap:round;stroke-linejoin:round;stroke-width:0.41px;opacity:0.034;}.b{fill:url(#a);}.c{fill:url(#b);}.d{fill:none;stroke:#000;stroke-width:0.4px;}.e{fill:#005288;}.f{fill:#a7a9ac;}</style><linearGradient id="a" x1="0.675" y1="-2.249" x2="1.619" y2="-2.249" gradientUnits="objectBoundingBox"><stop offset="0"/><stop offset="1" stop-opacity="0"/></linearGradient><linearGradient id="b" x1="89.663" y1="3.25" x2="90.621" y2="3.25" xlink:href="#a"/></defs><g transform="translate(-4.796 -255.624)"><g transform="translate(4.994 255.624)"><rect class="a" width="39.776" height="453.625" transform="translate(0 0)"/><g transform="translate(0.404 0.351)"><rect class="b" width="19.727" height="452.943" transform="translate(0 0.116)"/><rect class="c" width="19.438" height="452.74" transform="translate(38.87 452.74) rotate(180)"/></g></g><path class="d" d="M485.255,712.768v451.6a3.8,3.8,0,0,1-1.042,2.317H446.566a3.8,3.8,0,0,1-1.042-2.317v-451.6" transform="translate(-440.527 -457.144)"/><g transform="translate(18.082 550.553)"><path class="e" d="M188.1,941.9h-8.243l-.305.228v7.333h2.282v-2.75l.218-.2H188.1c1.527,0,2.243-.411,2.243-1.465v-1.684c0-1.056-.716-1.467-2.244-1.467m0,2.711c0,.5-.329.6-1.045.6h-4.979l-.243-.236V943.4l.218-.2h5c.716,0,1.045.1,1.045.6v.805Z" transform="translate(-178.348 -924.472)"/><path class="e" d="M15.576,3.519,17.539,6.4l-.109.279H13.088L11.98,8.038h6.463l.448.273,1,1.384h2.611L16.782,2.038" transform="translate(-10.6 30.581)"/><g transform="translate(1.435 66.232)"><path class="e" d="M27.084,6.808V4.773l.235-.2h4.368v-1.3H24.764V8.3H34.976V7.007H27.329" transform="translate(-24.764 -0.734)"/><rect class="e" width="10.321" height="1.425" transform="translate(0 0)"/></g><path class="e" d="M182.094,958.118h8.315c-.128-1.057-.784-1.351-2.448-1.351h-5.955c-1.878,0-2.477.367-2.477,1.788v3.987c0,1.422.6,1.789,2.477,1.789h5.955c1.689,0,2.335-.317,2.379-1.414h-8.246l-.245-.23v-4.416" transform="translate(-178.371 -907.654)"/><path class="e" d="M188.094,936.666h-6.049l-.178-.2v-1.294l.177-.137H190.2l.111-.272c-.278-.714-1-1.048-2.333-1.048h-5.664c-1.877,0-2.477.367-2.477,1.788v.836c0,1.423.6,1.789,2.477,1.789h6.035l.19.167v1.353l-.154.211h-6.9v-.006h-1.808s-.207.1-.2.152c.154.994.832,1.276,2.453,1.276h6.169c1.876,0,2.494-.367,2.494-1.789v-1.042c0-1.42-.618-1.786-2.494-1.786" transform="translate(-178.434 -933.719)"/><path class="e" d="M182.687,973.03h-3.4l-.184.351,3.771,2.749c.714-.413,1.491-.833,2.337-1.246" transform="translate(-178.848 -889.265)"/><path class="e" d="M182.214,976.27l3.314,2.417h3.437l.142-.32-4.949-3.622q-.986.724-1.944,1.526" transform="translate(-175.335 -887.327)"/><path class="f" d="M182.317,982.412h-3.072l-.26-.407c2.089-2.017,11.626-9.6,24.039-10.56,0,0-10.859,1.206-20.708,10.967" transform="translate(-178.985 -891.057)"/></g></g></svg>