<svg xmlns="http://www.w3.org/2000/svg" viewBox="0 0 135.06 113.84"><defs><style>.cls-1,.cls-3,.cls-5{fill:#f2f2f2;}.cls-1,.cls-2,.cls-3,.cls-4{stroke:#000;stroke-width:0.4px;}.cls-2,.cls-4{fill:none;}.cls-3,.cls-4{stroke-linecap:round;}.cls-6{fill:#f7f7f7;}</style></defs><title>heavy_landing_legs</title><g id="Layer_2" data-name="Layer 2"><g id="Layer_1-2" data-name="Layer 1"><path class="cls-1" d="M6.84,86.07l.09-.29.16-.32.23-.33.27-.32.33-.32.37-.28L8.7,84l.43-.17.46-.09h.48l.49.1.5.23.83,2.16.86,2.39L13.62,91l.86,2.39.87,2.39.86,2.38.87,2.39.86,2.38.87,2.39.86,2.39.87,2.38.86,2.39.22.58,0,.07.05.07.05.06,0,.06.05,0,.06.05.06,0,.06,0,.06,0,.06,0,.07,0,.06,0,.07,0,.07,0h.62l.11,0,.1-.1.1-.15.1-.2.1-.23.09-.26.09-.29.07-.3.07-.33.06-.33,0-.33-.4-3.73-.92-7.81-.92-7.8-.91-7.81-.92-7.8L19,68.31l-.92-7.8-.92-7.8-.91-7.81-.92-7.8-.92-7.8-.92-7.82-.6-5.29V10.55l0-.64-.07-1L12.72,8l-.07-.82-.08-.74-.08-.66-.08-.59-.09-.53-.08-.48-.09-.43-.09-.38L12,3l-.09-.32-.09-.3-.1-.27-.1-.25-.1-.23-.1-.21-.1-.19-.1-.17-.1-.15L11,.8l-.1-.12-.11-.1-.11-.1L10.56.41,10.45.34,10.33.29l-.11,0-.12,0L10,.2H9.75l-.13,0L9.5.26l-.12,0-.13,0L9.12.43,9,.51l-.13.1L8.73.72,8.6.85,8.47,1l-.14.15-.14.17-.14.19-.14.2-.15.23-.15.24-.15.26-.15.28L7.15,3,7,3.32l-.16.33L6.69,4l-.16.34-.15.34L6.23,5l-.14.35L6,5.72l-.14.35-.13.35-.12.35-.12.34-.11.34-.1.34-.1.34L5,8.47,5,8.81l-.07.35-.07.35"/><path class="cls-1" d="M50.28,86.07l.09-.29.16-.32.22-.33.28-.32.33-.32.37-.28.41-.23.43-.17.46-.09h.48l.49.1.5.23.83,2.16.86,2.39L57.06,91l.86,2.39.87,2.39.86,2.38.87,2.39.86,2.38.87,2.39.86,2.39.87,2.38.86,2.39.22.58,0,.07.05.07,0,.06,0,.06,0,0,.06.05.06,0,.06,0,.06,0,.06,0,.07,0,.06,0,.07,0,.07,0h.62l.11,0,.1-.1.1-.15.1-.2.1-.23.09-.26.09-.29.07-.3.07-.33.06-.33.05-.33-.4-3.73-.92-7.81-.92-7.8-.91-7.81-.92-7.8-.92-7.81-.92-7.8-.92-7.8-.91-7.81-.92-7.8-.92-7.8-.92-7.82-.6-5.29V10.55l0-.64-.07-1L56.16,8l-.07-.82L56,6.45l-.08-.66-.08-.59-.09-.53-.08-.48-.09-.43-.09-.38L55.41,3l-.09-.32-.09-.3-.1-.27L55,1.89l-.1-.23-.1-.21-.1-.19-.1-.17-.1-.15L54.43.8l-.1-.12-.11-.1-.11-.1L54,.41,53.89.34,53.78.29l-.12,0-.12,0-.11,0h-.24l-.12,0-.13,0-.12,0-.13,0-.12.07-.13.08-.13.1-.13.11L52,.85,51.91,1l-.14.15-.14.17-.14.19-.14.2-.15.23-.15.24-.15.26-.15.28L50.6,3l-.16.31-.16.33L50.13,4,50,4.32l-.16.34L49.68,5l-.15.35-.14.35-.13.35-.13.35L49,6.77l-.12.34-.11.34-.1.34-.1.34-.08.34-.08.34-.07.35-.06.35"/><path class="cls-2" d="M12.85,10.13,10.33,7.45"/><path class="cls-2" d="M10.33,7.45H5.73"/><path class="cls-3" d="M6.84,86.07l-.08.44L6.68,87l-.07.46-.07.46-.08.48-.07.48-.07.49-.07.5-.07.5-.07.5L6,91.35,6,91.87l-.07.53-.07.53-.06.53L5.7,94l-.07.54-.06.55-.07.56-.06.55-.07.56-.06.57-.13,1.13-.12,1.14-.12,1.15-.25,2.3-.12,1.15-.12,1.15-.12,1.14-.12,1.13-.06.57-.06.56-.06.55-.06.56-.06.55-.06.54-.06.54-.06.54-.06.53-.06.52,0,.26v.12h0v0l0,0,0,0v0l0,0v0H3.34l-.07,0-.13-.08L3,113.44l-.12-.08-.12-.08-.12-.08-.11-.08L2.43,113,2.32,113l-.1-.09-.1-.08-.1-.08-.09-.09-.09-.09-.09-.08-.08-.09-.08-.09-.07-.08L1.37,112l-.13-.18-.12-.18L1,111.46l-.1-.18-.1-.19-.08-.19-.08-.19-.07-.19-.07-.19-.06-.19,0-.19-.05-.19,0-.19,0-.19,0-.19,0-.1V109h0v-.37L.7,93.89l1-29.51,1-29.51.49-14.75.13-3.69,0-.92v-.06h0V15.3l0-.19,0-.19,0-.18,0-.18,0-.17,0-.17,0-.16,0-.17,0-.16,0-.15.07-.3.06-.3.07-.28.06-.29L4,12.13,4,11.86l.07-.28.08-.28L4.28,11l.08-.29.1-.29.1-.3.1-.3.06-.16.06-.16.06-.16.07-.16L5,9l.07-.17.07-.16.08-.18.08-.17.08-.18L5.45,8l.09-.19.09-.18.1-.19"/><path class="cls-2" d="M5.17,69.57l.36-49.34"/><path class="cls-2" d="M5.53,20.23l4.42-6"/><path class="cls-2" d="M5.53,20.23,3.42,14.76"/><path class="cls-4" d="M10,14.24l.38-6.79"/><path class="cls-2" d="M3.76,111.77H5"/><path class="cls-2" d="M3.61,113.1H5"/><path class="cls-1" d="M41.34,86.07l-.1-.29-.16-.32-.22-.33-.28-.32-.32-.32-.37-.28L39.48,84,39,83.81l-.46-.09H38.1l-.49.1-.5.23-.82,2.16-.87,2.39L34.56,91l-.87,2.39-.86,2.39L32,98.14l-.86,2.39-.87,2.38-.86,2.39-.87,2.39-.86,2.38-.87,2.39-.22.58,0,.07,0,.07,0,.06-.05.06-.05,0-.06.05-.06,0-.06,0-.06,0-.07,0-.06,0-.07,0-.06,0-.07,0h-.62l-.11,0-.11-.1-.1-.15-.1-.2-.1-.23-.09-.26-.08-.29-.08-.3-.06-.33-.06-.33,0-.33.4-3.73.92-7.81.91-7.8.92-7.81.92-7.8.92-7.81.92-7.8.91-7.8.92-7.81.92-7.8.92-7.8.92-7.81.6-5.28V10.56l0-.64.07-1,.07-.9.08-.81.08-.74.08-.66.08-.6.08-.53.09-.48L36,3.78l.08-.39L36.2,3l.1-.32.09-.3.09-.27.1-.25.1-.23.1-.2.1-.19.1-.17.1-.16.1-.13L37.29.7,37.4.59,37.5.5l.11-.08.12-.06L37.84.3l.11,0,.12,0h.36l.12,0,.12,0,.13,0,.12.06.13.07.13.08.13.1.13.11.13.12.14.14.13.16.14.17.14.19.15.2.14.22.15.25.15.26.15.28L41,3l.16.31.15.32.16.33.15.34.15.35.15.35.14.35.14.36.14.35.13.35.12.34.12.34.11.34.1.34.1.34.09.34.08.35.07.34.06.35"/><path class="cls-2" d="M23.46,113.1h1.25"/><path class="cls-2" d="M1.06,111.57l.24-3.07.25-3.08.24-3.07L2,99.28l.24-3.07.24-3.07.25-3.08L3,87l.24-3.07.24-3.07.24-3.07L4,74.7l.24-3.07.1-1,.07-.25.08-.21L4.55,70l.1-.15.11-.11.12-.09L5,69.61l.13,0,.13,0H5.4l.13,0,.13,0,.14,0,.12.07.13.08.12.09.12.1.12.1.11.11.11.12.11.13.1.12.1.13.09.13.09.13.36.9,1.19,3.21,1.19,3.21,1.2,3.21,1.19,3.21,1.19,3.21,1.19,3.21,1.19,3.21L17,97.55l1.19,3.21L19.4,104l1.19,3.21,1.19,3.21L23,113.6"/><path class="cls-2" d="M35.32,10.13l2.53-2.68"/><path class="cls-2" d="M37.85,7.45h4.6"/><path class="cls-2" d="M43,69.57l-.35-49.34"/><path class="cls-1" d="M45.8,43.63l-.29-8.74L45,20.13l-.12-3.69,0-.92v-.06h0v-.12l0-.19,0-.19,0-.18,0-.18,0-.17,0-.17,0-.16,0-.16,0-.16,0-.16-.06-.3-.07-.3-.06-.29-.07-.28-.07-.28-.07-.28-.08-.28L44,11.3,43.91,11l-.09-.29-.09-.29-.1-.3-.11-.31-.06-.15-.06-.16-.06-.16-.07-.16L43.21,9l-.07-.17-.08-.17L43,8.53l-.08-.17-.09-.18L42.74,8l-.09-.18-.1-.19-.1-.18"/><path class="cls-2" d="M42.64,20.23l-4.42-6"/><path class="cls-2" d="M42.64,20.23l2.12-5.47"/><path class="cls-4" d="M38.23,14.24l-.38-6.79"/><path class="cls-4" d="M41.34,86.08l.08.44.07.44.08.46.07.47.07.47.08.48.07.49.07.5.07.5.07.51.07.51.07.53.07.52.06.53.07.54.07.54.06.55.07.55.06.55.07.56.06.56.07.56L43,98.47l.13,1.15.12,1.15.24,2.3.13,1.15.12,1.14v.16"/><path class="cls-2" d="M56.29,10.13,53.76,7.45"/><path class="cls-2" d="M53.77,7.45h-4.6"/><path class="cls-3" d="M50.28,86.07l-.08.44-.08.45-.07.46-.08.46-.07.48-.07.48-.07.49-.07.5-.07.5-.07.5-.07.52-.07.52-.07.53-.07.53-.07.53-.06.55-.07.54L49,95.1l-.07.56-.06.55-.07.56-.06.57-.13,1.13-.12,1.14-.12,1.15-.25,2.3L48,104.21l-.12,1.15-.12,1.14-.12,1.13-.06.57-.06.56-.06.55-.06.56-.06.55-.06.54-.06.54-.06.54-.06.53-.06.52,0,.26v.12h0v0l0,0,0,0v0l0,0v0h-.14l-.06,0-.14-.08-.13-.07-.12-.08-.12-.08-.12-.08-.11-.08-.11-.08-.11-.08-.1-.09-.1-.08-.1-.08-.09-.09-.09-.09-.09-.08-.08-.09-.08-.09-.07-.08-.15-.18-.13-.18-.12-.18-.11-.19-.1-.18-.1-.19-.08-.19-.08-.19-.07-.19-.07-.19-.06-.19,0-.19-.05-.19,0-.19,0-.19,0-.19,0-.1V109h0v-.37l.49-14.76,1-29.51,1-29.51.49-14.75.13-3.69,0-.92v-.06h0V15.3l0-.19,0-.19,0-.18,0-.18,0-.17,0-.17,0-.16,0-.17,0-.16,0-.15.06-.3.06-.3.07-.28.07-.29.07-.28.07-.27.08-.28.07-.28.09-.29.09-.29.09-.29.1-.3.11-.3,0-.16.06-.16.07-.16.06-.16L48.42,9l.07-.17.07-.16.08-.18.08-.17.08-.18L48.89,8,49,7.81l.09-.18.1-.19"/><path class="cls-2" d="M48.61,69.57,49,20.23"/><path class="cls-2" d="M49,20.23l4.42-6"/><path class="cls-2" d="M49,20.23l-2.11-5.47"/><path class="cls-4" d="M53.39,14.24l.38-6.79"/><path class="cls-1" d="M84.78,86.07l-.1-.29-.16-.32-.22-.33L84,84.81l-.32-.32-.37-.28L82.92,84l-.44-.17L82,83.72h-.48l-.49.1-.5.23-.82,2.16-.87,2.39L78,91l-.87,2.39-.86,2.39-.87,2.38-.86,2.39-.87,2.38-.86,2.39-.87,2.39-.86,2.38-.87,2.39L70,113l0,.07,0,.07,0,.06,0,.06-.06,0,0,.05-.06,0-.06,0-.06,0-.07,0-.06,0-.07,0-.07,0-.06,0h-.62l-.11,0-.11-.1-.1-.15-.1-.2-.1-.23-.09-.26-.08-.29-.08-.3-.07-.33-.06-.33,0-.33.4-3.73.91-7.81.92-7.8.92-7.81.92-7.8.92-7.81.91-7.8.92-7.8.92-7.81.92-7.8.92-7.8.91-7.82.6-5.29V10.55l0-.64.08-1,.07-.9L79,7.19l.08-.74.08-.66.08-.59.08-.53.09-.48.09-.43.08-.38L79.64,3l.09-.32.1-.3.09-.27.1-.25.1-.23.1-.21.1-.19.1-.17.1-.15.1-.14.11-.12.1-.1.11-.1.11-.07.12-.07.11-.05.11,0,.12,0,.12,0h.24l.12,0,.12,0,.12,0,.13,0,.13.07.12.08.13.1.14.11L83,.85l.13.14.14.15.14.17.14.19.14.2.15.23.15.24.15.26.15.28.16.3.15.31.16.33.15.33.16.34.15.34.15.36.14.35.14.35.14.35.13.35.12.35.12.34.11.34.1.34.1.34.08.34.08.34.07.35.07.35"/><path class="cls-2" d="M44.5,111.57l.25-3.07.24-3.08.24-3.07.24-3.07.24-3.07L46,93.14l.24-3.08L46.44,87l.24-3.07.24-3.07.25-3.07.24-3.08.24-3.07.1-1,.07-.25.08-.21L48,70l.1-.15.11-.11.12-.09.12-.07.13,0,.13,0h.14l.13,0,.14,0,.13,0,.13.07.12.08.13.09.12.1.11.1.11.11.11.12.11.13.1.12.1.13.09.13.09.13.36.9,1.19,3.21,1.2,3.21L54.5,81.5l1.19,3.21,1.19,3.21,1.19,3.21,1.2,3.21,1.19,3.21,1.19,3.21L62.84,104,64,107.18l1.2,3.21,1.19,3.21"/><path class="cls-2" d="M78.76,10.13l2.53-2.68"/><path class="cls-2" d="M81.29,7.45h4.6"/><path class="cls-3" d="M84.78,86.07l.07.44.08.45.08.46.07.46.07.48.08.48.07.49.07.5.07.5.07.5.07.52.07.52.07.53.06.53.07.53.07.55.06.54.07.55.06.56.07.55.06.56.07.57.12,1.13.13,1.14.12,1.15.24,2.3.13,1.15.12,1.15.12,1.14.12,1.13.06.57.06.56.06.55.06.56.06.55.06.54.06.54.06.54.06.53.06.52,0,.26v.12h0v0l0,0v0l0,0,0,0v0h.14l.06,0,.14-.08.13-.07.12-.08.12-.08.12-.08.11-.08.11-.08.11-.08.1-.09.1-.08.1-.08.09-.09.09-.09.08-.08.09-.09.07-.09.08-.08.14-.18.14-.18.12-.18.11-.19.1-.18.1-.19.08-.19.08-.19.07-.19.07-.19,0-.19.06-.19,0-.19,0-.19,0-.19,0-.19,0-.1V109h0v-.37l-.49-14.76-1-29.51L89,34.87l-.5-14.75-.12-3.69,0-.92v-.06h0V15.3l0-.19,0-.19,0-.18,0-.18,0-.17,0-.17,0-.16,0-.17,0-.16,0-.15-.06-.3-.06-.3-.07-.28-.07-.29-.07-.28-.07-.27-.08-.28-.07-.28L87.34,11l-.09-.29-.09-.29-.1-.3L87,9.83l0-.16-.06-.16-.07-.16-.06-.16L86.64,9l-.07-.17L86.5,8.7l-.08-.18-.08-.17-.08-.18L86.17,8l-.09-.19L86,7.63l-.1-.19"/><path class="cls-2" d="M86.44,69.57l-.36-49.34"/><path class="cls-2" d="M86.09,20.23l-4.42-6"/><path class="cls-2" d="M86.09,20.23l2.11-5.47"/><path class="cls-4" d="M81.67,14.24l-.38-6.79"/><path class="cls-2" d="M90.55,111.57l-.24-3.07-.24-3.08-.24-3.07-.25-3.07-.24-3.07-.24-3.07-.24-3.08L88.62,87l-.25-3.07-.24-3.07-.25-3.08-.24-3.07-.24-3.07-.1-1-.07-.24-.08-.21L87.06,70l-.1-.15-.11-.12-.12-.08-.12-.07-.13,0-.13,0h-.14l-.13,0-.14,0-.13,0-.13.07-.12.08-.13.08-.12.1-.11.11-.11.11-.11.12-.11.12-.1.13-.1.13-.09.13-.09.13-.36.9-1.19,3.21-1.2,3.21L80.55,81.5l-1.19,3.21-1.19,3.21L77,91.13l-1.2,3.21-1.19,3.21-1.19,3.21L72.21,104,71,107.18l-1.2,3.21-1.19,3.21"/><path class="cls-1" d="M93.72,86.07l.09-.29.16-.32.22-.33.28-.32.33-.32.37-.28.4-.23.44-.17.46-.09H97l.49.1.5.23.83,2.16.86,2.39L100.5,91l.86,2.39.87,2.39.86,2.38.87,2.39.86,2.38.87,2.39.86,2.39.87,2.38.86,2.39.22.58,0,.07,0,.07,0,.06.06.06,0,0,.06.05,0,0,.07,0,.06,0,.06,0,.07,0,.06,0,.07,0,.07,0h.62l.11,0,.1-.1.1-.15.1-.2.1-.23.09-.26.09-.29.07-.3.07-.33.06-.33.05-.33-.4-3.73-.92-7.81-.92-7.8-.91-7.81-.92-7.8-.92-7.81-.92-7.8-.92-7.8-.91-7.81-.92-7.8-.92-7.8-.92-7.82-.6-5.29V10.55l0-.64-.07-1L99.6,8l-.07-.82-.08-.74-.08-.66-.08-.59-.09-.53-.08-.48L99,3.76l-.09-.38L98.85,3l-.09-.32-.09-.3-.1-.27-.1-.25-.1-.23-.1-.21-.1-.19-.1-.17L98,.94,97.87.8l-.1-.12-.11-.1-.11-.1L97.44.41,97.33.34,97.22.29l-.12,0L97,.22l-.11,0h-.24l-.12,0-.13,0-.12,0-.13,0L96,.43l-.12.08-.13.1-.13.11-.14.13L95.35,1l-.14.15-.14.17-.14.19-.14.2-.15.23-.15.24-.15.26-.15.28L94,3l-.15.31-.16.33L93.57,4l-.16.34-.15.34L93.11,5,93,5.37l-.14.35-.14.35-.13.35-.12.35-.12.34-.11.34-.1.34-.1.34-.08.34-.08.34-.07.35-.07.35"/><path class="cls-2" d="M99.73,10.13,97.21,7.45"/><path class="cls-2" d="M97.21,7.45h-4.6"/><path class="cls-2" d="M92.06,69.57l.35-49.34"/><path class="cls-2" d="M92.41,20.23l4.42-6"/><path class="cls-2" d="M92.41,20.23,90.3,14.76"/><path class="cls-4" d="M96.83,14.24l.38-6.79"/><path class="cls-2" d="M110.34,113.1h1.25"/><path class="cls-4" d="M93.72,86.08l-.08.44-.08.44-.07.46-.08.47-.07.47-.07.48-.07.49-.07.5-.08.5-.07.51-.06.51-.07.53-.07.52-.07.53-.07.54-.06.54-.07.55-.06.55-.07.55-.06.56-.07.56-.06.56-.13,1.13-.12,1.15-.12,1.15-.25,2.3-.12,1.15-.12,1.14,0,.16"/><path class="cls-2" d="M90.44,79.18h0l.17-1.4.24-3.07.24-3.07.1-1,.07-.24.08-.21.09-.18.1-.14.11-.12.12-.09.12-.06.13,0,.14,0h.13l.13,0,.14,0,.13,0,.13.06.13.08.12.09.12.1.11.11.12.11.11.12.1.12.1.13.1.13.09.13L94,71l.37.9,1.19,3.21,1.19,3.21,1.19,3.21,1.19,3.21,1.2,3.21,1.19,3.21,1.19,3.21,1.19,3.21,1.19,3.21,1.2,3.21,1.19,3.21,1.19,3.21,1.19,3.21"/><path class="cls-1" d="M128.22,86.07l-.1-.29-.16-.32-.22-.33-.28-.32-.32-.32-.37-.28-.41-.23-.44-.17-.46-.09H125l-.49.1-.5.23-.83,2.16-.86,2.39L121.43,91l-.86,2.39-.87,2.39-.86,2.38-.87,2.39-.86,2.38-.87,2.39-.86,2.39-.87,2.38-.86,2.39-.22.58,0,.07,0,.07,0,.06-.05.06,0,0-.06.05-.06,0-.06,0-.06,0-.06,0-.07,0-.06,0-.07,0-.07,0H112l-.11,0-.1-.1-.1-.15-.1-.2-.1-.23-.09-.26-.09-.29-.07-.3-.07-.33-.06-.33,0-.33.4-3.73.92-7.81.92-7.8.92-7.81.91-7.8.92-7.81.92-7.8.92-7.8.92-7.81.91-7.8.92-7.8.92-7.81.6-5.28V10.56l0-.64.07-1,.08-.9.08-.81.07-.74.08-.66.09-.6.08-.53.09-.48.08-.42.09-.39.09-.35.09-.32.09-.3.1-.27.1-.25.1-.23.1-.2.1-.19.1-.17L124,1l.1-.13.1-.12.11-.11.11-.09.11-.08.11-.06.11-.06.12,0,.12,0h.35l.12,0,.13,0,.12,0,.13.06.12.07.13.08.13.1.13.11.13.12.14.14.14.16.14.17.14.19.14.2.15.22.14.25.15.26.16.28.15.3.16.31.16.32.15.33.15.34.15.35.15.35.15.35.14.36.13.35.13.35.13.34.11.34.11.34.1.34.1.34.09.34.08.35.07.34.06.35"/><path class="cls-2" d="M122.2,10.13l2.53-2.68"/><path class="cls-2" d="M124.73,7.45h4.6"/><path class="cls-3" d="M128.22,86.07l.07.44.08.45.08.46.07.46.07.48.08.48.07.49.07.5.07.5.07.5.07.52.07.52.06.53.07.53.07.53.07.55.06.54.07.55.06.56.07.55.06.56.06.57.13,1.13.13,1.14.12,1.15.24,2.3.12,1.15.12,1.15.12,1.14.12,1.13.06.57.06.56.06.55.06.56.06.55.06.54.06.54.06.54.07.53.06.52,0,.26v.12h0v0l0,0v0l0,0v0l0,0h.13l.07,0,.13-.08.13-.07.13-.08.12-.08.12-.08.11-.08.11-.08.1-.08.1-.09.1-.08.1-.08.1-.09.09-.09.08-.08.08-.09.08-.09.08-.08.14-.18.14-.18.12-.18.11-.19.1-.18.09-.19.09-.19.08-.19.07-.19.06-.19.06-.19.06-.19.05-.19,0-.19,0-.19,0-.19,0-.1V109h0v-.37l-.49-14.76-1-29.51-1-29.51-.5-14.75-.12-3.69,0-.92v-.06h0v0l0-.1,0-.19,0-.19,0-.18,0-.18,0-.17,0-.17,0-.16,0-.17,0-.16,0-.15-.06-.3-.07-.3-.06-.28-.07-.29-.07-.28-.07-.27-.08-.28-.08-.28-.08-.29-.09-.29-.09-.29-.1-.3-.11-.3-.06-.16-.06-.16-.06-.16-.06-.16L130.08,9,130,8.86l-.08-.16-.07-.18-.08-.17-.08-.18L129.61,8l-.09-.19-.09-.18-.1-.19"/><path class="cls-2" d="M129.88,69.57l-.35-49.34"/><path class="cls-2" d="M129.53,20.23l-4.42-6"/><path class="cls-2" d="M129.53,20.23l2.11-5.47"/><path class="cls-4" d="M125.11,14.24l-.38-6.79"/><path class="cls-2" d="M131.3,111.77H130"/><path class="cls-2" d="M131.45,113.1H130"/><path class="cls-2" d="M134,111.57l-.24-3.07-.24-3.08-.25-3.07L133,99.28l-.24-3.07-.24-3.07-.24-3.08L132.05,87l-.24-3.07-.24-3.07-.24-3.07-.24-3.08-.24-3.07-.1-1-.07-.25-.08-.21-.09-.17-.1-.15-.11-.12-.12-.08-.12-.07-.13,0-.13,0h-.14l-.13,0-.14,0-.13,0-.13.07-.12.08-.13.08-.12.1-.11.11-.11.11-.11.12-.11.12-.1.13-.1.13-.09.13-.09.13-.36.9-1.19,3.21-1.2,3.21L124,81.5l-1.19,3.21-1.19,3.21-1.19,3.21-1.2,3.21L118,97.55l-1.19,3.21L115.66,104l-1.19,3.21-1.2,3.21-1.19,3.21"/><path class="cls-2" d="M44.6,79.74l-.15-2-.24-3.07L44,71.63l-.1-1-.06-.25-.08-.21-.1-.17-.1-.15-.11-.12-.11-.08-.13-.07-.13,0-.13,0h-.13l-.14,0-.13,0-.13,0-.13.07-.13.08-.12.08-.12.1-.12.11-.11.11-.11.12-.11.13-.1.12-.1.13-.09.13-.09.13-.36.9L39.5,75.08l-1.19,3.21-1.2,3.21-1.19,3.21-1.19,3.21-1.19,3.21-1.19,3.21-1.2,3.21L30,100.76,28.77,104l-1.19,3.21-1.19,3.21-1.2,3.21"/><path class="cls-2" d="M47.25,111.34l0,0,.09-.18.09-.19.08-.19.07-.19.06-.19.06-.19.05-.19,0-.19.05-.19,0-.19,0-.19,0-.1V109h0v-.36l-.11-3.15"/><path class="cls-2" d="M44.37,111.34v.17l.06.53.06.53.07.53,0,.26v.12h0l0,0v0l0,0,0,0v0l0,0h.13l.07,0,.13-.08.13-.08.13-.07.12-.08.11-.08.12-.08.11-.08,0,0"/><path class="cls-2" d="M89.25,43.63l.29-8.74L90,20.13l.13-3.69,0-.92v-.06h0v-.12l0-.19,0-.19,0-.18,0-.18,0-.17,0-.17,0-.16,0-.16,0-.16,0-.16.07-.3.06-.3.07-.29.06-.28.07-.28.08-.28.07-.28.08-.28.08-.28.09-.29.1-.29.1-.3.1-.31.06-.15.06-.16.06-.16.07-.16L91.85,9l.07-.17L92,8.7l.08-.17.07-.17.09-.18L92.31,8l.09-.18.1-.19.1-.18"/><path class="cls-2" d="M90.69,111.34l0,.17-.06.53-.06.53-.06.53,0,.26v.12h0v0l0,0,0,0v0l0,0v0h-.14l-.07,0-.13-.08-.13-.08-.12-.07-.12-.08-.12-.08-.11-.08-.11-.08,0,0"/><path class="cls-2" d="M87.81,111.34l0,0-.09-.18-.09-.19-.08-.19-.07-.19-.07-.19,0-.19-.06-.19,0-.19,0-.19,0-.19,0-.19,0-.1V109h0v-.36l.11-3.15"/><path class="cls-5" d="M43.23,45.3c0-1.26-.06-7.41-.1-13.67l-.08-11.36.72-1.85c.4-1,.72-1.83.73-1.81s.22,6.13.46,13.58l.45,13.54-.06,1.76c0,1-.07,1.84-.07,1.93v.17h-2Z"/><path class="cls-5" d="M41.08,17.42l-1.45-2v-.67H42c1.55,0,2.34,0,2.34,0s-1.77,4.58-1.78,4.58-.66-.88-1.45-2Z"/><path class="cls-5" d="M44.42,72.23c-.19-1.86-.3-2.25-.75-2.72l-.28-.29-.07-9.57c0-5.26-.13-16.28-.19-24.49L43,20.25l.59-1.49c.48-1.23.62-1.5.78-1.53s.19,0,.19.5c0,.29.19,6,.42,12.69.31,9.08.4,12.73.36,14.42,0,2-.82,25.6-.9,27,0,.32,0,.5,0,.4Z"/><path class="cls-5" d="M38.93,77.77s.51-1.36,1.09-2.94A34.19,34.19,0,0,1,41.5,71,4.16,4.16,0,0,1,42,70.4,1.08,1.08,0,0,1,43,70a.75.75,0,0,1,.32.34c.16.31.17.43.49,4.48.12,1.58.23,2.91.23,3v.08H38.91l0-.06h0Z"/><path class="cls-5" d="M29.71,72.54v-5.3l.54-4.6c.3-2.54.54-4.62.54-4.63s2.64,0,5.86,0h5.87v.16c0,.09,0,2.6,0,5.59,0,4.57,0,5.42,0,5.44l-.12,0a2.34,2.34,0,0,0-.68.36,4.74,4.74,0,0,0-.94,1,28,28,0,0,0-1.63,4.16l-1.15,3.08H29.71V72.54Z"/><path class="cls-5" d="M43.49,99.21c0-.17-.21-1.6-.39-3.16-.38-3.32-.74-6.06-1.12-8.5a7.23,7.23,0,0,0-.53-2.2,4.48,4.48,0,0,0-1.82-1.71,2.25,2.25,0,0,0-1.27-.29c-.88,0-1.48.26-1.67.69-.07.16-.13.25-.13.2s1.19-3.37,3.66-10a21.72,21.72,0,0,1,1.45-3.45c.6-.8,1.24-1,1.58-.59s.33,1,.88,8.4c.07.9-.12,7.73-.55,20.21,0,.58,0,.66-.09.41Z"/><path class="cls-5" d="M91.6,17.05l-.89-2.31.09-.52a24.74,24.74,0,0,1,1.72-5.71l.31-.65h4l0,.5c0,.27-.1,1.67-.18,3.12l-.15,2.63-1.93,2.61c-1.06,1.44-2,2.62-2,2.63s-.44-1-.93-2.3Z"/><path class="cls-5" d="M90,54.19c0-.19-.1-2.65-.2-5.48l-.16-5.15.45-13.46c.25-7.4.46-13.47.47-13.5s.34.8.73,1.84L92,20.31,91.92,35c-.06,8.06-.12,15.76-.14,17.1l0,2.45H90l0-.34Z"/><path class="cls-5" d="M90.58,71.46c0-.51-.16-4.39-.3-8.63s-.31-9.2-.38-11a132.75,132.75,0,0,1-.1-13.53c.09-2.76.18-5.42.21-5.92l0-.92H92V32.9c0,.8-.06,8.11-.13,16.25s-.13,16-.13,17.43V69.2l-.31.32a2.55,2.55,0,0,0-.64,1.81c0,.44-.09.86-.09.93a7,7,0,0,1-.07-.8Z"/><path class="cls-5" d="M91.07,85.91c0-.1-.06-1.65-.12-3.45l-.11-3.28.08-.68c.06-.46.17-1.69.34-3.81a32.35,32.35,0,0,1,.4-4.16A.9.9,0,0,1,92,70c.37-.2,1,.18,1.53,1a2.39,2.39,0,0,1,.28.58c.33.82,5.4,14.5,5.38,14.51h0s-.21-.53-.46-1.16l-.44-1.16-.35-.16a2.49,2.49,0,0,0-1.2-.27,3.39,3.39,0,0,0-2.3,1,3.79,3.79,0,0,0-1,1.59l-.06.19H91.08v-.18Z"/><path class="cls-5" d="M97.19,78.31S96.63,76.82,96,75c-1.3-3.5-1.56-4.18-1.67-4.34a3.32,3.32,0,0,0-1.75-1.49l-.1,0v-.91c0-.5,0-2.73,0-5s0-4.22,0-4.44v-.39h11.77v.1c0,.13,2.32,19.7,2.32,19.73s-9.44,0-9.46,0Z"/><path class="cls-5" d="M105.21,102.79l-3.83-10.55c-1.79-4.94-2.72-7.46-3.12-8.44a1.83,1.83,0,0,0-.5-.26,2.44,2.44,0,0,0-1-.2,2.94,2.94,0,0,0-1,.18,4.13,4.13,0,0,0-2.3,2.34c-.12.37-.49,2.73-.84,5.35-.26,2-.65,5.18-.92,7.71,0,.37-.08.67-.08.67s-.11-3-.24-6.76C91,84.49,91,83.58,91,83.25L91,83h7.11l.19.52c.1.28,1.76,4.74,3.68,9.91s3.49,9.4,3.49,9.41l-.1,0c-.07,0-.1,0-.11,0Z"/><path class="cls-6" d="M130.45,112.45v-.27h.5l0,.2c0,.37.06.34-.25.34h-.28v-.27Z"/><path class="cls-6" d="M89.93,113l0,0,.1-.1.1-.1v.09c0,.14,0,.14-.08.14s-.08,0-.09,0Z"/><path class="cls-6" d="M45,113c0-.07,0-.15,0-.22s.2.18.2.19l0,0s0,0-.09,0H45Z"/><path class="cls-6" d="M4.07,112.63s0-.16,0-.27l0-.2h.5v.54H4.34c-.27,0-.28,0-.28-.07Z"/></g></g></svg>