<svg xmlns="http://www.w3.org/2000/svg" xmlns:xlink="http://www.w3.org/1999/xlink" viewBox="0 0 126.47 482.24"><defs><style>.cls-1,.cls-16,.cls-19,.cls-22{fill:#fff;}.cls-2,.cls-3,.cls-4,.cls-5,.cls-6,.cls-7{opacity:0.03;isolation:isolate;}.cls-2{fill:url(#linear-gradient);}.cls-3{fill:url(#linear-gradient-2);}.cls-4{fill:url(#linear-gradient-3);}.cls-5{fill:url(#linear-gradient-4);}.cls-6{fill:url(#linear-gradient-5);}.cls-7{fill:url(#linear-gradient-6);}.cls-8{fill:url(#radial-gradient);}.cls-9{fill:url(#radial-gradient-2);}.cls-10,.cls-11,.cls-20,.cls-21{fill:none;}.cls-10,.cls-11,.cls-12,.cls-16,.cls-17,.cls-18,.cls-20,.cls-21,.cls-22{stroke:#000;}.cls-10{stroke-width:0.4px;}.cls-11{stroke-width:0.4px;}.cls-12,.cls-13,.cls-18{fill:#f7f7f7;}.cls-12,.cls-16,.cls-17,.cls-18,.cls-21,.cls-22{stroke-linecap:round;}.cls-12,.cls-16,.cls-17,.cls-18,.cls-20,.cls-21,.cls-22{stroke-linejoin:round;}.cls-12,.cls-17,.cls-20,.cls-21,.cls-22{stroke-width:0.3px;}.cls-12,.cls-16,.cls-17,.cls-19,.cls-22{fill-rule:evenodd;}.cls-14{fill:#005288;}.cls-15{fill:#a7a9ac;}.cls-16{stroke-width:0.6px;}.cls-17{fill:#f0f0f0;}.cls-18{stroke-width:0.3px;}.cls-20{stroke-linecap:square;}</style><linearGradient id="linear-gradient" x1="-847.79" y1="787.81" x2="-846.85" y2="787.81" gradientTransform="matrix(19.04, 0, 0, -426.66, 16152.48, 336391.41)" gradientUnits="userSpaceOnUse"><stop offset="0"/><stop offset="1" stop-opacity="0"/></linearGradient><linearGradient id="linear-gradient-2" x1="-853.11" y1="789.18" x2="-852.15" y2="789.18" gradientTransform="matrix(-18.76, 0, 0, 426.52, -17646, -336344.71)" xlink:href="#linear-gradient"/><linearGradient id="linear-gradient-3" x1="-847.56" y1="787.81" x2="-846.61" y2="787.81" gradientTransform="matrix(18.94, 0, 0, -426.05, 16153.46, 335910.94)" xlink:href="#linear-gradient"/><linearGradient id="linear-gradient-4" x1="-853.35" y1="789.18" x2="-852.39" y2="789.18" gradientTransform="matrix(-18.66, 0, 0, 425.92, -17474.21, -335864.01)" xlink:href="#linear-gradient"/><linearGradient id="linear-gradient-5" x1="-847.5" y1="787.81" x2="-846.55" y2="787.81" gradientTransform="matrix(18.92, 0, 0, -425.88, 16089.53, 335772.17)" xlink:href="#linear-gradient"/><linearGradient id="linear-gradient-6" x1="-853.41" y1="789.18" x2="-852.45" y2="789.18" gradientTransform="matrix(-18.64, 0, 0, 425.68, -17497, -335681.92)" xlink:href="#linear-gradient"/><radialGradient id="radial-gradient" cx="-1687.4" cy="7474.6" r="37.21" gradientTransform="matrix(0, -1.21, -0.54, 0, 2735.17, -12677.6)" gradientUnits="userSpaceOnUse"><stop offset="0" stop-color="#fff"/><stop offset="1" stop-color="#f9f9f9"/></radialGradient><radialGradient id="radial-gradient-2" cx="-1477.35" cy="7165.33" r="37.33" gradientTransform="matrix(0, -1.21, -0.54, 0, 2762.86, -12070.98)" xlink:href="#radial-gradient"/></defs><title>heavy_first_stage</title><g id="Layer_2" data-name="Layer 2"><g id="Layer_1-2" data-name="Layer 1"><rect class="cls-1" x="0.82" y="45.34" width="38.19" height="427.47"/><rect class="cls-2" x="1.04" y="45.89" width="19.04" height="426.66"/><rect class="cls-3" x="19.79" y="45.81" width="18.76" height="426.52"/><rect class="cls-1" x="87.55" y="46.17" width="38.19" height="426.86"/><rect class="cls-4" x="87.97" y="46.72" width="18.94" height="426.05"/><rect class="cls-5" x="106.63" y="46.64" width="18.66" height="425.92"/><rect class="cls-1" x="44.19" y="46.33" width="38.19" height="426.64"/><rect class="cls-6" x="44.63" y="46.81" width="18.92" height="425.88"/><rect class="cls-7" x="63.27" y="46.7" width="18.64" height="425.68"/><path class="cls-8" d="M87.74,45.55c0-.33.15-2.35.33-4.49,1.21-14.44,1.53-19.6,5.33-27.4s8.3-12,11.67-13.2c3.66-1.27,8.23,1.47,12.64,9.13a69.55,69.55,0,0,1,5.54,11.9c1,3.05,1.43,8,2,13.64.27,2.5.41,10,.41,10.65v.36H87.74Z"/><path class="cls-9" d="M.8,45.55a33.63,33.63,0,0,1,0-4.6C2,26.45,2.7,21.47,6.5,13.65S14.75,1.46,18.13.29C21.79-1,26.53,2,31,9.65a67.09,67.09,0,0,1,5.28,11.88c1,3.06,1.54,7.77,2.14,13.43.27,2.52.38,10.18.38,10.83v.35H.8Z"/><path class="cls-10" d="M.76,46.25H38.9"/><path class="cls-10" d="M125.78,46.25H87.64"/><path class="cls-10" d="M87.64,46.25h38.14"/><path class="cls-10" d="M82.34,46.33V370.88"/><path class="cls-10" d="M.76,462v17h0v.14l.05.43.07.42.11.43.14.41.16.4.2.39.21.38,0,0,0,0v0H37.89l0,0,.12-.18.21-.38.18-.39.16-.41.12-.42.1-.42.07-.43,0-.43V462"/><path class="cls-10" d="M82.34,462v17a6.09,6.09,0,0,1-1,3.09H45.2a6.09,6.09,0,0,1-1-3.09V462"/><path class="cls-10" d="M87.64,462v17h0v.14l0,.43.08.42.1.43.14.41.16.4.2.39.21.38,0,0,0,0v0h36.13l0,0,.12-.18.21-.38.18-.39.16-.41.12-.42.1-.42.07-.43,0-.43V462"/><path class="cls-11" d="M38.9,370.88V40.05l0-.44-.07-.86-.14-1.66-.14-1.57L38.36,34l-.14-1.4-.15-1.33-.15-1.25-.15-1.19-.16-1.12-.16-1.06-.16-1-.17-1-.18-.9L36.76,23l-.19-.81-.19-.77-.2-.74L36,20l-.22-.68-.22-.66L35,17.38l-.52-1.21L33.94,15l-.62-1.2-.68-1.25-.73-1.28L31.13,10l-.82-1.29L29.44,7.4l-.91-1.22L27.58,5l-.48-.56-.5-.52-.5-.5L25.6,3l-.52-.45-.52-.41L24,1.72l-.53-.34L23,1.08,22.42.82,21.87.61,21.31.42,20.76.31,20.2.24h-.56l-.56.05-.56.1L18,.53l-.55.2L16.88,1l-.54.29-.53.33L15.28,2l-.53.4-.51.44-.51.46-.5.5-.5.52-1,1.11-.94,1.19-.9,1.24L9.07,9.08l-.81,1.3-.77,1.29-.71,1.27-.66,1.23-.6,1.2L5,16.56l-.51,1.22L4,19.06l-.22.67-.21.7-.2.73-.2.75-.19.8-.19.84-.17.89-.17.93-.17,1-.16,1-.16,1.1-.15,1.16-.15,1.24-.15,1.3-.15,1.37L1.2,35l-.14,1.54L.91,38.19.77,39.9v331"/><path class="cls-10" d="M44.2,370.88V46.33"/><path class="cls-11" d="M125.78,370.88V40l0-.44-.07-.86-.15-1.66-.14-1.57L125.23,34l-.14-1.4-.15-1.33-.15-1.25-.15-1.19-.16-1.12-.16-1.06-.16-1-.17-.95-.18-.9-.18-.85-.18-.81-.2-.77-.2-.74-.21-.7-.22-.68-.22-.66-.49-1.25-.52-1.21L120.81,15l-.62-1.2-.67-1.26-.73-1.27L118,9.94l-.82-1.29-.87-1.27-.91-1.22-1-1.16L114,4.45l-.5-.53-.5-.5-.5-.48L112,2.5l-.52-.42-.53-.38-.53-.34-.54-.3L109.3.8l-.55-.21L108.2.42l-.55-.11-.56-.07h-.56L106,.28l-.56.1-.55.15-.55.2-.54.24-.54.29-.54.33-.52.36-.53.4-.51.44-.51.46-.5.5-.5.52-1,1.11-.94,1.18-.9,1.25L96,9.08l-.81,1.3-.77,1.29-.71,1.27L93,14.17l-.6,1.2-.56,1.19-.51,1.22-.47,1.28-.22.67-.21.7-.2.72-.2.76-.19.8-.19.84-.17.89-.17.93-.17,1-.16,1-.16,1.1-.15,1.16-.16,1.22-.15,1.3-.14,1.38L88.08,35l-.14,1.54-.14,1.63-.15,1.72v331"/><path class="cls-12" d="M61.74,29.18c-1.17,1.87-1.52,5.49-1.52,5.49s0,8.13,0,10.13c0,.82,1.08,1.53,1.08,1.53h4s1-.77,1-1.53c0-2.18,0-10.13,0-10.13s-.36-3.61-1.53-5.49Z"/><path class="cls-10" d="M38.9,37.19a6,6,0,0,0,5.3-1.4"/><path class="cls-10" d="M44.2,40.76a13.24,13.24,0,0,0-5.3-.69"/><path class="cls-10" d="M82.34,35.79a6,6,0,0,0,5.3,1.4"/><path class="cls-10" d="M87.64,40.07a13.24,13.24,0,0,0-5.3.69"/><path class="cls-13" d="M42.64,40a11.58,11.58,0,0,0-2.12-.25l-1.22,0V37.63l1.32-.08A5.75,5.75,0,0,0,42.88,37l.94-.48v1.9a6.22,6.22,0,0,1-.14,1.87l-1-.26Z"/><path class="cls-13" d="M82.69,38.39V36.46l.41.26a6.86,6.86,0,0,0,3.25.86h1.06l0,1-.06,1-1.53.11a16.38,16.38,0,0,0-2,.24c-1.18.35-1.09.49-1.09-1.62Z"/><path class="cls-14" d="M66.15,346.14H58.24l-.3.22v7h2.19v-2.64l.21-.19h5.81c1.47,0,2.15-.4,2.15-1.41v-1.62c0-1-.68-1.41-2.15-1.41m0,2.6c0,.48-.32.57-1,.57H60.37l-.23-.22v-1.51l.21-.19h4.8c.68,0,1,.1,1,.58v.77Z"/><path class="cls-14" d="M61.57,362.14l1.88,2.77-.1.26H59.18l-1.07,1.31h6.21l.43.27,1,1.32h2.51l-5.5-7.35"/><path class="cls-14" d="M60.39,398.82v-1.95l.23-.2h4.19v-1.24H58.17v4.82H68V399H60.63"/><rect class="cls-14" x="58.17" y="392.99" width="9.91" height="1.37"/><path class="cls-14" d="M60.36,377.85h8c-.13-1-.76-1.3-2.35-1.3H60.28c-1.8,0-2.38.35-2.38,1.72v3.83c0,1.36.58,1.71,2.38,1.71H66c1.62,0,2.24-.3,2.28-1.35H60.36l-.23-.22V378"/><path class="cls-14" d="M66.06,332.23h-5.8l-.18-.18V330.8l.17-.13h7.83l.11-.26c-.27-.68-1-1-2.24-1H60.51c-1.8,0-2.38.35-2.38,1.71v.8c0,1.37.58,1.72,2.38,1.72h5.8l.18.16v1.3l-.15.2H58s-.2.1-.19.15c.14.95.8,1.22,2.35,1.22h5.92c1.8,0,2.4-.35,2.4-1.71v-1c0-1.37-.6-1.72-2.4-1.72"/><path class="cls-14" d="M60.47,409.82H57.21l-.17.34,3.62,2.64c.68-.4,1.43-.8,2.24-1.2"/><path class="cls-14" d="M63.39,414.79l3.18,2.32h3.3l.14-.3-4.75-3.48c-.63.46-1.25.95-1.87,1.46"/><path class="cls-15" d="M60,417.11H57l-.25-.39c2-1.94,11.16-9.21,23.08-10.14,0,0-10.43,1.16-19.88,10.53"/><path class="cls-16" d="M83.68,27H66.45"/><path class="cls-17" d="M87.22,28.91l-3.57-2.3v2.3Z"/><path class="cls-16" d="M42.77,27H60"/><path class="cls-17" d="M39.23,28.91,42.8,26.6v2.31Z"/><rect class="cls-18" x="19.72" y="28.91" width="87.19" height="1.92"/><path class="cls-12" d="M104.73,46.33s-1.07-.71-1.08-1.53c0-2,0-10.13,0-10.13s.64-6.6,3.07-6.6,3.07,6.6,3.07,6.6,0,7.95,0,10.12c0,.77-1,1.54-1,1.54Z"/><path class="cls-12" d="M17.85,46.33s-1.07-.71-1.08-1.53c0-2,0-10.13,0-10.13s.64-6.6,3.07-6.6,3.07,6.6,3.07,6.6,0,7.95,0,10.12c0,.77-1,1.54-1,1.54Z"/><path class="cls-10" d="M38.9,46.25H.76"/><path class="cls-19" d="M.16,56.91.09,43.81l2.18-3.2L2.2,37.16,3.93,33.9,4.51,32l1.4-.51,1.41.13.83.26.77,2,.44,2.24.07,1.92v2l-.2,1.47,1.67,1.86V56.72L9.62,57Z"/><path class="cls-20" d="M9.61,43.81V57H.15V43.86l1.91-3.31H6.58Z"/><path class="cls-20" d="M2.2,56.69V37.3l1.58-3.17a4.1,4.1,0,0,1,4.79.64l-.23,5.92"/><path class="cls-20" d="M6.38,40.64v16"/><path class="cls-20" d="M6.53,40.6l1.54-.05,2.8,3V56.81l-1.29.13"/><path class="cls-20" d="M6.67,40.51l0-3.26L8.48,35"/><path class="cls-20" d="M3.73,34.13l.82-2a4.62,4.62,0,0,1,3.61-.22,17.56,17.56,0,0,1,1,9.67"/><path class="cls-21" d="M2.29,37A5.51,5.51,0,0,1,6.67,37"/><path class="cls-19" d="M6.36,56.91l3.2-3.2"/><path class="cls-22" d="M6.36,56.91l3.13-3.45"/><path class="cls-22" d="M3.48,56.91l5.95-7.54"/><path class="cls-22" d="M9.49,45.53.61,56.84"/><path class="cls-22" d="M8.6,43,.22,53.71"/><path class="cls-22" d="M7,41.06.29,49.88"/><path class="cls-22" d="M4.25,40.73.17,46"/><path class="cls-22" d="M4.89,56.78.16,50.07"/><path class="cls-22" d="M.29,53.77l2,3.13"/><path class="cls-22" d="M8.06,56.81.22,46.55"/><path class="cls-22" d="M9.43,54.8.48,43.42"/><path class="cls-22" d="M9.56,50.9,1.63,41.57"/><path class="cls-22" d="M9.62,47.19,3.87,40.67"/><path class="cls-19" d="M39.5,56.91l.07-13.11-2.18-3.2.07-3.44L35.73,33.9,35.16,32l-1.41-.51-1.4.13-.84.26-.76,2L30.3,36.2l-.06,1.92v2l.19,1.47-1.66,1.85V56.72L30,57Z"/><path class="cls-20" d="M30.05,43.81V57h9.46V43.86L37.6,40.55H33.08Z"/><path class="cls-20" d="M37.47,56.69V37.3l-1.58-3.17a4.12,4.12,0,0,0-4.8.64l.23,5.92"/><path class="cls-20" d="M33.29,40.64v16"/><path class="cls-20" d="M33.13,40.6l-1.54-.05-2.8,3V56.81l1.28.13"/><path class="cls-20" d="M33,40.51l0-3.26L31.19,35"/><path class="cls-20" d="M35.93,34.13l-.81-2a4.65,4.65,0,0,0-3.62-.22,17.75,17.75,0,0,0-1,9.67"/><path class="cls-21" d="M37.38,37A5.54,5.54,0,0,0,33,37"/><path class="cls-19" d="M33.3,56.91l-3.2-3.2"/><path class="cls-22" d="M33.3,56.91l-3.13-3.45"/><path class="cls-22" d="M36.18,56.91l-5.94-7.54"/><path class="cls-22" d="M30.17,45.53l8.89,11.31"/><path class="cls-22" d="M31.07,43l8.37,10.74"/><path class="cls-22" d="M32.66,41.06l6.72,8.82"/><path class="cls-22" d="M35.41,40.73,39.49,46"/><path class="cls-22" d="M34.77,56.78l4.73-6.71"/><path class="cls-22" d="M39.38,53.78l-2,3.13"/><path class="cls-22" d="M31.61,56.81l7.83-10.26"/><path class="cls-22" d="M30.23,54.8l9-11.38"/><path class="cls-22" d="M30.11,50.9,38,41.57"/><path class="cls-22" d="M30,47.19l5.76-6.52"/><path class="cls-10" d="M44.2,46.26H82.34"/><path class="cls-10" d="M125.78,46.25H87.64"/><path class="cls-19" d="M87,56.91l-.06-13.1,2.17-3.2L89,37.16l1.72-3.26L91.31,32l1.41-.51,1.4.13.83.26.77,2,.45,2.24.06,1.92v2L96,41.63l1.66,1.86V56.72L96.42,57Z"/><path class="cls-20" d="M96.41,43.81V57H87V43.86l1.91-3.31h4.52Z"/><path class="cls-20" d="M89,56.69V37.3l1.58-3.17a4.1,4.1,0,0,1,4.79.64l-.22,5.92"/><path class="cls-20" d="M93.18,40.64v16"/><path class="cls-20" d="M93.34,40.6l1.53-.05,2.8,3V56.81l-1.28.13"/><path class="cls-20" d="M93.47,40.51l0-3.26L95.28,35"/><path class="cls-20" d="M90.54,34.13l.81-2A4.65,4.65,0,0,1,95,31.92a17.75,17.75,0,0,1,1,9.67"/><path class="cls-21" d="M89.09,37A5.51,5.51,0,0,1,93.47,37"/><path class="cls-19" d="M93.16,56.91l3.2-3.2"/><path class="cls-22" d="M93.16,56.91l3.14-3.45"/><path class="cls-22" d="M90.29,56.91l5.94-7.54"/><path class="cls-22" d="M96.3,45.53,87.41,56.84"/><path class="cls-22" d="M95.4,43,87,53.71"/><path class="cls-22" d="M93.8,41.06l-6.71,8.82"/><path class="cls-22" d="M91.05,40.73,87,46"/><path class="cls-22" d="M91.69,56.78,87,50.07"/><path class="cls-22" d="M87.09,53.77l2,3.13"/><path class="cls-22" d="M94.86,56.81,87,46.55"/><path class="cls-22" d="M96.23,54.8l-9-11.38"/><path class="cls-22" d="M96.36,50.9l-7.93-9.33"/><path class="cls-22" d="M96.42,47.19l-5.75-6.52"/><path class="cls-19" d="M126.31,56.91l.06-13.11-2.17-3.2.06-3.44-1.72-3.26L122,32l-1.4-.51-1.41.13-.83.26-.77,2-.45,2.24L117,38.12v2l.19,1.47-1.66,1.85V56.72l1.28.25Z"/><path class="cls-20" d="M116.86,43.81V57h9.46V43.86l-1.91-3.31h-4.52Z"/><path class="cls-20" d="M124.27,56.69V37.3l-1.58-3.17a4.1,4.1,0,0,0-4.79.64l.22,5.92"/><path class="cls-20" d="M120.09,40.64v16"/><path class="cls-20" d="M119.93,40.6l-1.53-.05-2.8,3V56.81l1.28.13"/><path class="cls-20" d="M119.8,40.51l0-3.26L118,35"/><path class="cls-20" d="M122.73,34.13l-.81-2a4.65,4.65,0,0,0-3.62-.22,17.75,17.75,0,0,0-1,9.67"/><path class="cls-21" d="M124.18,37A5.51,5.51,0,0,0,119.8,37"/><path class="cls-19" d="M120.11,56.91l-3.2-3.2"/><path class="cls-22" d="M120.11,56.91,117,53.46"/><path class="cls-22" d="M123,56.91,117,49.37"/><path class="cls-22" d="M117,45.53l8.89,11.31"/><path class="cls-22" d="M117.87,43l8.37,10.74"/><path class="cls-22" d="M119.47,41.06l6.71,8.82"/><path class="cls-22" d="M122.22,40.73,126.29,46"/><path class="cls-22" d="M121.58,56.78l4.73-6.71"/><path class="cls-22" d="M126.18,53.78l-2,3.13"/><path class="cls-22" d="M118.41,56.81l7.83-10.26"/><path class="cls-22" d="M117,54.8,126,43.42"/><path class="cls-22" d="M116.91,50.9l7.93-9.33"/><path class="cls-22" d="M116.85,47.19l5.75-6.52"/><path class="cls-21" d="M68.56,30.8l-2.27-4.12H60.16L57.89,30.8"/><path class="cls-17" d="M59,28.88l1.19-2.2h6.13l1.19,2.17Z"/></g></g></svg>