<svg xmlns="http://www.w3.org/2000/svg" viewBox="0 0 125.31 23.36"><defs><style>.cls-1,.cls-6{fill:#101010;}.cls-2{fill:#f7f7f7;}.cls-3,.cls-5{fill:#333;}.cls-4{fill:none;}.cls-4,.cls-5,.cls-6{stroke:#000;stroke-width:0.4px;}.cls-6{stroke-linecap:round;stroke-linejoin:round;fill-rule:evenodd;}</style></defs><title>heavy_engines</title><g id="Layer_2" data-name="Layer 2"><g id="Layer_1-2" data-name="Layer 1"><path class="cls-1" d="M81.92,2.1v-1h.37a.91.91,0,0,1,.54.11.68.68,0,0,0,.75,0,2.47,2.47,0,0,1,1.52,0,1.45,1.45,0,0,0,.42.12.66.66,0,0,0,.32-.12,1,1,0,0,1,.55-.11h.37v2H81.92Z"/><path class="cls-2" d="M1.82,10a1.12,1.12,0,0,1-.1-.31l0-.11h7l0,.19a.61.61,0,0,1,0,.3l0,.12H1.91L1.82,10Z"/><path class="cls-2" d="M9.59,10a1.6,1.6,0,0,1-.1-.31v-.1l3.56,0a23.54,23.54,0,0,1,3.56.06,1.31,1.31,0,0,1-.1.32l-.09.25H9.68L9.59,10Z"/><path class="cls-2" d="M17.2,10.31s.06-.17.1-.31a2.7,2.7,0,0,1,.12-.35l0-.1,1.78,0,1.77,0,0,.11a5.57,5.57,0,0,0,.19.6c0,.08-.08.08-2,.08a10.5,10.5,0,0,1-2-.05Z"/><path class="cls-2" d="M21.94,10a1.19,1.19,0,0,1-.1-.32V9.55l3.56,0,3.56,0,0,.11a1.12,1.12,0,0,1-.1.31l-.08.19H22l-.1-.23Z"/><path class="cls-2" d="M29.74,10.06a.54.54,0,0,1,0-.31l0-.19h7v.11a1.51,1.51,0,0,1-.1.3l-.09.2H29.79l-.05-.11Z"/><path class="cls-2" d="M45.24,10c-.2-.52-.39-.49,3.38-.49h3.47l.06.23c.13.49.13.49-3.49.49H45.33L45.24,10Z"/><path class="cls-2" d="M53.36,10.18a.52.52,0,0,1-.47-.56,30.35,30.35,0,0,1,3.57-.09c3.38,0,3.57,0,3.57.16a.6.6,0,0,1-.12.32c-.09.14-.42.16-3.18.18-1.69,0-3.21,0-3.37,0Z"/><path class="cls-2" d="M60.66,10.26c0-.13.06-.27.1-.4l.09-.34h3.59l.13.41.14.4h-2a15.21,15.21,0,0,1-2-.07Z"/><path class="cls-2" d="M66.18,10.18c-.71,0-.9-.13-.9-.49,0-.15.18-.16,3.57-.16s3.57,0,3.57.16a.67.67,0,0,1-.13.34c-.12.17-.26.18-2.78.18-1.46,0-3,0-3.33,0Z"/><path class="cls-2" d="M73.5,10.16c-.28,0-.32-.07-.32-.32V9.57l3.5,0c3.76,0,3.63,0,3.39.43L80,10.2H76.89c-1.69,0-3.22,0-3.39,0Z"/><path class="cls-1" d="M43.58.16l38,.06,0,6.7L80.15,10.5,45,10.4,43.61,6.81Z"/><path class="cls-2" d="M88.68,10c-.19-.5-.37-.48,3.39-.48,3.44,0,3.47,0,3.52.19s0,.44-.29.45l-3.39,0-3.15,0L88.68,10Z"/><path class="cls-2" d="M96.81,10.18c-.32,0-.43-.16-.44-.54,0-.08.78-.11,3.57-.11a30.52,30.52,0,0,1,3.58.09,1.6,1.6,0,0,1-.1.31c-.1.22-.15.23-.8.24l-3.08,0c-1.32,0-2.54,0-2.72,0Z"/><path class="cls-2" d="M104.1,10.18c0-.13.08-.27.11-.4l.05-.25h3.66l0,.25c0,.13.07.27.11.4s-.07.16-2,.16-2,0-2-.16Z"/><path class="cls-2" d="M109.6,10.18c-.73,0-.74,0-.83-.3a2,2,0,0,1-.1-.32s1.62,0,3.61,0,3.62,0,3.62,0a3,3,0,0,1-.1.32c-.09.24-.15.29-.43.3-.55,0-5,0-5.77,0Z"/><path class="cls-2" d="M116.94,10.18c-.32,0-.4-.13-.34-.42l0-.22h7l-.08.28a1.43,1.43,0,0,1-.14.34c-.06.06-6,.08-6.5,0Z"/><path class="cls-1" d="M87.11.16l38,.06,0,6.7-1.42,3.58-35.12-.1L87.14,6.81Z"/><path class="cls-1" d="M38.27,1.88V.93h.46a1.82,1.82,0,0,1,.66.09A.86.86,0,0,0,40,1a6.33,6.33,0,0,1,2,0c.25,0,.38,0,.38,0s.2-.08.51-.08h.51v1.9h-5.1V1.89Z"/><path class="cls-1" d="M.17.26l38,.06,0,6.7-1.43,3.59L1.62,10.5.2,6.91Z"/><path class="cls-3" d="M95.64,15.92c-.4-1-.92-2.13-1.45-3.15l-.2-.41.08-.15c.15-.27.49-.87.7-1.21l.07-.12h2l.08.13c.17.29.63,1.08.74,1.29l0,.06-.1.2C97,13.66,96.46,14.9,96,16.05l-.07.19h-.14l-.13-.33h0Z"/><path class="cls-3" d="M116.06,15.59c-.4-1-.93-2.13-1.46-3.15l-.2-.4.09-.16c.14-.27.48-.87.69-1.21l.07-.12h2l.08.13c.18.29.63,1.08.74,1.29l0,.07-.1.2a37.75,37.75,0,0,0-1.61,3.48l-.08.19h-.14l-.13-.33h0Z"/><path class="cls-3" d="M103.82,14.47c.17-.32.48-.9.69-1.27l.39-.69-.46-.8-.46-.8h-.78c-.67,0-.78,0-.78-.09s-.07-.08-.34-.06-.34,0-.45.21l-.11.19.58,1.12c.33.61.76,1.49,1,1.94a8.16,8.16,0,0,0,.41.84,4.3,4.3,0,0,0,.34-.59Z"/><path class="cls-3" d="M108.54,14.43c-.16-.32-.47-.9-.69-1.27l-.38-.69.45-.8.46-.8h.78c.67,0,.78,0,.78-.09s.07-.08.34-.06.35,0,.45.21l.11.19-.58,1.12c-.32.61-.76,1.49-1,1.94a5.43,5.43,0,0,1-.41.84,4.3,4.3,0,0,1-.34-.59Z"/><path class="cls-3" d="M101.23,23.25s.18-.78.21-.87c.36-4.64.73-3.68,2.21-6.5a29.66,29.66,0,0,1,1.57-3.14l.28-.5v-1.3h1.4v1.32l.3.52c.31.55,1.18,2.24,1.38,2.69l.12.26a44.7,44.7,0,0,1,2.34,7,4.58,4.58,0,0,1,.09.47c0,.06,0,.06-4.95.06-2.72,0-4.94,0-4.94,0Z"/><path class="cls-3" d="M52.16,15.87c-.4-1-.92-2.11-1.45-3.12l-.2-.4.09-.15.69-1.2.07-.12h2l.08.13.73,1.27,0,.07-.11.2C53.55,13.63,53,14.86,52.51,16l-.07.19h-.15l-.13-.33h0Z"/><path class="cls-3" d="M72.52,15.54c-.4-1-.92-2.1-1.45-3.12l-.2-.39.09-.16c.15-.27.48-.86.69-1.2l.07-.12h2l.08.13L74.55,12l0,.07-.11.2c-.57,1.09-1.14,2.32-1.61,3.45l-.07.19h-.14l-.13-.32h0Z"/><path class="cls-3" d="M60.32,14.44c.17-.32.47-.89.69-1.26l.38-.69-.45-.79-.46-.79H59.7c-.66,0-.78,0-.78-.09s-.06-.08-.33-.06-.35,0-.45.2l-.11.19.58,1.11c.32.61.75,1.48,1,1.93A6.34,6.34,0,0,0,60,15a3.25,3.25,0,0,0,.33-.57Z"/><path class="cls-3" d="M65,14.4c-.17-.32-.47-.89-.69-1.27L64,12.45l.45-.79.46-.79h.78c.66,0,.78,0,.78-.09s.06-.08.33-.06.35,0,.45.2l.11.19-.58,1.11c-.32.61-.75,1.48-1,1.93a6.34,6.34,0,0,1-.42.82A3.25,3.25,0,0,1,65,14.4Z"/><path class="cls-3" d="M57.74,23.13s.17-.78.2-.86c.36-4.6.73-3.65,2.21-6.44a31.14,31.14,0,0,1,1.56-3.11l.29-.49V10.94h1.39v1.3l.3.52c.31.55,1.17,2.22,1.37,2.67l.12.26a42.27,42.27,0,0,1,2.34,6.94,4.11,4.11,0,0,1,.09.46c0,.06,0,.06-4.94.06-2.71,0-4.93,0-4.93,0Z"/><path class="cls-3" d="M8.71,15.87c-.4-1-.93-2.11-1.46-3.12L7,12.35l.09-.15c.15-.27.49-.86.7-1.2l.07-.12h2L10,11c.17.29.63,1.07.74,1.27l0,.07-.1.2A36.13,36.13,0,0,0,9.06,16L9,16.19H8.85l-.14-.33h0Z"/><path class="cls-3" d="M29.18,15.54c-.4-1-.93-2.1-1.46-3.12l-.2-.39.08-.16c.15-.27.49-.86.7-1.2l.07-.12h2l.08.13c.18.29.63,1.07.74,1.27l0,.07-.11.2c-.58,1.09-1.15,2.32-1.62,3.45l-.08.19h-.13l-.13-.32h0Z"/><path class="cls-3" d="M16.91,14.44c.16-.32.48-.89.69-1.26l.39-.69-.46-.79-.46-.79h-.78c-.67,0-.79,0-.79-.09s-.06-.08-.34-.06-.34,0-.45.2l-.11.19.59,1.11c.32.61.76,1.48,1,1.93a6.27,6.27,0,0,0,.41.82,4.08,4.08,0,0,0,.34-.57Z"/><path class="cls-3" d="M21.64,14.4c-.16-.32-.47-.89-.69-1.27l-.38-.68.45-.79.46-.79h.78c.68,0,.79,0,.79-.09s.07-.08.34-.06.34,0,.45.2l.11.19-.59,1.11c-.32.61-.76,1.48-1,1.93A6.34,6.34,0,0,1,22,15a4.08,4.08,0,0,1-.34-.57Z"/><path class="cls-3" d="M14.32,23.13s.17-.78.2-.86c.36-4.6.73-3.65,2.22-6.44a31.23,31.23,0,0,1,1.57-3.11l.29-.49V10.94H20v1.3l.3.52c.31.55,1.18,2.22,1.38,2.67l.12.26a43.27,43.27,0,0,1,2.35,6.94,4.11,4.11,0,0,1,.09.46c0,.06,0,.06-5,.06-2.73,0-5,0-5,0Z"/><path class="cls-4" d="M43.59.2H81.73"/><path class="cls-4" d="M.15.2H38.29"/><path class="cls-4" d="M87,.2h38.14"/><path class="cls-4" d="M69.88,10.57H67.8"/><path class="cls-4" d="M47.57,21.45h10"/><path class="cls-4" d="M51.55,10.57h2.08"/><path class="cls-4" d="M54.54,12.27c-.29-.58-.59-1.14-.9-1.7"/><path class="cls-4" d="M51.55,10.57c-.32.56-.62,1.12-.9,1.69"/><path class="cls-4" d="M58.47,10.57H60"/><path class="cls-4" d="M61.56,12.47c-.29-.58-.6-1.16-.92-1.74"/><path class="cls-4" d="M58.47,10.57q-.26.43-.48.87"/><path class="cls-4" d="M77.75,21.45h-10"/><path class="cls-4" d="M73.76,10.57H71.68"/><path class="cls-4" d="M71.68,10.57c-.31.56-.61,1.12-.9,1.69"/><path class="cls-4" d="M74.67,12.27c-.29-.58-.59-1.14-.9-1.7"/><path class="cls-4" d="M66.85,10.57H65.28"/><path class="cls-4" d="M52.48,9.18a2.08,2.08,0,0,0,.44,1.4"/><path class="cls-4" d="M60,10.57a2.08,2.08,0,0,0,.44-1.4"/><path class="cls-4" d="M52.92,10.57H60"/><path class="cls-4" d="M64.84,9.18a2.13,2.13,0,0,0,.44,1.4"/><path class="cls-4" d="M72.39,10.57a2.14,2.14,0,0,0,.45-1.4"/><path class="cls-4" d="M65.28,10.57h7.11"/><path class="cls-4" d="M60.64,10.74h4"/><path class="cls-4" d="M59,10.57a.91.91,0,0,0,.11.16"/><path class="cls-4" d="M66.21,10.74l.12-.16"/><path class="cls-4" d="M59.1,10.74h7.11"/><path class="cls-4" d="M64.78,10.74c-.32.57-.63,1.15-.92,1.74"/><path class="cls-4" d="M64.78,10.74c-.32.57-.63,1.15-.92,1.74"/><path class="cls-4" d="M67.37,11.35,67,10.58"/><path class="cls-4" d="M58.05,21.46c-.14.56-.26,1.12-.37,1.7H67.73c-.1-.57-.23-1.14-.36-1.7"/><path class="cls-4" d="M59.93,15.77a36.76,36.76,0,0,1,1.74-3.5V10.73"/><path class="cls-4" d="M63.75,10.74v1.54a35.09,35.09,0,0,1,1.68,3.36"/><path class="cls-5" d="M52.59,17a34.83,34.83,0,0,0-2.84-6.43H47.67a35.21,35.21,0,0,0-4,10.87h10"/><path class="cls-4" d="M44.71,9.18a2.13,2.13,0,0,0,.44,1.4h7.11a1.86,1.86,0,0,0,.33-.6"/><path class="cls-4" d="M72.72,10a2.19,2.19,0,0,0,.33.6h7.11a2.14,2.14,0,0,0,.45-1.4"/><path class="cls-5" d="M71.58,21.45h10a35.19,35.19,0,0,0-4-10.87H75.57A34.86,34.86,0,0,0,72.72,17"/><path class="cls-5" d="M69.88,10.57a35,35,0,0,1,4,10.88h-10a35,35,0,0,1,4-10.88"/><path class="cls-5" d="M55.43,10.57a35.24,35.24,0,0,0-4,10.88h10a35.24,35.24,0,0,0-4-10.88Z"/><path class="cls-4" d="M26.44,10.57H24.36"/><path class="cls-4" d="M4.13,21.45h10"/><path class="cls-4" d="M8.11,10.57h2.08"/><path class="cls-4" d="M11.09,12.27c-.28-.58-.58-1.14-.9-1.7"/><path class="cls-4" d="M8.11,10.57c-.32.56-.62,1.12-.9,1.69"/><path class="cls-4" d="M15,10.57h1.56"/><path class="cls-4" d="M18.12,12.47c-.29-.58-.6-1.16-.92-1.74"/><path class="cls-4" d="M15,10.57l-.48.87"/><path class="cls-4" d="M34.31,21.45h-10"/><path class="cls-4" d="M30.32,10.57H28.24"/><path class="cls-4" d="M28.24,10.57c-.31.56-.61,1.12-.9,1.69"/><path class="cls-4" d="M31.22,12.27c-.28-.58-.58-1.14-.9-1.7"/><path class="cls-4" d="M23.41,10.57H21.84"/><path class="cls-4" d="M9,9.18a2.19,2.19,0,0,0,.44,1.4"/><path class="cls-4" d="M16.59,10.57A2.08,2.08,0,0,0,17,9.17"/><path class="cls-4" d="M9.48,10.57h7.11"/><path class="cls-4" d="M21.4,9.18a2.13,2.13,0,0,0,.44,1.4"/><path class="cls-4" d="M29,10.57a2.19,2.19,0,0,0,.44-1.4"/><path class="cls-4" d="M21.84,10.57H29"/><path class="cls-4" d="M17.2,10.74h4"/><path class="cls-4" d="M15.55,10.57a.91.91,0,0,0,.11.16"/><path class="cls-4" d="M22.77,10.74l.12-.16"/><path class="cls-4" d="M15.66,10.74h7.11"/><path class="cls-4" d="M21.34,10.74c-.32.57-.63,1.15-.92,1.74"/><path class="cls-4" d="M21.34,10.74c-.32.57-.63,1.15-.92,1.74"/><path class="cls-4" d="M23.93,11.35c-.13-.26-.28-.52-.42-.77"/><path class="cls-4" d="M14.61,21.46c-.14.56-.26,1.12-.37,1.7h10c-.11-.57-.23-1.14-.36-1.7"/><path class="cls-4" d="M16.49,15.77a36.76,36.76,0,0,1,1.74-3.5V10.73"/><path class="cls-4" d="M20.3,10.74v1.54A35.17,35.17,0,0,1,22,15.64"/><path class="cls-5" d="M9.15,17A34.21,34.21,0,0,0,6.3,10.59H4.22a35.19,35.19,0,0,0-4,10.87h10"/><path class="cls-4" d="M1.27,9.18a2.13,2.13,0,0,0,.44,1.4H8.83a2,2,0,0,0,.32-.6"/><path class="cls-4" d="M29.28,10a2.19,2.19,0,0,0,.33.6h7.11a2.14,2.14,0,0,0,.45-1.4"/><path class="cls-5" d="M28.14,21.45h10a35.19,35.19,0,0,0-4-10.87H32.13A34.86,34.86,0,0,0,29.28,17"/><path class="cls-5" d="M26.44,10.57a35.24,35.24,0,0,1,4,10.88h-10a35.26,35.26,0,0,1,4-10.88"/><path class="cls-5" d="M12,10.57A35.26,35.26,0,0,0,8,21.45h10a35.24,35.24,0,0,0-4-10.88Z"/><path class="cls-4" d="M113.32,10.57h-2.08"/><path class="cls-4" d="M91,21.45h10"/><path class="cls-4" d="M95,10.57h2.08"/><path class="cls-4" d="M98,12.27c-.28-.58-.58-1.14-.9-1.7"/><path class="cls-4" d="M95,10.57c-.31.56-.61,1.12-.9,1.69"/><path class="cls-4" d="M101.91,10.57h1.56"/><path class="cls-4" d="M105,12.47c-.28-.58-.59-1.16-.91-1.74"/><path class="cls-4" d="M101.91,10.57l-.48.87"/><path class="cls-4" d="M121.19,21.45h-10"/><path class="cls-4" d="M117.2,10.57h-2.08"/><path class="cls-4" d="M115.12,10.57c-.31.56-.61,1.12-.9,1.69"/><path class="cls-4" d="M118.1,12.27c-.28-.58-.58-1.14-.9-1.7"/><path class="cls-4" d="M110.29,10.57h-1.57"/><path class="cls-4" d="M95.92,9.18a2.08,2.08,0,0,0,.44,1.4"/><path class="cls-4" d="M103.47,10.57a2.08,2.08,0,0,0,.44-1.4"/><path class="cls-4" d="M96.36,10.57h7.11"/><path class="cls-4" d="M108.28,9.18a2.19,2.19,0,0,0,.44,1.4"/><path class="cls-4" d="M115.83,10.57a2.14,2.14,0,0,0,.45-1.4"/><path class="cls-4" d="M108.72,10.57h7.12"/><path class="cls-4" d="M104.08,10.74h4"/><path class="cls-4" d="M102.43,10.57a.91.91,0,0,0,.11.16"/><path class="cls-4" d="M109.66,10.74l.11-.16"/><path class="cls-4" d="M102.54,10.74h7.11"/><path class="cls-4" d="M108.22,10.74c-.32.57-.63,1.15-.92,1.74"/><path class="cls-4" d="M108.22,10.74c-.32.57-.63,1.15-.92,1.74"/><path class="cls-4" d="M110.81,11.35l-.42-.77"/><path class="cls-4" d="M101.49,21.46c-.14.56-.26,1.12-.37,1.7h10c-.11-.57-.23-1.14-.36-1.7"/><path class="cls-4" d="M103.37,15.77a32.56,32.56,0,0,1,1.74-3.5V10.73"/><path class="cls-4" d="M107.19,10.74v1.54a35.09,35.09,0,0,1,1.68,3.36"/><path class="cls-5" d="M96,17a34.83,34.83,0,0,0-2.84-6.43H91.11a34.93,34.93,0,0,0-4,10.87h10"/><path class="cls-4" d="M88.15,9.18a2.13,2.13,0,0,0,.44,1.4H95.7A1.86,1.86,0,0,0,96,10"/><path class="cls-4" d="M116.16,10a2.19,2.19,0,0,0,.33.6h7.11a2.08,2.08,0,0,0,.44-1.4"/><path class="cls-5" d="M115,21.45h10a34.93,34.93,0,0,0-4-10.87H119A34.83,34.83,0,0,0,116.17,17"/><path class="cls-5" d="M113.32,10.57a35,35,0,0,1,4,10.88h-10a35,35,0,0,1,4-10.88"/><path class="cls-5" d="M98.88,10.57a35,35,0,0,0-4,10.88h10a35.24,35.24,0,0,0-4-10.88Z"/><path class="cls-4" d="M81.73,3.15H87"/><path class="cls-4" d="M38.29,3.17h5.3"/><path class="cls-4" d="M39.54.85H38.29"/><path class="cls-4" d="M39.69,2.18h-1.4"/><path class="cls-4" d="M42.33.85h1.26"/><path class="cls-4" d="M42.18,2.18h1.4"/><path class="cls-4" d="M62,2.18h1.25"/><path class="cls-4" d="M83,.85H81.73"/><path class="cls-4" d="M83.14,2.18H81.73"/><path class="cls-4" d="M85.76.85H87"/><path class="cls-4" d="M85.62,2.18H87"/><path class="cls-6" d="M33.73,4.23h6.63l1.16.51h3.64l1-1.09h1.69c.5,0,.9,1,.9,1.48V6.4c0,.5-.44,1.75-.9,1.57H46.21L45.16,6.63H41.48l-1.15.67h-6.6a.9.9,0,0,1-.9-.9h0V5.13a.9.9,0,0,1,.89-.9Z"/><path class="cls-6" d="M91.57,4.23H84.94l-1.15.51H80.15l-1-1.09H77.47c-.5,0-.9,1-.9,1.48V6.4c0,.5.44,1.75.9,1.57h1.62l1.06-1.34h3.67L85,7.3h6.6a.9.9,0,0,0,.9-.9h0V5.13a.89.89,0,0,0-.89-.9Z"/></g></g></svg>