<svg xmlns="http://www.w3.org/2000/svg" width="50.202" height="118.561" viewBox="0 0 50.202 118.561"><defs><style>.a,.b{fill:#f2f2f2;}.a,.b,.c,.d{stroke:#000;stroke-width:0.4px;}.b,.d{stroke-linecap:round;}.c,.d{fill:none;}</style></defs><g transform="translate(0.2 0.2)"><path class="a" d="M316.062,1057.16l.1-.3.168-.331.232-.344.289-.342.34-.324.385-.291.423-.242.455-.177.48-.1h.5l.512.111.518.24.859,2.248.9,2.485.9,2.485.9,2.485.9,2.485.9,2.485.9,2.485.9,2.485.9,2.485.9,2.485.9,2.485.9,2.485.227.6.043.074.047.07.05.064.053.059.056.056.059.051.061.045.063.041.065.036.066.032.068.027.069.024.069.021.069.021h.644l.112-.051.111-.106.108-.158.1-.2.1-.24.094-.273.087-.3.08-.321.071-.336.062-.345.051-.349-.412-3.886-.956-8.13-.956-8.13-.956-8.13-.956-8.13-.956-8.13-.956-8.13-.956-8.13-.956-8.13-.956-8.13-.956-8.13-.956-8.13-.627-5.505,0-.534,0-.534,0-.534,0-.535,0-.534,0-.534,0-.534,0-.534,0-.534,0-.535,0-.534-.021-.669-.076-1.04-.078-.942-.08-.851-.082-.767-.084-.69-.085-.619-.087-.554-.089-.5-.091-.446-.092-.4-.094-.364-.1-.333-.1-.307-.1-.283-.1-.26-.1-.238-.1-.216-.1-.2-.106-.177-.107-.159-.109-.142-.11-.125-.112-.11-.113-.1-.115-.083-.117-.069-.118-.056-.12-.043-.121-.03-.122-.017-.124,0-.125.009-.127.022-.128.035-.13.047-.131.06-.132.072-.133.085-.135.1-.137.113-.138.129-.14.145-.142.161-.145.178-.147.2-.149.214-.152.233-.155.252-.158.273-.16.291-.161.308-.162.323-.162.335-.161.346-.16.354-.158.361-.155.365-.151.368-.146.368-.141.366-.135.362-.129.359-.122.356-.115.354-.107.353-.1.354-.091.355-.082.357-.073.36-.064.365" transform="translate(-309.13 -967.711)"/><path class="b" d="M318.611,1053.158l-.08.459-.079.468-.078.476-.077.485-.076.493-.076.5-.075.509-.074.516-.073.523-.073.53-.072.536-.072.542-.071.548-.07.554-.07.559-.069.564-.069.568-.068.573-.068.577-.067.58-.067.583-.066.587-.132,1.181-.13,1.19-.129,1.2-.254,2.4-.126,1.2-.125,1.2-.125,1.189-.125,1.18-.062.586-.062.583-.062.58-.062.576-.062.572-.063.568-.063.563-.063.558-.063.553-.063.547-.032.271-.008.068,0,.034,0,.021h0l-.015.036-.017.03-.017.026-.017.021-.017.021-.017.021h-.139l-.071-.034-.138-.079-.134-.081-.13-.081-.126-.081-.122-.083-.118-.083-.114-.085-.11-.085-.107-.085-.1-.087-.1-.087-.1-.089-.092-.09-.089-.089-.086-.089-.083-.092-.08-.092-.15-.185-.138-.188-.127-.19-.117-.192-.107-.194-.1-.194-.09-.2-.082-.2-.074-.2-.068-.2-.062-.2-.056-.2-.051-.2-.047-.2-.043-.2-.04-.2-.019-.1-.008-.049,0-.026h0v-.021l0-.119.009-.24.513-15.37,1.026-30.739,1.026-30.739.513-15.369.128-3.842.032-.96,0-.06v-.013h0v-.006l0-.013,0-.026.015-.1.031-.2.031-.193.031-.188.031-.184.031-.18.031-.176.031-.172.032-.169.032-.165.032-.162.065-.317.067-.307.069-.3.071-.294.073-.291.076-.29.079-.29.082-.292.086-.3.091-.3.1-.305.1-.311.113-.318.06-.162.062-.164.065-.166.068-.168.07-.171.073-.173.076-.175.08-.178.083-.181.086-.183.09-.187.094-.19.1-.193.1-.2" transform="translate(-311.679 -963.709)"/><path class="a" d="M341.278,1057.16l-.1-.3-.168-.331-.232-.344-.289-.342-.34-.324-.385-.291-.423-.242-.455-.177-.48-.1h-.5l-.512.111-.518.24-.859,2.248-.9,2.485-.9,2.485-.9,2.485-.9,2.485-.9,2.485-.9,2.485-.9,2.485-.9,2.485-.9,2.485-.9,2.485-.9,2.485-.228.6-.043.074-.047.07-.05.064-.053.059-.056.056-.059.051-.061.045-.063.041-.065.036-.066.032-.068.027-.069.024-.069.021-.069.021h-.644l-.112-.051-.111-.106-.108-.158-.1-.2-.1-.24-.094-.273-.087-.3-.08-.321-.071-.336-.062-.345-.051-.349.412-3.886.956-8.13.956-8.13.956-8.13.956-8.13.956-8.13.956-8.13.956-8.13.956-8.13.956-8.13.956-8.13.956-8.13.627-5.505,0-.534,0-.534,0-.534,0-.535,0-.534,0-.534,0-.534,0-.534,0-.534,0-.535,0-.534.021-.669.076-1.04.078-.942.08-.851.082-.767.083-.69.085-.619.087-.554.089-.5.091-.446.092-.4.094-.364.1-.333.1-.307.1-.283.1-.26.1-.238.1-.216.1-.2.106-.177.107-.159.109-.142.11-.125.112-.11.113-.1.115-.083.117-.069.118-.056.12-.043.121-.03.122-.017.124,0,.125.009.127.022.128.035.13.047.131.06.132.072.133.085.135.1.137.113.138.129.14.145.142.161.145.178.147.2.149.214.152.233.155.252.158.273.16.291.161.308.162.323.162.335.161.346.16.354.158.361.155.365.151.368.146.368.141.366.135.362.129.359.122.356.115.354.107.353.1.354.091.355.082.357.073.36.064.365" transform="translate(-298.408 -967.711)"/><path class="b" d="M331.8,1053.158l.08.459.079.468.078.476.077.485.076.493.076.5.075.509.074.516.073.523.073.53.072.536.072.542.071.548.07.554.07.559.069.564.069.568.068.573.068.577.067.58.067.583.066.587.132,1.181.13,1.19.129,1.2.254,2.4.126,1.2.126,1.2.125,1.189.125,1.18.062.586.062.583.062.58.062.576.062.572.063.568.063.563.063.558.063.553.063.547.032.271.009.068,0,.034,0,.021h0l.015.036.017.03.017.026.017.021.017.021.017.021h.139l.071-.034.139-.079.134-.081.13-.081.126-.081.122-.083.118-.083.114-.085.11-.085.107-.085.1-.087.1-.087.1-.089.092-.09.089-.089.086-.089.083-.092.08-.092.15-.185.138-.188.127-.19.117-.192.107-.194.1-.194.09-.2.082-.2.074-.2.068-.2.062-.2.056-.2.051-.2.047-.2.043-.2.04-.2.019-.1.009-.049,0-.026h0v-.021l0-.119-.009-.24-.513-15.37-1.026-30.739-1.026-30.739-.513-15.369-.128-3.842-.032-.96,0-.06v-.013h0v-.006l0-.013,0-.026-.015-.1-.031-.2-.031-.193-.031-.188-.031-.184-.031-.18-.031-.176-.031-.172-.032-.169-.032-.165-.032-.162-.065-.317-.067-.307-.069-.3-.071-.294-.073-.291-.076-.29-.079-.29-.082-.292-.086-.3-.091-.3-.1-.305-.1-.311-.113-.318-.06-.162-.062-.164-.065-.166-.068-.168-.07-.171-.073-.173-.076-.175-.08-.178-.083-.181-.086-.183-.09-.187-.094-.19-.1-.193-.1-.2" transform="translate(-288.928 -963.709)"/><path class="c" d="M319.267,974.045l-2.63-2.785" transform="translate(-306.071 -963.699)"/><path class="c" d="M319.183,971.259h-4.8" transform="translate(-308.616 -963.699)"/><path class="c" d="M314.119,1028.894l.372-51.394" transform="translate(-308.919 -956.641)"/><path class="c" d="M314.293,980.813l4.6-6.233" transform="translate(-308.723 -959.944)"/><path class="c" d="M315.46,980.529l-2.2-5.7" transform="translate(-309.89 -959.66)"/><path class="d" d="M316.454,978.335l.393-7.075" transform="translate(-306.279 -963.698)"/><path class="c" d="M313.428,1022.25h1.308" transform="translate(-309.701 -906.038)"/><path class="c" d="M313.353,1022.91h1.468" transform="translate(-309.786 -905.292)"/><path class="c" d="M323.059,1022.91h1.3" transform="translate(-298.81 -905.292)"/><path class="c" d="M323.255,1022.25h.467" transform="translate(-298.588 -906.038)"/><path class="c" d="M312.11,1045.385l.252-3.2.252-3.2.252-3.2.252-3.2.252-3.2.252-3.2.252-3.2.252-3.2.252-3.2.252-3.2.252-3.2.252-3.2.252-3.2.106-1.015.07-.254.084-.218.1-.183.106-.151.115-.121.123-.092.129-.066.134-.041.137-.021h.14l.14.021.139.038.137.053.134.068.131.081.128.092.125.1.121.111.117.117.114.123.11.128.105.132.1.134.1.136.093.136.377.938,1.242,3.344,1.242,3.344,1.242,3.344,1.242,3.344,1.242,3.344,1.242,3.344,1.242,3.344,1.242,3.344,1.242,3.344,1.242,3.344,1.242,3.344,1.242,3.344,1.242,3.344" transform="translate(-311.191 -929.364)"/><path class="c" d="M328.858,974.045l2.629-2.785" transform="translate(-292.253 -963.699)"/><path class="c" d="M330.092,971.259h4.8" transform="translate(-290.857 -963.699)"/><path class="c" d="M332.808,1028.894l-.372-51.394" transform="translate(-288.206 -956.641)"/><path class="c" d="M334.88,980.813l-4.6-6.233" transform="translate(-290.648 -959.944)"/><path class="c" d="M332.437,980.529l2.2-5.7" transform="translate(-288.205 -959.66)"/><path class="d" d="M330.485,978.335l-.393-7.075" transform="translate(-290.858 -963.698)"/><path class="c" d="M334,1022.25h-1.308" transform="translate(-287.921 -906.038)"/><path class="c" d="M334.156,1022.91h-1.468" transform="translate(-287.921 -905.292)"/><path class="c" d="M346.738,1045.385l-.252-3.2-.252-3.2-.252-3.2-.252-3.2-.252-3.2-.252-3.2-.252-3.2-.252-3.2-.252-3.2-.252-3.2-.252-3.2-.252-3.2-.252-3.2-.106-1.015-.07-.254-.084-.218-.1-.183-.106-.151-.115-.121-.123-.092-.129-.066-.134-.041-.138-.021h-.14l-.14.021-.139.038-.137.053-.134.068-.131.081-.128.092-.124.1-.121.111-.117.117-.114.123-.109.128-.105.132-.1.134-.1.136-.093.136-.377.938-1.242,3.344-1.242,3.344-1.242,3.344-1.242,3.344-1.242,3.344-1.242,3.344-1.242,3.344-1.242,3.344-1.242,3.344-1.242,3.344-1.242,3.344-1.242,3.344L323.9,1047.5" transform="translate(-297.855 -929.364)"/></g></svg>