<svg xmlns="http://www.w3.org/2000/svg" xmlns:xlink="http://www.w3.org/1999/xlink" width="42.185" height="468.667" viewBox="0 0 42.185 468.667"><defs><style>.a{fill:#fff;}.b,.c,.f{stroke:rgba(255,255,255,0);stroke-linecap:round;stroke-linejoin:round;}.b,.c{stroke-width:0.41px;opacity:0.034;}.b{fill:url(#a);}.c{fill:url(#b);}.d{fill:#f7f7f7;}.e{fill:#101010;}.f,.h{fill:#333;}.f{stroke-width:0.4px;}.g{fill:none;}.g,.h{stroke:#000;stroke-width:0.4px;}.i{fill:#005288;}.j{fill:#a7a9ac;}</style><linearGradient id="a" x1="0.675" y1="-2.249" x2="1.619" y2="-2.249" gradientUnits="objectBoundingBox"><stop offset="0"/><stop offset="1" stop-opacity="0"/></linearGradient><linearGradient id="b" x1="89.663" y1="3.25" x2="90.621" y2="3.25" xlink:href="#a"/></defs><g transform="translate(-3.763 -255.624)"><g transform="translate(4.994 255.624)"><rect class="a" width="39.776" height="444.508" transform="translate(0 0)"/><g transform="translate(0.404 0.351)"><rect class="b" width="19.727" height="443.825" transform="translate(0 0.116)"/><rect class="c" width="19.438" height="443.622" transform="translate(38.87 443.622) rotate(180)"/></g></g><rect class="d" width="0.949" height="1.032" transform="translate(3.763 700.948)"/><rect class="d" width="1.248" height="1.271" transform="translate(44.7 700.842)"/><path class="d" d="M446.412,1008.949a1.7,1.7,0,0,1-.109-.317l-.019-.115h7.245l.039.194c.033.164.031.211-.015.3l-.053.106h-7l-.09-.2Z" transform="translate(-439.668 -298.583)"/><path class="d" d="M450.209,1008.949a1.7,1.7,0,0,1-.109-.316l-.019-.115H453.8a34.376,34.376,0,0,1,3.717.045,2.085,2.085,0,0,1-.184.511l-.05.077H450.3l-.09-.2Z" transform="translate(-435.374 -298.582)"/><path class="d" d="M453.874,1009.263a3.286,3.286,0,0,0,.169-.583l.023-.158h1.874c2.038,0,1.913-.021,1.915.177a2,2,0,0,0,.094.347l.093.275h-2.095c-1.981,0-2.094,0-2.072-.057Z" transform="translate(-431.087 -298.577)"/><path class="d" d="M456.272,1008.991a2.636,2.636,0,0,1-.112-.316l-.042-.158h3.726c2.538,0,3.726,0,3.726.034a2.475,2.475,0,0,1-.186.523l-.048.075h-6.994l-.07-.158Z" transform="translate(-428.546 -298.582)"/><path class="d" d="M460.021,1009.034a.4.4,0,0,1-.017-.316l.039-.2h3.625c2.468,0,3.625,0,3.625.034a2.469,2.469,0,0,1-.186.523l-.048.075h-6.983l-.055-.117Z" transform="translate(-424.178 -298.583)"/><path class="e" d="M445.54,1003.89l39.563.066.021,6.976-1.487,3.731-36.581-.113-1.486-3.735Z" transform="translate(-440.509 -303.815)"/><g transform="translate(12.257 710.968)"><path class="f" d="M454.515,1032.356c-.413-1.015-.959-2.2-1.5-3.253l-.212-.411.087-.162c.153-.282.5-.893.716-1.245l.075-.124h2.087l.082.134c.182.3.65,1.114.761,1.325l.038.073-.111.211c-.593,1.13-1.187,2.411-1.665,3.592l-.08.2h-.139l-.137-.337h0Z" transform="translate(-452.8 -1026.821)"/><path class="f" d="M464.412,1032.2c-.413-1.015-.959-2.2-1.5-3.252l-.211-.411.087-.162c.153-.282.5-.893.716-1.245l.075-.123h2.087l.082.134c.182.3.65,1.114.761,1.325l.038.073-.111.211c-.593,1.13-1.187,2.411-1.665,3.592l-.08.2h-.139l-.137-.337h0Z" transform="translate(-441.608 -1027.002)"/><path class="f" d="M458.831,1030.937c.171-.333.491-.925.711-1.315l.4-.709-.471-.826-.471-.826h-.809c-.69,0-.809-.023-.809-.087s-.067-.083-.349-.07c-.331.023-.356.028-.465.216l-.115.2.606,1.153c.333.634.781,1.538,1,2.01a7.332,7.332,0,0,0,.427.859,3.873,3.873,0,0,0,.348-.6Z" transform="translate(-448.668 -1026.893)"/><path class="f" d="M460.448,1030.917c-.171-.333-.491-.925-.711-1.315l-.4-.709.471-.826.471-.826h.809c.69,0,.809-.024.809-.087s.067-.083.349-.07c.331.023.356.028.465.216l.115.2-.606,1.153c-.333.634-.781,1.539-1,2.01a7.333,7.333,0,0,1-.427.859,3.854,3.854,0,0,1-.348-.6Z" transform="translate(-445.408 -1026.916)"/><path class="f" d="M456.316,1039.887c0-.028.178-.813.2-.9.373-4.793.76-3.8,2.288-6.706a31.712,31.712,0,0,1,1.618-3.242l.295-.515v-1.335h1.444v1.354l.309.541c.324.566,1.217,2.307,1.425,2.775l.121.272a45.238,45.238,0,0,1,2.422,7.231c.05.223.09.437.09.476,0,.07-.009.07-5.108.07-2.809,0-5.108,0-5.108-.023Z" transform="translate(-448.824 -1026.788)"/></g><path class="g" d="M459.529,1009.01H457.36" transform="translate(-427.143 -298.026)"/><path class="g" d="M447.471,1014.33h10.466" transform="translate(-438.325 -292.01)"/><path class="g" d="M449.418,1009.01h2.169" transform="translate(-436.124 -298.026)"/><path class="g" d="M451.374,1010.775q-.445-.894-.938-1.762" transform="translate(-434.973 -298.022)"/><path class="g" d="M449.916,1009.01q-.493.868-.938,1.762" transform="translate(-436.622 -298.025)"/><path class="g" d="M452.8,1009.01h1.628" transform="translate(-432.299 -298.026)"/><path class="g" d="M454.813,1010.9q-.451-.92-.952-1.813" transform="translate(-431.099 -297.936)"/><path class="g" d="M453.063,1009.01q-.254.447-.5.9" transform="translate(-432.563 -298.025)"/><path class="g" d="M467.778,1014.33H457.312" transform="translate(-427.197 -292.01)"/><path class="g" d="M461.428,1009.01h-2.169" transform="translate(-424.995 -298.026)"/><path class="g" d="M459.757,1009.01q-.493.868-.938,1.762" transform="translate(-425.493 -298.025)"/><path class="g" d="M461.215,1010.775q-.445-.894-.938-1.762" transform="translate(-423.844 -298.022)"/><path class="g" d="M457.759,1009.01h-1.628" transform="translate(-428.532 -298.026)"/><path class="g" d="M449.872,1008.33a2.215,2.215,0,0,0,.46,1.458" transform="translate(-435.612 -298.794)"/><path class="g" d="M453.564,1009.784a2.216,2.216,0,0,0,.46-1.458" transform="translate(-431.435 -298.799)"/><path class="g" d="M450.087,1009.01H457.5" transform="translate(-435.367 -298.026)"/><path class="g" d="M455.916,1008.33a2.215,2.215,0,0,0,.46,1.458" transform="translate(-428.778 -298.794)"/><path class="g" d="M459.608,1009.784a2.216,2.216,0,0,0,.46-1.458" transform="translate(-424.601 -298.799)"/><path class="g" d="M456.131,1009.01h7.409" transform="translate(-428.532 -298.026)"/><path class="g" d="M453.861,1009.09h4.2" transform="translate(-431.099 -297.935)"/><path class="g" d="M453.054,1009.01q.054.086.116.166" transform="translate(-432.012 -298.025)"/><path class="g" d="M456.586,1009.178q.062-.081.116-.166" transform="translate(-428.018 -298.023)"/><path class="g" d="M453.109,1009.09h7.409" transform="translate(-431.95 -297.935)"/><path class="g" d="M456.388,1009.09q-.5.893-.952,1.813" transform="translate(-429.318 -297.935)"/><path class="g" d="M456.388,1009.09q-.5.893-.952,1.813" transform="translate(-429.318 -297.935)"/><path class="g" d="M457.387,1009.816q-.216-.4-.443-.8" transform="translate(-427.613 -298.022)"/><path class="g" d="M485.255,712.768v451.6a3.8,3.8,0,0,1-1.042,2.317H446.566a3.8,3.8,0,0,1-1.042-2.317v-451.6" transform="translate(-440.527 -457.144)"/><path class="g" d="M452.793,1014.33q-.211.88-.377,1.77h10.465q-.167-.889-.378-1.77" transform="translate(-432.734 -292.009)"/><path class="g" d="M453.514,1014.334a36.561,36.561,0,0,1,1.809-3.641v-1.6" transform="translate(-431.492 -297.937)"/><path class="g" d="M455.381,1009.09v1.6a36.581,36.581,0,0,1,1.752,3.509" transform="translate(-429.38 -297.935)"/><path class="h" d="M454.851,1015.712a36.591,36.591,0,0,0-2.961-6.695h-2.169a36.584,36.584,0,0,0-4.148,11.328h10.466" transform="translate(-440.472 -298.016)"/><path class="g" d="M446.074,1008.33a2.215,2.215,0,0,0,.46,1.458h7.409a2.217,2.217,0,0,0,.341-.631" transform="translate(-439.907 -298.794)"/><path class="g" d="M459.768,1009.159a2.219,2.219,0,0,0,.341.631h7.409a2.215,2.215,0,0,0,.46-1.458" transform="translate(-424.419 -298.793)"/><path class="h" d="M459.211,1020.342h10.466a36.588,36.588,0,0,0-4.148-11.328h-2.169a36.586,36.586,0,0,0-2.961,6.695" transform="translate(-425.049 -298.022)"/><path class="h" d="M461.73,1009.01a36.588,36.588,0,0,1,4.148,11.328H455.413a36.586,36.586,0,0,1,4.148-11.328" transform="translate(-429.344 -298.025)"/><path class="h" d="M453.517,1009.01a36.586,36.586,0,0,0-4.148,11.328h10.466a36.588,36.588,0,0,0-4.148-11.328Z" transform="translate(-436.179 -298.025)"/><path class="g" d="M445.524,1003.94h39.732" transform="translate(-440.527 -303.759)"/><g transform="translate(18.082 550.553)"><path class="i" d="M188.1,941.9h-8.243l-.305.228v7.333h2.282v-2.75l.218-.2H188.1c1.527,0,2.243-.411,2.243-1.465v-1.684c0-1.056-.716-1.467-2.244-1.467m0,2.711c0,.5-.329.6-1.045.6h-4.979l-.243-.236V943.4l.218-.2h5c.716,0,1.045.1,1.045.6v.805Z" transform="translate(-178.348 -924.472)"/><path class="i" d="M15.576,3.519,17.539,6.4l-.109.279H13.088L11.98,8.038h6.463l.448.273,1,1.384h2.611L16.782,2.038" transform="translate(-10.6 30.581)"/><g transform="translate(1.435 66.232)"><path class="i" d="M27.084,6.808V4.773l.235-.2h4.368v-1.3H24.764V8.3H34.976V7.007H27.329" transform="translate(-24.764 -0.734)"/><rect class="i" width="10.321" height="1.425" transform="translate(0 0)"/></g><path class="i" d="M182.094,958.118h8.315c-.128-1.057-.784-1.351-2.448-1.351h-5.955c-1.878,0-2.477.367-2.477,1.788v3.987c0,1.422.6,1.789,2.477,1.789h5.955c1.689,0,2.335-.317,2.379-1.414h-8.246l-.245-.23v-4.416" transform="translate(-178.371 -907.654)"/><path class="i" d="M188.094,936.666h-6.049l-.178-.2v-1.294l.177-.137H190.2l.111-.272c-.278-.714-1-1.048-2.333-1.048h-5.664c-1.877,0-2.477.367-2.477,1.788v.836c0,1.423.6,1.789,2.477,1.789h6.035l.19.167v1.353l-.154.211h-6.9v-.006h-1.808s-.207.1-.2.152c.154.994.832,1.276,2.453,1.276h6.169c1.876,0,2.494-.367,2.494-1.789v-1.042c0-1.42-.618-1.786-2.494-1.786" transform="translate(-178.434 -933.719)"/><path class="i" d="M182.687,973.03h-3.4l-.184.351,3.771,2.749c.714-.413,1.491-.833,2.337-1.246" transform="translate(-178.848 -889.265)"/><path class="i" d="M182.214,976.27l3.314,2.417h3.437l.142-.32-4.949-3.622q-.986.724-1.944,1.526" transform="translate(-175.335 -887.327)"/><path class="j" d="M182.317,982.412h-3.072l-.26-.407c2.089-2.017,11.626-9.6,24.039-10.56,0,0-10.859,1.206-20.708,10.967" transform="translate(-178.985 -891.057)"/></g></g></svg>