<svg xmlns="http://www.w3.org/2000/svg" xmlns:xlink="http://www.w3.org/1999/xlink" width="50.202" height="468.667" viewBox="0 0 50.202 468.667"><defs><style>.a{fill:#fff;}.b,.c,.f{stroke:rgba(255,255,255,0);stroke-linejoin:round;}.b,.c,.f,.j,.k{stroke-linecap:round;}.b,.c{stroke-width:0.41px;opacity:0.034;}.b{fill:url(#a);}.c{fill:url(#b);}.d{fill:#f7f7f7;}.e{fill:#101010;}.f,.h{fill:#333;}.f{stroke-width:0.4px;}.g,.k{fill:none;}.g,.h,.i,.j,.k{stroke:#000;stroke-width:0.4px;}.i,.j{fill:#f2f2f2;}.l{fill:#005288;}.m{fill:#a7a9ac;}</style><linearGradient id="a" x1="0.675" y1="-2.249" x2="1.619" y2="-2.249" gradientUnits="objectBoundingBox"><stop offset="0"/><stop offset="1" stop-opacity="0"/></linearGradient><linearGradient id="b" x1="89.663" y1="3.25" x2="90.621" y2="3.25" xlink:href="#a"/></defs><g transform="translate(0.2 -255.624)"><g transform="translate(4.994 255.624)"><rect class="a" width="39.776" height="444.508" transform="translate(0 0)"/><g transform="translate(0.404 0.351)"><rect class="b" width="19.727" height="443.825" transform="translate(0 0.116)"/><rect class="c" width="19.438" height="443.622" transform="translate(38.87 443.622) rotate(180)"/></g></g><rect class="d" width="0.949" height="1.032" transform="translate(3.763 700.948)"/><rect class="d" width="1.248" height="1.271" transform="translate(44.7 700.842)"/><path class="d" d="M446.412,1008.949a1.7,1.7,0,0,1-.109-.317l-.019-.115h7.245l.039.194c.033.164.031.211-.015.3l-.053.106h-7l-.09-.2Z" transform="translate(-439.668 -298.583)"/><path class="d" d="M450.209,1008.949a1.7,1.7,0,0,1-.109-.316l-.019-.115H453.8a34.376,34.376,0,0,1,3.717.045,2.085,2.085,0,0,1-.184.511l-.05.077H450.3l-.09-.2Z" transform="translate(-435.374 -298.582)"/><path class="d" d="M453.874,1009.263a3.286,3.286,0,0,0,.169-.583l.023-.158h1.874c2.038,0,1.913-.021,1.915.177a2,2,0,0,0,.094.347l.093.275h-2.095c-1.981,0-2.094,0-2.072-.057Z" transform="translate(-431.087 -298.577)"/><path class="d" d="M456.272,1008.991a2.636,2.636,0,0,1-.112-.316l-.042-.158h3.726c2.538,0,3.726,0,3.726.034a2.475,2.475,0,0,1-.186.523l-.048.075h-6.994l-.07-.158Z" transform="translate(-428.546 -298.582)"/><path class="d" d="M460.021,1009.034a.4.4,0,0,1-.017-.316l.039-.2h3.625c2.468,0,3.625,0,3.625.034a2.469,2.469,0,0,1-.186.523l-.048.075h-6.983l-.055-.117Z" transform="translate(-424.178 -298.583)"/><path class="e" d="M445.54,1003.89l39.563.066.021,6.976-1.487,3.731-36.581-.113-1.486-3.735Z" transform="translate(-440.509 -303.815)"/><g transform="translate(12.257 710.968)"><path class="f" d="M454.515,1032.356c-.413-1.015-.959-2.2-1.5-3.253l-.212-.411.087-.162c.153-.282.5-.893.716-1.245l.075-.124h2.087l.082.134c.182.3.65,1.114.761,1.325l.038.073-.111.211c-.593,1.13-1.187,2.411-1.665,3.592l-.08.2h-.139l-.137-.337h0Z" transform="translate(-452.8 -1026.821)"/><path class="f" d="M464.412,1032.2c-.413-1.015-.959-2.2-1.5-3.252l-.211-.411.087-.162c.153-.282.5-.893.716-1.245l.075-.123h2.087l.082.134c.182.3.65,1.114.761,1.325l.038.073-.111.211c-.593,1.13-1.187,2.411-1.665,3.592l-.08.2h-.139l-.137-.337h0Z" transform="translate(-441.608 -1027.002)"/><path class="f" d="M458.831,1030.937c.171-.333.491-.925.711-1.315l.4-.709-.471-.826-.471-.826h-.809c-.69,0-.809-.023-.809-.087s-.067-.083-.349-.07c-.331.023-.356.028-.465.216l-.115.2.606,1.153c.333.634.781,1.538,1,2.01a7.332,7.332,0,0,0,.427.859,3.873,3.873,0,0,0,.348-.6Z" transform="translate(-448.668 -1026.893)"/><path class="f" d="M460.448,1030.917c-.171-.333-.491-.925-.711-1.315l-.4-.709.471-.826.471-.826h.809c.69,0,.809-.024.809-.087s.067-.083.349-.07c.331.023.356.028.465.216l.115.2-.606,1.153c-.333.634-.781,1.539-1,2.01a7.333,7.333,0,0,1-.427.859,3.854,3.854,0,0,1-.348-.6Z" transform="translate(-445.408 -1026.916)"/><path class="f" d="M456.316,1039.887c0-.028.178-.813.2-.9.373-4.793.76-3.8,2.288-6.706a31.712,31.712,0,0,1,1.618-3.242l.295-.515v-1.335h1.444v1.354l.309.541c.324.566,1.217,2.307,1.425,2.775l.121.272a45.238,45.238,0,0,1,2.422,7.231c.05.223.09.437.09.476,0,.07-.009.07-5.108.07-2.809,0-5.108,0-5.108-.023Z" transform="translate(-448.824 -1026.788)"/></g><path class="g" d="M485.255,795.307" transform="translate(-440.527 -539.683)"/><path class="g" d="M459.529,1009.01H457.36" transform="translate(-427.143 -298.026)"/><path class="g" d="M447.471,1014.33h10.466" transform="translate(-438.325 -292.01)"/><path class="g" d="M449.418,1009.01h2.169" transform="translate(-436.124 -298.026)"/><path class="g" d="M451.374,1010.775q-.445-.894-.938-1.762" transform="translate(-434.973 -298.022)"/><path class="g" d="M449.916,1009.01q-.493.868-.938,1.762" transform="translate(-436.622 -298.025)"/><path class="g" d="M452.8,1009.01h1.628" transform="translate(-432.299 -298.026)"/><path class="g" d="M454.813,1010.9q-.451-.92-.952-1.813" transform="translate(-431.099 -297.936)"/><path class="g" d="M453.063,1009.01q-.254.447-.5.9" transform="translate(-432.563 -298.025)"/><path class="g" d="M467.778,1014.33H457.312" transform="translate(-427.197 -292.01)"/><path class="g" d="M461.428,1009.01h-2.169" transform="translate(-424.995 -298.026)"/><path class="g" d="M459.757,1009.01q-.493.868-.938,1.762" transform="translate(-425.493 -298.025)"/><path class="g" d="M461.215,1010.775q-.445-.894-.938-1.762" transform="translate(-423.844 -298.022)"/><path class="g" d="M457.759,1009.01h-1.628" transform="translate(-428.532 -298.026)"/><path class="g" d="M449.872,1008.33a2.215,2.215,0,0,0,.46,1.458" transform="translate(-435.612 -298.794)"/><path class="g" d="M453.564,1009.784a2.216,2.216,0,0,0,.46-1.458" transform="translate(-431.435 -298.799)"/><path class="g" d="M450.087,1009.01H457.5" transform="translate(-435.367 -298.026)"/><path class="g" d="M455.916,1008.33a2.215,2.215,0,0,0,.46,1.458" transform="translate(-428.778 -298.794)"/><path class="g" d="M459.608,1009.784a2.216,2.216,0,0,0,.46-1.458" transform="translate(-424.601 -298.799)"/><path class="g" d="M456.131,1009.01h7.409" transform="translate(-428.532 -298.026)"/><path class="g" d="M453.861,1009.09h4.2" transform="translate(-431.099 -297.935)"/><path class="g" d="M453.054,1009.01q.054.086.116.166" transform="translate(-432.012 -298.025)"/><path class="g" d="M456.586,1009.178q.062-.081.116-.166" transform="translate(-428.018 -298.023)"/><path class="g" d="M453.109,1009.09h7.409" transform="translate(-431.95 -297.935)"/><path class="g" d="M456.388,1009.09q-.5.893-.952,1.813" transform="translate(-429.318 -297.935)"/><path class="g" d="M456.388,1009.09q-.5.893-.952,1.813" transform="translate(-429.318 -297.935)"/><path class="g" d="M457.387,1009.816q-.216-.4-.443-.8" transform="translate(-427.613 -298.022)"/><path class="g" d="M485.255,712.768v451.6a3.8,3.8,0,0,1-1.042,2.317H446.566a3.8,3.8,0,0,1-1.042-2.317v-451.6" transform="translate(-440.527 -457.144)"/><path class="g" d="M452.793,1014.33q-.211.88-.377,1.77h10.465q-.167-.889-.378-1.77" transform="translate(-432.734 -292.009)"/><path class="g" d="M453.514,1014.334a36.561,36.561,0,0,1,1.809-3.641v-1.6" transform="translate(-431.492 -297.937)"/><path class="g" d="M455.381,1009.09v1.6a36.581,36.581,0,0,1,1.752,3.509" transform="translate(-429.38 -297.935)"/><path class="h" d="M454.851,1015.712a36.591,36.591,0,0,0-2.961-6.695h-2.169a36.584,36.584,0,0,0-4.148,11.328h10.466" transform="translate(-440.472 -298.016)"/><path class="g" d="M446.074,1008.33a2.215,2.215,0,0,0,.46,1.458h7.409a2.217,2.217,0,0,0,.341-.631" transform="translate(-439.907 -298.794)"/><path class="g" d="M459.768,1009.159a2.219,2.219,0,0,0,.341.631h7.409a2.215,2.215,0,0,0,.46-1.458" transform="translate(-424.419 -298.793)"/><path class="h" d="M459.211,1020.342h10.466a36.588,36.588,0,0,0-4.148-11.328h-2.169a36.586,36.586,0,0,0-2.961,6.695" transform="translate(-425.049 -298.022)"/><path class="h" d="M461.73,1009.01a36.588,36.588,0,0,1,4.148,11.328H455.413a36.586,36.586,0,0,1,4.148-11.328" transform="translate(-429.344 -298.025)"/><path class="h" d="M453.517,1009.01a36.586,36.586,0,0,0-4.148,11.328h10.466a36.588,36.588,0,0,0-4.148-11.328Z" transform="translate(-436.179 -298.025)"/><path class="g" d="M445.524,1003.94h39.732" transform="translate(-440.527 -303.759)"/><g transform="translate(0 584.63)"><path class="i" d="M316.062,1057.16l.1-.3.168-.331.232-.344.289-.342.34-.324.385-.291.423-.242.455-.177.48-.1h.5l.512.111.518.24.859,2.248.9,2.485.9,2.485.9,2.485.9,2.485.9,2.485.9,2.485.9,2.485.9,2.485.9,2.485.9,2.485.9,2.485.227.6.043.074.047.07.05.064.053.059.056.056.059.051.061.045.063.041.065.036.066.032.068.027.069.024.069.021.069.021h.644l.112-.051.111-.106.108-.158.1-.2.1-.24.094-.273.087-.3.08-.321.071-.336.062-.345.051-.349-.412-3.886-.956-8.13-.956-8.13-.956-8.13-.956-8.13-.956-8.13-.956-8.13-.956-8.13-.956-8.13-.956-8.13-.956-8.13-.956-8.13-.627-5.505,0-.534,0-.534,0-.534,0-.535,0-.534,0-.534,0-.534,0-.534,0-.534,0-.535,0-.534-.021-.669-.076-1.04-.078-.942-.08-.851-.082-.767-.084-.69-.085-.619-.087-.554-.089-.5-.091-.446-.092-.4-.094-.364-.1-.333-.1-.307-.1-.283-.1-.26-.1-.238-.1-.216-.1-.2-.106-.177-.107-.159-.109-.142-.11-.125-.112-.11-.113-.1-.115-.083-.117-.069-.118-.056-.12-.043-.121-.03-.122-.017-.124,0-.125.009-.127.022-.128.035-.13.047-.131.06-.132.072-.133.085-.135.1-.137.113-.138.129-.14.145-.142.161-.145.178-.147.2-.149.214-.152.233-.155.252-.158.273-.16.291-.161.308-.162.323-.162.335-.161.346-.16.354-.158.361-.155.365-.151.368-.146.368-.141.366-.135.362-.129.359-.122.356-.115.354-.107.353-.1.354-.091.355-.082.357-.073.36-.064.365" transform="translate(-309.13 -967.711)"/><path class="j" d="M318.611,1053.158l-.08.459-.079.468-.078.476-.077.485-.076.493-.076.5-.075.509-.074.516-.073.523-.073.53-.072.536-.072.542-.071.548-.07.554-.07.559-.069.564-.069.568-.068.573-.068.577-.067.58-.067.583-.066.587-.132,1.181-.13,1.19-.129,1.2-.254,2.4-.126,1.2-.125,1.2-.125,1.189-.125,1.18-.062.586-.062.583-.062.58-.062.576-.062.572-.063.568-.063.563-.063.558-.063.553-.063.547-.032.271-.008.068,0,.034,0,.021h0l-.015.036-.017.03-.017.026-.017.021-.017.021-.017.021h-.139l-.071-.034-.138-.079-.134-.081-.13-.081-.126-.081-.122-.083-.118-.083-.114-.085-.11-.085-.107-.085-.1-.087-.1-.087-.1-.089-.092-.09-.089-.089-.086-.089-.083-.092-.08-.092-.15-.185-.138-.188-.127-.19-.117-.192-.107-.194-.1-.194-.09-.2-.082-.2-.074-.2-.068-.2-.062-.2-.056-.2-.051-.2-.047-.2-.043-.2-.04-.2-.019-.1-.008-.049,0-.026h0v-.021l0-.119.009-.24.513-15.37,1.026-30.739,1.026-30.739.513-15.369.128-3.842.032-.96,0-.06v-.013h0v-.006l0-.013,0-.026.015-.1.031-.2.031-.193.031-.188.031-.184.031-.18.031-.176.031-.172.032-.169.032-.165.032-.162.065-.317.067-.307.069-.3.071-.294.073-.291.076-.29.079-.29.082-.292.086-.3.091-.3.1-.305.1-.311.113-.318.06-.162.062-.164.065-.166.068-.168.07-.171.073-.173.076-.175.08-.178.083-.181.086-.183.09-.187.094-.19.1-.193.1-.2" transform="translate(-311.679 -963.709)"/><path class="i" d="M341.278,1057.16l-.1-.3-.168-.331-.232-.344-.289-.342-.34-.324-.385-.291-.423-.242-.455-.177-.48-.1h-.5l-.512.111-.518.24-.859,2.248-.9,2.485-.9,2.485-.9,2.485-.9,2.485-.9,2.485-.9,2.485-.9,2.485-.9,2.485-.9,2.485-.9,2.485-.9,2.485-.228.6-.043.074-.047.07-.05.064-.053.059-.056.056-.059.051-.061.045-.063.041-.065.036-.066.032-.068.027-.069.024-.069.021-.069.021h-.644l-.112-.051-.111-.106-.108-.158-.1-.2-.1-.24-.094-.273-.087-.3-.08-.321-.071-.336-.062-.345-.051-.349.412-3.886.956-8.13.956-8.13.956-8.13.956-8.13.956-8.13.956-8.13.956-8.13.956-8.13.956-8.13.956-8.13.956-8.13.627-5.505,0-.534,0-.534,0-.534,0-.535,0-.534,0-.534,0-.534,0-.534,0-.534,0-.535,0-.534.021-.669.076-1.04.078-.942.08-.851.082-.767.083-.69.085-.619.087-.554.089-.5.091-.446.092-.4.094-.364.1-.333.1-.307.1-.283.1-.26.1-.238.1-.216.1-.2.106-.177.107-.159.109-.142.11-.125.112-.11.113-.1.115-.083.117-.069.118-.056.12-.043.121-.03.122-.017.124,0,.125.009.127.022.128.035.13.047.131.06.132.072.133.085.135.1.137.113.138.129.14.145.142.161.145.178.147.2.149.214.152.233.155.252.158.273.16.291.161.308.162.323.162.335.161.346.16.354.158.361.155.365.151.368.146.368.141.366.135.362.129.359.122.356.115.354.107.353.1.354.091.355.082.357.073.36.064.365" transform="translate(-298.408 -967.711)"/><path class="j" d="M331.8,1053.158l.08.459.079.468.078.476.077.485.076.493.076.5.075.509.074.516.073.523.073.53.072.536.072.542.071.548.07.554.07.559.069.564.069.568.068.573.068.577.067.58.067.583.066.587.132,1.181.13,1.19.129,1.2.254,2.4.126,1.2.126,1.2.125,1.189.125,1.18.062.586.062.583.062.58.062.576.062.572.063.568.063.563.063.558.063.553.063.547.032.271.009.068,0,.034,0,.021h0l.015.036.017.03.017.026.017.021.017.021.017.021h.139l.071-.034.139-.079.134-.081.13-.081.126-.081.122-.083.118-.083.114-.085.11-.085.107-.085.1-.087.1-.087.1-.089.092-.09.089-.089.086-.089.083-.092.08-.092.15-.185.138-.188.127-.19.117-.192.107-.194.1-.194.09-.2.082-.2.074-.2.068-.2.062-.2.056-.2.051-.2.047-.2.043-.2.04-.2.019-.1.009-.049,0-.026h0v-.021l0-.119-.009-.24-.513-15.37-1.026-30.739-1.026-30.739-.513-15.369-.128-3.842-.032-.96,0-.06v-.013h0v-.006l0-.013,0-.026-.015-.1-.031-.2-.031-.193-.031-.188-.031-.184-.031-.18-.031-.176-.031-.172-.032-.169-.032-.165-.032-.162-.065-.317-.067-.307-.069-.3-.071-.294-.073-.291-.076-.29-.079-.29-.082-.292-.086-.3-.091-.3-.1-.305-.1-.311-.113-.318-.06-.162-.062-.164-.065-.166-.068-.168-.07-.171-.073-.173-.076-.175-.08-.178-.083-.181-.086-.183-.09-.187-.094-.19-.1-.193-.1-.2" transform="translate(-288.928 -963.709)"/><path class="g" d="M319.267,974.045l-2.63-2.785" transform="translate(-306.071 -963.699)"/><path class="g" d="M319.183,971.259h-4.8" transform="translate(-308.616 -963.699)"/><path class="g" d="M314.119,1028.894l.372-51.394" transform="translate(-308.919 -956.641)"/><path class="g" d="M314.293,980.813l4.6-6.233" transform="translate(-308.723 -959.944)"/><path class="g" d="M315.46,980.529l-2.2-5.7" transform="translate(-309.89 -959.66)"/><path class="k" d="M316.454,978.335l.393-7.075" transform="translate(-306.279 -963.698)"/><path class="g" d="M313.428,1022.25h1.308" transform="translate(-309.701 -906.038)"/><path class="g" d="M313.353,1022.91h1.468" transform="translate(-309.786 -905.292)"/><path class="g" d="M323.059,1022.91h1.3" transform="translate(-298.81 -905.292)"/><path class="g" d="M323.255,1022.25h.467" transform="translate(-298.588 -906.038)"/><path class="g" d="M312.11,1045.385l.252-3.2.252-3.2.252-3.2.252-3.2.252-3.2.252-3.2.252-3.2.252-3.2.252-3.2.252-3.2.252-3.2.252-3.2.252-3.2.106-1.015.07-.254.084-.218.1-.183.106-.151.115-.121.123-.092.129-.066.134-.041.137-.021h.14l.14.021.139.038.137.053.134.068.131.081.128.092.125.1.121.111.117.117.114.123.11.128.105.132.1.134.1.136.093.136.377.938,1.242,3.344,1.242,3.344,1.242,3.344,1.242,3.344,1.242,3.344,1.242,3.344,1.242,3.344,1.242,3.344,1.242,3.344,1.242,3.344,1.242,3.344,1.242,3.344,1.242,3.344" transform="translate(-311.191 -929.364)"/><path class="g" d="M328.858,974.045l2.629-2.785" transform="translate(-292.253 -963.699)"/><path class="g" d="M330.092,971.259h4.8" transform="translate(-290.857 -963.699)"/><path class="g" d="M332.808,1028.894l-.372-51.394" transform="translate(-288.206 -956.641)"/><path class="g" d="M334.88,980.813l-4.6-6.233" transform="translate(-290.648 -959.944)"/><path class="g" d="M332.437,980.529l2.2-5.7" transform="translate(-288.205 -959.66)"/><path class="k" d="M330.485,978.335l-.393-7.075" transform="translate(-290.858 -963.698)"/><path class="g" d="M334,1022.25h-1.308" transform="translate(-287.921 -906.038)"/><path class="g" d="M334.156,1022.91h-1.468" transform="translate(-287.921 -905.292)"/><path class="g" d="M346.738,1045.385l-.252-3.2-.252-3.2-.252-3.2-.252-3.2-.252-3.2-.252-3.2-.252-3.2-.252-3.2-.252-3.2-.252-3.2-.252-3.2-.252-3.2-.252-3.2-.106-1.015-.07-.254-.084-.218-.1-.183-.106-.151-.115-.121-.123-.092-.129-.066-.134-.041-.138-.021h-.14l-.14.021-.139.038-.137.053-.134.068-.131.081-.128.092-.124.1-.121.111-.117.117-.114.123-.109.128-.105.132-.1.134-.1.136-.093.136-.377.938-1.242,3.344-1.242,3.344-1.242,3.344-1.242,3.344-1.242,3.344-1.242,3.344-1.242,3.344-1.242,3.344-1.242,3.344-1.242,3.344-1.242,3.344-1.242,3.344L323.9,1047.5" transform="translate(-297.855 -929.364)"/></g><g transform="translate(18.082 550.553)"><path class="l" d="M188.1,941.9h-8.243l-.305.228v7.333h2.282v-2.75l.218-.2H188.1c1.527,0,2.243-.411,2.243-1.465v-1.684c0-1.056-.716-1.467-2.244-1.467m0,2.711c0,.5-.329.6-1.045.6h-4.979l-.243-.236V943.4l.218-.2h5c.716,0,1.045.1,1.045.6v.805Z" transform="translate(-178.348 -924.472)"/><path class="l" d="M15.576,3.519,17.539,6.4l-.109.279H13.088L11.98,8.038h6.463l.448.273,1,1.384h2.611L16.782,2.038" transform="translate(-10.6 30.581)"/><g transform="translate(1.435 66.232)"><path class="l" d="M27.084,6.808V4.773l.235-.2h4.368v-1.3H24.764V8.3H34.976V7.007H27.329" transform="translate(-24.764 -0.734)"/><rect class="l" width="10.321" height="1.425" transform="translate(0 0)"/></g><path class="l" d="M182.094,958.118h8.315c-.128-1.057-.784-1.351-2.448-1.351h-5.955c-1.878,0-2.477.367-2.477,1.788v3.987c0,1.422.6,1.789,2.477,1.789h5.955c1.689,0,2.335-.317,2.379-1.414h-8.246l-.245-.23v-4.416" transform="translate(-178.371 -907.654)"/><path class="l" d="M188.094,936.666h-6.049l-.178-.2v-1.294l.177-.137H190.2l.111-.272c-.278-.714-1-1.048-2.333-1.048h-5.664c-1.877,0-2.477.367-2.477,1.788v.836c0,1.423.6,1.789,2.477,1.789h6.035l.19.167v1.353l-.154.211h-6.9v-.006h-1.808s-.207.1-.2.152c.154.994.832,1.276,2.453,1.276h6.169c1.876,0,2.494-.367,2.494-1.789v-1.042c0-1.42-.618-1.786-2.494-1.786" transform="translate(-178.434 -933.719)"/><path class="l" d="M182.687,973.03h-3.4l-.184.351,3.771,2.749c.714-.413,1.491-.833,2.337-1.246" transform="translate(-178.848 -889.265)"/><path class="l" d="M182.214,976.27l3.314,2.417h3.437l.142-.32-4.949-3.622q-.986.724-1.944,1.526" transform="translate(-175.335 -887.327)"/><path class="m" d="M182.317,982.412h-3.072l-.26-.407c2.089-2.017,11.626-9.6,24.039-10.56,0,0-10.859,1.206-20.708,10.967" transform="translate(-178.985 -891.057)"/></g></g></svg>