<svg xmlns="http://www.w3.org/2000/svg" xmlns:xlink="http://www.w3.org/1999/xlink" width="55.643" height="148.299" viewBox="0 0 55.643 148.299"><defs><style>.a{fill:url(#a);}.b{fill:url(#b);}.c{fill:url(#c);}.d{fill:url(#d);}.e{fill:none;stroke:#000;stroke-width:0.4px;}</style><linearGradient id="a" x1="-0.273" y1="11.099" x2="0.838" y2="11.099" gradientUnits="objectBoundingBox"><stop offset="0" stop-color="#e6e6e6"/><stop offset="1" stop-color="#f9f9f9"/></linearGradient><linearGradient id="b" x1="-0.285" y1="98.967" x2="0.837" y2="98.967" xlink:href="#a"/><linearGradient id="c" x1="-0.341" y1="-10.105" x2="1.035" y2="-10.105" xlink:href="#a"/><linearGradient id="d" x1="-0.354" y1="-98.026" x2="1.035" y2="-98.026" xlink:href="#a"/></defs><g transform="translate(0.199 0.2)"><g transform="translate(0.259 0.37)"><g transform="translate(0 0)"><path class="a" d="M224.123,237.314c-.138-2.124-.186-20.981-.107-41.905.157-41.346.133-40.824,2.4-51.4a61.346,61.346,0,0,1,15.843-30.489c3.3-3.536,5.937-5.3,7.943-5.31l.847,0V241.175H224.374l-.252-3.861Z" transform="translate(-223.978 -108.208)"/><path class="b" d="M231.422,184.054c-.2-.259-1.6-2.759-3.112-5.556s-3.075-5.636-3.477-6.309l-.732-1.224h26.806v13.56h-9.559C234.147,184.524,231.7,184.408,231.422,184.054Z" transform="translate(-223.838 -37.242)"/></g><g transform="translate(54.831 147.283) rotate(180)"><path class="c" d="M.145,3.86C.007,5.984-.041,24.841.038,45.766c.157,41.346.133,40.824,2.4,51.4a61.345,61.345,0,0,0,15.843,30.489c3.3,3.536,5.937,5.3,7.943,5.31l.847,0V0H.4L.145,3.861Z" transform="translate(0 14.315)"/><path class="d" d="M7.321.471c-.2.259-1.6,2.759-3.112,5.556S1.135,11.663.732,12.336L0,13.56H26.806V0H17.246C10.046,0,7.6.116,7.321.471Z" transform="translate(0.263 0)"/></g></g><path class="e" d="M492.642,731.219h39.732" transform="translate(-484.886 -583.32)"/><path class="e" d="M489,724.544h55.242" transform="translate(-489.002 -590.868)"/><path class="e" d="M496.758,809.708l-.829-1.521-.829-1.521-.829-1.521-.829-1.521-.829-1.521-.829-1.521-.829-1.521-.829-1.521-.829-1.521-.292-6.1V721.211l.031-6.373.106-1.129.108-1.129.11-1.129.115-1.129.12-1.129.127-1.129.134-1.13L490,705.8l.154-1.13.166-1.13.178-1.13.19-1.129.2-1.127.217-1.125.232-1.122.246-1.119.261-1.115.277-1.11.293-1.1.31-1.1.327-1.091.344-1.084.362-1.075.381-1.067.4-1.057.419-1.047.439-1.036.459-1.024.48-1.013.5-1,.52-.992.539-.982.559-.972.578-.963.6-.954.617-.946.635-.938.654-.931.673-.924.691-.918.709-.911.727-.906.745-.9.762-.9.78-.891.8-.887.817-.872.842-.839.871-.787.905-.716.945-.627.988-.52,1.037-.393,1.091-.251,1.152-.14h1.2l1.152.139,1.091.25,1.038.392.989.518.945.626.906.716.871.786.842.838.817.872.8.887.779.891.762.9.744.9.726.906.709.911.69.918.672.924.654.931.635.938.617.946.6.955.579.963.559.972.54.982.521.992.5,1,.481,1.013.461,1.024.441,1.035.422,1.046.4,1.057.383,1.066.365,1.075.347,1.083.329,1.091.312,1.1.295,1.1.278,1.11.262,1.115.246,1.119.231,1.122.216,1.125.2,1.128.187,1.129.173,1.131.159,1.131.146,1.131.135,1.131.125,1.13.116,1.13.109,1.13.1,1.13.1,1.13.095,1.13.093,1.13.027,6.374v68.705l-.292,6.1-.829,1.521-.829,1.521-.829,1.521-.829,1.521-.829,1.521-.829,1.521-.829,1.521-.829,1.521-.829,1.521" transform="translate(-489.001 -661.809)"/><path class="e" d="M501.965,809.707V661.81" transform="translate(-474.343 -661.808)"/></g></svg>