<svg xmlns="http://www.w3.org/2000/svg" width="41.301" height="188.348" viewBox="0 0 41.301 188.348"><defs><style>.a,.c,.d{fill:none;}.a,.c,.d,.e{stroke:#000;}.a{stroke-width:0.4px;}.b,.e,.i{fill:#fff;}.b,.c,.d,.e,.j,.k{fill-rule:evenodd;}.c{stroke-linecap:square;}.c,.d,.e{stroke-linejoin:round;stroke-width:0.3px;}.d,.e{stroke-linecap:round;}.f{fill:#b22234;}.g{stroke:#fff;stroke-width:0.385px;}.h{fill:#3c3b6e;}.j{fill:#a80126;}</style></defs><g transform="translate(-4.225 -78.57)"><path class="a" d="M445.524,759.615h39.732" transform="translate(-440.527 -580.044)"/><path class="a" d="M485.255,712.768v176.15c-.052.322-.412.634-1.042.9H446.566c-.63-.269-.99-.582-1.042-.9V712.768" transform="translate(-440.527 -634.198)"/><g transform="translate(4.316 240.279)"><g transform="translate(0)"><path class="b" d="M439.359,822.166l-.066-13.651,2.264-3.329-.067-3.6,1.8-3.4.6-1.931,1.465-.533,1.465.133.866.266.8,2.131.466,2.331.066,2v2.131l-.2,1.531,1.731,1.931v13.784l-1.332.266Z" transform="translate(-439.293 -795.731)"/><path class="c" d="M449.172,803.531v13.7H439.32V803.586l1.989-3.445h4.708Z" transform="translate(-439.262 -790.744)"/><path class="c" d="M440.32,820.771v-20.2l1.648-3.3a4.28,4.28,0,0,1,4.991.659l-.235,6.168" transform="translate(-438.131 -794.564)"/><path class="c" d="M442.364,800.185V816.9" transform="translate(-435.82 -790.693)"/><path class="c" d="M442.441,800.188l1.6-.047,2.919,3.155V817.08l-1.339.131" transform="translate(-435.733 -790.743)"/><path class="c" d="M442.507,803.168l.047-3.39,1.836-2.354" transform="translate(-435.658 -793.817)"/><path class="c" d="M441.071,798.367l.847-2.072a4.81,4.81,0,0,1,3.767-.235,18.434,18.434,0,0,1,1.083,10.076" transform="translate(-437.282 -795.656)"/><path class="d" d="M440.364,798.679a5.781,5.781,0,0,1,4.567-.047" transform="translate(-438.082 -792.955)"/><path class="b" d="M442.356,809.9l3.329-3.329" transform="translate(-435.829 -783.468)"/><path class="e" d="M442.356,810.045l3.263-3.6" transform="translate(-435.829 -783.61)"/><path class="e" d="M440.949,812.307l6.193-7.857" transform="translate(-437.42 -785.871)"/><path class="e" d="M448.8,802.574l-9.256,11.786" transform="translate(-439.009 -787.992)"/><path class="e" d="M448.078,801.324l-8.723,11.187" transform="translate(-439.222 -789.406)"/><path class="e" d="M446.379,800.387l-6.992,9.189" transform="translate(-439.187 -790.465)"/><path class="e" d="M443.577,800.229l-4.245,5.444" transform="translate(-439.249 -790.643)"/><path class="e" d="M444.252,811.784l-4.927-6.991" transform="translate(-439.257 -785.484)"/><path class="e" d="M439.387,806.6l2.064,3.263" transform="translate(-439.186 -783.434)"/><path class="e" d="M447.515,813.756l-8.159-10.682" transform="translate(-439.222 -787.427)"/><path class="e" d="M448.8,813.4l-9.322-11.853" transform="translate(-439.08 -789.159)"/><path class="e" d="M448.3,810.358l-8.257-9.722" transform="translate(-438.444 -790.183)"/><path class="e" d="M447.129,806.992l-5.993-6.792" transform="translate(-437.208 -790.678)"/></g><g transform="translate(41.118 26.502) rotate(180)"><path class="b" d="M.066.067,0,13.717l2.264,3.329-.067,3.6,1.8,3.4.6,1.931L6.06,26.5l1.465-.133L8.39,26.1l.8-2.131.466-2.331.066-2V17.513l-.2-1.532,1.731-1.931V.266L9.922,0Z"/><path class="c" d="M9.852,13.7V0H0V13.647l1.989,3.445H6.7Z" transform="translate(0.059 0.013)"/><path class="c" d="M0,0V20.2l1.648,3.3a4.28,4.28,0,0,0,4.991-.659L6.4,16.668" transform="translate(2.189 0.295)"/><path class="c" d="M0,16.715V0" transform="translate(6.544 0.296)"/><path class="c" d="M0,17.023l1.6.047L4.52,13.915V.131L3.181,0" transform="translate(6.708 0.035)"/><path class="c" d="M0,0,.047,3.39,1.883,5.744" transform="translate(6.849 17.151)"/><path class="c" d="M0,7.769.847,9.841a4.811,4.811,0,0,0,3.767.235A18.433,18.433,0,0,0,5.7,0" transform="translate(3.789 16.022)"/><path class="d" d="M0,0A5.782,5.782,0,0,0,4.567.047" transform="translate(2.283 20.778)"/><path class="b" d="M0,0,3.329,3.329" transform="translate(6.527 0.067)"/><path class="e" d="M0,0,3.263,3.6" transform="translate(6.527 0.067)"/><path class="e" d="M0,0,6.193,7.857" transform="translate(3.529 0.067)"/><path class="e" d="M9.256,11.786,0,0" transform="translate(0.534 0.134)"/><path class="e" d="M8.723,11.187,0,0" transform="translate(0.133 3.397)"/><path class="e" d="M6.992,9.189,0,0" transform="translate(0.2 7.391)"/><path class="e" d="M4.245,5.444,0,0" transform="translate(0.083 11.471)"/><path class="e" d="M4.927,0,0,6.992" transform="translate(0.067 0.201)"/><path class="e" d="M0,3.263,2.064,0" transform="translate(0.201 0.068)"/><path class="e" d="M8.159,0,0,10.682" transform="translate(0.134 0.173)"/><path class="e" d="M9.322,0,0,11.853" transform="translate(0.401 2.266)"/><path class="e" d="M8.257,0,0,9.722" transform="translate(1.598 6.327)"/><path class="e" d="M5.993,0,0,6.792" transform="translate(3.929 10.188)"/></g></g><g transform="translate(11.019 202.975)"><g transform="translate(4.01 27.911)"><rect class="f" width="19.579" height="11.053"/><path class="g" d="M0,.6H19.579m0,1.7H0M0,4H19.579m0,1.7H0M0,7.4H19.579m0,1.7H0" transform="translate(0 0.677)"/><rect class="h" width="7.831" height="5.951"/><g transform="translate(0.351 0.255)"><path class="i" d="M.466.12.653.735.165.355h.6L.28.735Z" transform="translate(-0.165 -0.12)"/><path class="i" d="M.466.12.653.735.165.355h.6L.28.735Z" transform="translate(-0.165 1.071)"/><path class="i" d="M.466.12.653.735.165.355h.6L.28.735Z" transform="translate(-0.165 2.261)"/><path class="i" d="M.466.12.653.735.165.355h.6L.28.735Z" transform="translate(-0.165 3.451)"/><path class="i" d="M.466.12.653.735.165.355h.6L.28.735Z" transform="translate(-0.165 4.641)"/><g transform="translate(0.653 0.595)"><path class="i" d="M.466.12.653.735.165.355h.6L.28.735Z" transform="translate(-0.165 -0.12)"/><path class="i" d="M.466.12.653.735.165.355h.6L.28.735Z" transform="translate(-0.165 1.071)"/><path class="i" d="M.466.12.653.735.165.355h.6L.28.735Z" transform="translate(-0.165 2.261)"/><path class="i" d="M.466.12.653.735.165.355h.6L.28.735Z" transform="translate(-0.165 3.451)"/></g><g transform="translate(1.305)"><g transform="translate(0)"><path class="i" d="M.466.12.653.735.165.355h.6L.28.735Z" transform="translate(-0.165 -0.12)"/><path class="i" d="M.466.12.653.735.165.355h.6L.28.735Z" transform="translate(-0.165 1.071)"/><path class="i" d="M.466.12.653.735.165.355h.6L.28.735Z" transform="translate(-0.165 2.261)"/><path class="i" d="M.466.12.653.735.165.355h.6L.28.735Z" transform="translate(-0.165 3.451)"/><path class="i" d="M.466.12.653.735.165.355h.6L.28.735Z" transform="translate(-0.165 4.641)"/></g><g transform="translate(0.653 0.595)"><path class="i" d="M.466.12.653.735.165.355h.6L.28.735Z" transform="translate(-0.165 -0.12)"/><path class="i" d="M.466.12.653.735.165.355h.6L.28.735Z" transform="translate(-0.165 1.071)"/><path class="i" d="M.466.12.653.735.165.355h.6L.28.735Z" transform="translate(-0.165 2.261)"/><path class="i" d="M.466.12.653.735.165.355h.6L.28.735Z" transform="translate(-0.165 3.451)"/></g></g><g transform="translate(2.61)"><g transform="translate(0)"><path class="i" d="M.466.12.653.735.165.355h.6L.28.735Z" transform="translate(-0.165 -0.12)"/><path class="i" d="M.466.12.653.735.165.355h.6L.28.735Z" transform="translate(-0.165 1.071)"/><path class="i" d="M.466.12.653.735.165.355h.6L.28.735Z" transform="translate(-0.165 2.261)"/><path class="i" d="M.466.12.653.735.165.355h.6L.28.735Z" transform="translate(-0.165 3.451)"/><path class="i" d="M.466.12.653.735.165.355h.6L.28.735Z" transform="translate(-0.165 4.641)"/><g transform="translate(0.653 0.595)"><path class="i" d="M.466.12.653.735.165.355h.6L.28.735Z" transform="translate(-0.165 -0.12)"/><path class="i" d="M.466.12.653.735.165.355h.6L.28.735Z" transform="translate(-0.165 1.071)"/><path class="i" d="M.466.12.653.735.165.355h.6L.28.735Z" transform="translate(-0.165 2.261)"/><path class="i" d="M.466.12.653.735.165.355h.6L.28.735Z" transform="translate(-0.165 3.451)"/></g></g><g transform="translate(1.305)"><g transform="translate(0)"><path class="i" d="M.466.12.653.735.165.355h.6L.28.735Z" transform="translate(-0.165 -0.12)"/><path class="i" d="M.466.12.653.735.165.355h.6L.28.735Z" transform="translate(-0.165 1.071)"/><path class="i" d="M.466.12.653.735.165.355h.6L.28.735Z" transform="translate(-0.165 2.261)"/><path class="i" d="M.466.12.653.735.165.355h.6L.28.735Z" transform="translate(-0.165 3.451)"/><path class="i" d="M.466.12.653.735.165.355h.6L.28.735Z" transform="translate(-0.165 4.641)"/></g><g transform="translate(0.653 0.595)"><path class="i" d="M.466.12.653.735.165.355h.6L.28.735Z" transform="translate(-0.165 -0.12)"/><path class="i" d="M.466.12.653.735.165.355h.6L.28.735Z" transform="translate(-0.165 1.071)"/><path class="i" d="M.466.12.653.735.165.355h.6L.28.735Z" transform="translate(-0.165 2.261)"/><path class="i" d="M.466.12.653.735.165.355h.6L.28.735Z" transform="translate(-0.165 3.451)"/></g></g></g><g transform="translate(5.221)"><g transform="translate(0)"><path class="i" d="M.466.12.653.735.165.355h.6L.28.735Z" transform="translate(-0.165 -0.12)"/><path class="i" d="M.466.12.653.735.165.355h.6L.28.735Z" transform="translate(-0.165 1.071)"/><path class="i" d="M.466.12.653.735.165.355h.6L.28.735Z" transform="translate(-0.165 2.261)"/><path class="i" d="M.466.12.653.735.165.355h.6L.28.735Z" transform="translate(-0.165 3.451)"/><path class="i" d="M.466.12.653.735.165.355h.6L.28.735Z" transform="translate(-0.165 4.641)"/></g><g transform="translate(0.653 0.595)"><path class="i" d="M.466.12.653.735.165.355h.6L.28.735Z" transform="translate(-0.165 -0.12)"/><path class="i" d="M.466.12.653.735.165.355h.6L.28.735Z" transform="translate(-0.165 1.071)"/><path class="i" d="M.466.12.653.735.165.355h.6L.28.735Z" transform="translate(-0.165 2.261)"/><path class="i" d="M.466.12.653.735.165.355h.6L.28.735Z" transform="translate(-0.165 3.451)"/></g></g><g transform="translate(6.526)"><g transform="translate(0)"><path class="i" d="M.466.12.653.735.165.355h.6L.28.735Z" transform="translate(-0.165 -0.12)"/><path class="i" d="M.466.12.653.735.165.355h.6L.28.735Z" transform="translate(-0.165 1.071)"/><path class="i" d="M.466.12.653.735.165.355h.6L.28.735Z" transform="translate(-0.165 2.261)"/><path class="i" d="M.466.12.653.735.165.355h.6L.28.735Z" transform="translate(-0.165 3.451)"/></g><path class="i" d="M.466.12.653.735.165.355h.6L.28.735Z" transform="translate(-0.165 4.641)"/></g></g></g><g transform="translate(0 0)"><g transform="translate(0.311)"><path class="j" d="M-31.818,17.893a19.032,19.032,0,0,1,2.006-.965c-7.821-4.116-8.259-7.21-9.866-10.465,1.237,3.77,2.27,7.535,7.86,11.43Z" transform="translate(39.678 -6.463)"/><path class="j" d="M-37.9,8.928c2.98,2.492,5.566,4.268,7.474,4.808,1.886-1.007,8.127-1.554,7.992-.134a3.324,3.324,0,0,0-2.951-.105,8.756,8.756,0,0,1,1.727-.011,1.366,1.366,0,0,1-.4.3,4.584,4.584,0,0,1,1.379.492c.257-.025.426-.018.5.062a1.68,1.68,0,0,0-.734.635c1.734.049,3.581.032,3.775,1.861.547-1.62-.431-2.462-2.338-2.83a9.26,9.26,0,0,0-1.044-1.565c-5.212-.291-10.418-.645-15.38-3.517Z" transform="translate(41.687 -3.676)"/></g><path class="k" d="M651.1,653.99v-3.156h2.113a.734.734,0,0,1-.333.294h-1.323v.831h1.18a.525.525,0,0,1-.266.235h-.914v1.125a1.424,1.424,0,0,1-.457.672Z" transform="translate(-651.099 -636.133)"/><path class="k" d="M654.749,651.21v2.308h.6v-2.174a1.616,1.616,0,0,0-2.436,0v2.174h.542v-1.276h.428a.487.487,0,0,0,.209-.185h-.628v-.839a.964.964,0,0,1,1.285-.009Z" transform="translate(-649.05 -636.182)"/><path class="k" d="M658,653.519H655.57v-2.661h.609V653.3h2.141C658.23,653.383,658.185,653.491,658,653.519Z" transform="translate(-646.045 -636.107)"/><path class="k" d="M658.892,650.834v.522c-.977,1.326.689,2.918,2.564,1.751l.141-.029c-1.162,1.312-5.421.247-2.7-2.244Z" transform="translate(-643.294 -636.133)"/><path class="k" d="M657.816,651.538v.963c.935-1.685,2.231-2.523,6.2-1.405C660.209,649.6,658.8,650.384,657.816,651.538Z" transform="translate(-643.505 -636.768)"/><path class="k" d="M611.146,123.9a1.529,1.529,0,0,0-1.588,1.55,1.589,1.589,0,0,0,3.176,0A1.486,1.486,0,0,0,611.146,123.9Zm-.007.209c.471-.005.945.437.949,1.34.009,1.806-1.869,1.765-1.881,0C610.2,124.565,610.668,124.112,611.139,124.107Z" transform="translate(-589.44 -109.405)"/><path class="k" d="M663.673,651.175v2.4H663.2v-2.517l.475-.23,0,.109a1.785,1.785,0,0,1,1.377.5V653.6h-.461v-2.12c-.169-.282-.359-.353-.915-.359Z" transform="translate(-637.416 -636.142)"/><path class="k" d="M608.518,126.147c-4.9.022-3.628,3.948-.921,3.871a2.484,2.484,0,0,0,2.345-1.071c-.528,2.647-2.325,2.648-4.488,2.858a1.276,1.276,0,0,0-.513.5c3.673-.074,6.753-.727,6.663-3.577C611.54,126.736,610.205,126.14,608.518,126.147Zm-.073.475a1.305,1.305,0,1,1-1.612,1.27,1.474,1.474,0,0,1,1.612-1.27Z" transform="translate(-594.663 -106.862)"/></g></g></g></svg>