<svg xmlns="http://www.w3.org/2000/svg" xmlns:xlink="http://www.w3.org/1999/xlink" viewBox="0 0 576 576"><defs><style>.cls-1{fill:none;}.cls-2{clip-path:url(#clip-path);}.cls-3{fill:url(#linear-gradient);}.cls-4{fill:#fff;}.cls-5{clip-path:url(#clip-path-2);}.cls-6{fill:url(#linear-gradient-2);}.cls-7{clip-path:url(#clip-path-3);}.cls-8{fill:url(#linear-gradient-3);}.cls-9{clip-path:url(#clip-path-4);}.cls-10{fill:url(#linear-gradient-4);}.cls-11{clip-path:url(#clip-path-5);}.cls-12{fill:url(#linear-gradient-5);}.cls-13{clip-path:url(#clip-path-6);}.cls-14{fill:url(#linear-gradient-6);}.cls-15{clip-path:url(#clip-path-7);}.cls-16{fill:url(#linear-gradient-7);}.cls-17{clip-path:url(#clip-path-8);}.cls-18{fill:url(#linear-gradient-8);}.cls-19{clip-path:url(#clip-path-9);}.cls-20{fill:url(#linear-gradient-9);}.cls-21{clip-path:url(#clip-path-10);}.cls-22{fill:url(#linear-gradient-10);}</style><clipPath id="clip-path" transform="translate(0 -12)"><polygon class="cls-1" points="288 300 288 600 588 600 588 0 288 0 288 300"/></clipPath><linearGradient id="linear-gradient" x1="1192.57" y1="1147.12" x2="1192.57" y2="1148.12" gradientTransform="matrix(576, 0, 0, -576, -686634.63, 661319.35)" gradientUnits="userSpaceOnUse"><stop offset="0" stop-color="#1478c8"/><stop offset="1" stop-color="#288cdc"/></linearGradient><clipPath id="clip-path-2" transform="translate(0 -12)"><polygon class="cls-1" points="288 300 241.12 565.9 507.01 612.78 600.78 80.99 334.88 34.1 288 300"/></clipPath><linearGradient id="linear-gradient-2" x1="1192.19" y1="1146.69" x2="1192.19" y2="1147.69" gradientTransform="matrix(297.34, 424.65, 424.65, -297.34, -841351.61, -164854.32)" xlink:href="#linear-gradient"/><clipPath id="clip-path-3" transform="translate(0 -12)"><polygon class="cls-1" points="288 300 205.91 525.53 431.44 607.61 595.61 156.56 370.08 74.47 288 300"/></clipPath><linearGradient id="linear-gradient-3" x1="1191.81" y1="1146.13" x2="1191.81" y2="1147.13" gradientTransform="matrix(194.74, 417.63, 417.63, -194.74, -710671.27, -274133.33)" xlink:href="#linear-gradient"/><clipPath id="clip-path-4" transform="translate(0 -12)"><polygon class="cls-1" points="288 300 183 481.87 364.87 586.87 574.87 223.13 393 118.14 288 300"/></clipPath><linearGradient id="linear-gradient-4" x1="1191.44" y1="1145.43" x2="1191.44" y2="1146.43" gradientTransform="matrix(349.18, 201.6, 201.6, -349.18, -646759.39, 160230.46)" xlink:href="#linear-gradient"/><clipPath id="clip-path-5" transform="translate(0 -12)"><polygon class="cls-1" points="288 300 172.3 437.89 310.19 553.59 541.59 277.81 403.7 162.11 288 300"/></clipPath><linearGradient id="linear-gradient-5" x1="1191.08" y1="1144.52" x2="1191.08" y2="1145.52" gradientTransform="matrix(264.75, 222.15, 222.15, -264.75, -569407.34, 38831.28)" xlink:href="#linear-gradient"/><clipPath id="clip-path-6" transform="translate(0 -12)"><polygon class="cls-1" points="288 300 173.09 396.42 269.51 511.32 499.32 318.49 402.91 203.58 288 300"/></clipPath><linearGradient id="linear-gradient-6" x1="1190.72" y1="1143.32" x2="1190.72" y2="1144.32" gradientTransform="matrix(-25.1, 286.9, 286.9, 25.1, -297991.35, -370033.88)" xlink:href="#linear-gradient"/><clipPath id="clip-path-7" transform="translate(0 -12)"><polygon class="cls-1" points="288 300 184.08 360 244.08 463.92 451.92 343.92 391.92 240 288 300"/></clipPath><linearGradient id="linear-gradient-7" x1="1190.36" y1="1141.64" x2="1190.36" y2="1142.64" gradientTransform="matrix(115.2, 199.53, 199.53, -115.2, -364734.96, -105640.04)" xlink:href="#linear-gradient"/><clipPath id="clip-path-8" transform="translate(0 -12)"><polygon class="cls-1" points="288 300 203.43 330.78 234.21 415.36 403.35 353.79 372.57 269.22 288 300"/></clipPath><linearGradient id="linear-gradient-8" x1="1189.95" y1="1139.03" x2="1189.95" y2="1140.03" gradientTransform="matrix(-73.03, 156.61, 156.61, 73.03, -91273.76, -269275.89)" xlink:href="#linear-gradient"/><clipPath id="clip-path-9" transform="translate(0 -12)"><polygon class="cls-1" points="288 300 228.91 310.42 239.33 369.51 357.51 348.67 347.09 289.58 288 300"/></clipPath><linearGradient id="linear-gradient-9" x1="1189.37" y1="1134.15" x2="1189.37" y2="1135.15" gradientTransform="matrix(-112.03, 26.85, 26.85, 112.03, 103063.77, -158746)" xlink:href="#linear-gradient"/><clipPath id="clip-path-10" transform="translate(0 -12)"><polygon class="cls-1" points="288 300 258 300 258 330 318 330 318 300 288 300"/></clipPath><linearGradient id="linear-gradient-10" x1="1187.98" y1="1120.24" x2="1187.98" y2="1121.24" gradientTransform="matrix(-49.24, 29.89, 29.89, 49.24, 25279.05, -90392.41)" xlink:href="#linear-gradient"/></defs><title>logo</title><g id="Layer_2" data-name="Layer 2"><g id="Layer_1-2" data-name="Layer 1"><g id="shape_1" data-name="shape 1"><g class="cls-2"><g id="curve_1_c1" data-name="curve 1 c1"><circle class="cls-3" cx="288" cy="288" r="288"/></g></g><g id="curve_1_c0" data-name="curve 1 c0"><circle class="cls-4" cx="288" cy="288" r="273.6"/></g><g class="cls-5"><g id="curve_1_c1-2" data-name="curve 1 c1"><circle class="cls-6" cx="288" cy="300" r="259.2" transform="translate(-127.78 279.51) rotate(-45)"/></g></g><g id="curve_1_c0-2" data-name="curve 1 c0"><circle class="cls-4" cx="288" cy="288" r="244.8"/></g><g class="cls-7"><g id="curve_1_c1-3" data-name="curve 1 c1"><circle class="cls-8" cx="288" cy="300" r="230.4" transform="translate(-127.78 279.51) rotate(-45)"/></g></g><g id="curve_1_c0-3" data-name="curve 1 c0"><circle class="cls-4" cx="288" cy="288" r="216"/></g><g class="cls-9"><g id="curve_1_c1-4" data-name="curve 1 c1"><circle class="cls-10" cx="288" cy="288" r="201.6"/></g></g><g id="curve_1_c0-4" data-name="curve 1 c0"><circle class="cls-4" cx="288" cy="288" r="187.2"/></g><g class="cls-11"><g id="curve_1_c1-5" data-name="curve 1 c1"><circle class="cls-12" cx="288" cy="288" r="172.8"/></g></g><g id="curve_1_c0-5" data-name="curve 1 c0"><circle class="cls-4" cx="288" cy="288" r="158.4"/></g><g class="cls-13"><g id="curve_1_c1-6" data-name="curve 1 c1"><circle class="cls-14" cx="288" cy="300" r="144" transform="translate(-127.78 279.51) rotate(-45)"/></g></g><g id="curve_1_c0-6" data-name="curve 1 c0"><circle class="cls-4" cx="288" cy="288" r="129.6"/></g><g class="cls-15"><g id="curve_1_c1-7" data-name="curve 1 c1"><path class="cls-16" d="M387.77,242.4A115.2,115.2,0,1,1,230.4,200.23,115.21,115.21,0,0,1,387.77,242.4Z" transform="translate(0 -12)"/></g></g><g id="curve_1_c0-7" data-name="curve 1 c0"><circle class="cls-4" cx="288" cy="288" r="100.8"/></g><g class="cls-17"><g id="curve_1_c1-8" data-name="curve 1 c1"><circle class="cls-18" cx="288" cy="300" r="86.4" transform="translate(-127.78 279.51) rotate(-45)"/></g></g><g id="curve_1_c0-8" data-name="curve 1 c0"><circle class="cls-4" cx="288" cy="288" r="72"/></g><g class="cls-19"><g id="curve_1_c1-9" data-name="curve 1 c1"><circle class="cls-20" cx="288" cy="300" r="57.6" transform="translate(-28.92 557.27) rotate(-86.52)"/></g></g><g id="curve_1_c0-9" data-name="curve 1 c0"><circle class="cls-4" cx="288" cy="300" r="43.2" transform="translate(-53.29 525.62) rotate(-81.02)"/></g><g class="cls-21"><g id="curve_1_c1-10" data-name="curve 1 c1"><circle class="cls-22" cx="288" cy="300" r="28.8" transform="translate(-117.9 378.5) rotate(-58.74)"/></g></g><g id="curve_1_c0-10" data-name="curve 1 c0"><circle class="cls-4" cx="288" cy="300" r="14.4" transform="translate(-1.18 -10.86) rotate(-0.23)"/></g></g></g></g></svg>