<?xml version="1.0" ?><!DOCTYPE svg  PUBLIC '-//W3C//DTD SVG 1.1//EN'  'http://www.w3.org/Graphics/SVG/1.1/DTD/svg11.dtd'><svg enable-background="new 0 0 100 100" height="100px" id="Layer_1" version="1.1" viewBox="0 0 100 100" width="100px" xml:space="preserve" xmlns="http://www.w3.org/2000/svg" xmlns:xlink="http://www.w3.org/1999/xlink"><g><defs><rect height="100" id="SVGID_1_" width="100"/></defs><path d="M53.459,85l-13.737-5.889V15c0,0,29.854,5.016,33.963,17.445   c4.11,12.43-2.295,20.481-4.543,20.717c-6.273,0.654-8.652-3.271-8.652-3.271V29.828l-6.814-2.835L53.459,85z M57.029,76.168v7.521   c0,0,32.341-10.467,37.1-14.5c4.76-4.035-11.141-14.064-19.686-12.104c0,0-9.078,0.441-17.308,4.034c-0.077,0.032,0,6.759,0,6.759   l20.875-4.904l7.356,3.271L57.029,76.168z M36.261,75.623c0,0-4.218,2.18-13.628,2.07c-9.41-0.11-17.74-2.727-17.632-8.395   c0.108-5.67,15.576-11.885,31.152-14.502v7.959l-16.549,4.361c0,0-2.833,3.602,0.974,3.707c8.653,0.242,15.792-2.072,15.792-2.072   L36.261,75.623z"/></g></svg>