<svg xmlns="http://www.w3.org/2000/svg" viewBox="0 0 84.39 211.98"><g id="Layer_2" data-name="Layer 2"><g id="Layer_1-2" data-name="Layer 1"><path class="cls-1" d="M34.9,4.59l5.22,21A362,362,0,0,1,50.87,115.2l-.23,40.72a3.41,3.41,0,0,0,4.87,3.1l26-12.27a1.67,1.67,0,0,1,2.13,2.4L46.27,209.43a4.32,4.32,0,0,1-7.34,0L.76,148.38A1.67,1.67,0,0,1,2.93,146l25.81,12.9a3.41,3.41,0,0,0,4.94-3l.41-35.47A362,362,0,0,0,23.36,28.59L18.4,8.7a5.39,5.39,0,0,1,3.93-6.53l6-1.51A5.4,5.4,0,0,1,34.9,4.59Z"/></g></g></svg>