<svg xmlns="http://www.w3.org/2000/svg" width="37.733" height="35.299" viewBox="0 0 37.733 35.299">
  <defs>
    <style>
      .cls-1 {
        fill: none;
      }

      .cls-2, .cls-5 {
        fill: #fff;
      }

      .cls-2, .cls-3 {
        stroke: #fff;
      }

      .cls-3 {
        stroke-width: 3px;
      }
    </style>
  </defs>
  <g id="Group_4" data-name="Group 4" transform="matrix(0.656, -0.755, 0.755, 0.656, -1201.123, 1331.677)">
    <g id="Path_1" data-name="Path 1" class="cls-1" transform="translate(1782.5 42)">
      <path class="cls-4" d="M 9.25 17.5 C 4.700930118560791 17.5 1 13.79907035827637 1 9.25 C 1 4.700930118560791 4.700930118560791 1 9.25 1 C 13.79907035827637 1 17.5 4.700930118560791 17.5 9.25 C 17.5 13.79907035827637 13.79907035827637 17.5 9.25 17.5 Z"/>
      <path class="cls-5" d="M 9.25 2 C 5.252340316772461 2 2 5.252340316772461 2 9.25 C 2 13.24765968322754 5.252340316772461 16.5 9.25 16.5 C 13.24765968322754 16.5 16.5 13.24765968322754 16.5 9.25 C 16.5 5.252340316772461 13.24765968322754 2 9.25 2 M 9.25 0 C 14.35863018035889 0 18.5 4.141369819641113 18.5 9.25 C 18.5 14.35863018035889 14.35863018035889 18.5 9.25 18.5 C 4.141369819641113 18.5 0 14.35863018035889 0 9.25 C 0 4.141369819641113 4.141369819641113 0 9.25 0 Z"/>
    </g>
    <g id="Rectangle_3" data-name="Rectangle 3" class="cls-2" transform="translate(1789 66)">
      <rect class="cls-4" width="5" height="16" rx="2.5"/>
      <rect class="cls-6" x="0.5" y="0.5" width="4" height="15" rx="2"/>
    </g>
    <line id="Line_1" data-name="Line 1" class="cls-3" y1="8" transform="translate(1791.5 58.5)"/>
  </g>
</svg>
